<svg width="112" height="45" viewBox="0 0 112 45" fill="none" xmlns="http://www.w3.org/2000/svg">
<rect x="0.5" y="1.22998" width="110.576" height="43" rx="9.5" fill="black"/>
<g clip-path="url(#clip0_906_58)">
<path d="M15.8965 32.33V13.1034H28.2136V16.023H19.3794V21.2428H27.3686V24.1624H19.3794V32.33H15.8965ZM34.6349 13.1034V32.33H31.2365V13.1034H34.6349ZM42.2792 32.621C41.3654 32.621 40.5424 32.4583 39.8101 32.1329C39.0841 31.8011 38.5083 31.313 38.0827 30.6683C37.6634 30.0237 37.4537 29.2288 37.4537 28.2838C37.4537 27.4701 37.6039 26.7973 37.9044 26.2653C38.2047 25.7334 38.6147 25.3078 39.1342 24.9886C39.6536 24.6694 40.2388 24.4284 40.8897 24.2657C41.5469 24.0967 42.2259 23.9747 42.9269 23.8996C43.7718 23.812 44.4572 23.7337 44.9829 23.6649C45.5086 23.5898 45.8904 23.4771 46.1282 23.3269C46.3723 23.1704 46.4944 22.9295 46.4944 22.604V22.5477C46.4944 21.8405 46.2847 21.2928 45.8654 20.9048C45.446 20.5168 44.8421 20.3228 44.0535 20.3228C43.2211 20.3228 42.5608 20.5043 42.0726 20.8673C41.5907 21.2303 41.2652 21.659 41.0962 22.1534L37.9231 21.7028C38.1734 20.8266 38.5865 20.0943 39.1623 19.506C39.7381 18.9114 40.4422 18.4671 41.2746 18.1729C42.107 17.8725 43.027 17.7223 44.0347 17.7223C44.7294 17.7223 45.421 17.8036 46.1095 17.9663C46.7979 18.1291 47.4269 18.3982 47.9964 18.7737C48.566 19.143 49.0229 19.6468 49.3671 20.2852C49.7176 20.9236 49.8928 21.7216 49.8928 22.6791V32.33H46.6258V30.3491H46.5132C46.3066 30.7497 46.0156 31.1252 45.64 31.4757C45.2708 31.8199 44.8045 32.0984 44.2412 32.3112C43.6842 32.5178 43.0302 32.621 42.2792 32.621ZM43.1616 30.1238C43.8438 30.1238 44.4352 29.9893 44.936 29.7201C45.4367 29.4448 45.8215 29.0818 46.0907 28.6311C46.366 28.1805 46.5037 27.6892 46.5037 27.1572V25.458C46.3974 25.5456 46.2158 25.627 45.9592 25.7021C45.7089 25.7772 45.4272 25.8429 45.1143 25.8992C44.8014 25.9556 44.4916 26.0056 44.1849 26.0494C43.8782 26.0932 43.6122 26.1308 43.3869 26.1621C42.88 26.2309 42.4262 26.3436 42.0257 26.5001C41.6251 26.6565 41.309 26.8756 41.0775 27.1572C40.8459 27.4326 40.7301 27.7893 40.7301 28.2274C40.7301 28.8533 40.9586 29.3258 41.4154 29.645C41.8723 29.9642 42.4544 30.1238 43.1616 30.1238ZM56.0887 17.91L58.9993 23.233L61.9562 17.91H65.552L61.2054 25.12L65.6273 32.33H62.0504L58.9993 27.1384L55.9762 32.33H52.3713L56.7647 25.12L52.4839 17.91H56.0887Z" fill="white"/>
<path d="M69.9277 11.2653C69.9277 10.1703 70.8384 9.28162 71.9615 9.28162H95.411C96.5346 9.28162 97.4448 10.1703 97.4448 11.2653V34.9898C97.4448 36.0851 96.5346 36.9731 95.411 36.9731H71.9615C70.8384 36.9731 69.9277 36.0851 69.9277 34.9902V11.2649V11.2653Z" fill="#318BFD"/>
<path d="M78.7509 32.6209C77.8373 32.6209 77.0141 32.4582 76.2821 32.1328C75.5559 31.8011 74.9803 31.3129 74.5545 30.6683C74.1354 30.0236 73.9258 29.2288 73.9258 28.2837C73.9258 27.4701 74.076 26.7973 74.3763 26.2653C74.6766 25.7333 75.0866 25.3077 75.6061 24.9885C76.1256 24.6694 76.7108 24.4284 77.3617 24.2657C78.0189 24.0967 78.6978 23.9746 79.3988 23.8995C80.2438 23.8119 80.929 23.7337 81.4548 23.6648C81.9806 23.5897 82.3621 23.4771 82.6001 23.3269C82.8444 23.1704 82.9661 22.9294 82.9661 22.604V22.5477C82.9661 21.8404 82.7565 21.2928 82.3374 20.9047C81.9178 20.5167 81.3138 20.3227 80.5253 20.3227C79.6929 20.3227 79.0328 20.5042 78.5447 20.8672C78.0624 21.2302 77.7369 21.6589 77.5679 22.1534L74.3951 21.7027C74.6453 20.8265 75.0585 20.0943 75.6341 19.5059C76.2101 18.9114 76.9141 18.467 77.7465 18.1729C78.579 17.8724 79.4988 17.7222 80.5065 17.7222C81.2013 17.7222 81.8927 17.8036 82.5813 17.9663C83.2698 18.129 83.8989 18.3982 84.4682 18.7737C85.0379 19.1429 85.4947 19.6468 85.839 20.2852C86.1895 20.9235 86.3648 21.7215 86.3648 22.6791V32.3299H83.0979V30.3491H82.9849C82.7783 30.7496 82.4876 31.1251 82.1119 31.4756C81.7426 31.8199 81.2766 32.0984 80.7131 32.3111C80.1559 32.5177 79.5021 32.6209 78.7509 32.6209ZM79.6335 30.1238C80.3157 30.1238 80.9072 29.9892 81.4079 29.7201C81.9086 29.4447 82.2935 29.0817 82.5624 28.6311C82.8381 28.1804 82.9757 27.6891 82.9757 27.1572V25.4579C82.869 25.5456 82.6875 25.6269 82.4311 25.702C82.1809 25.7771 81.899 25.8429 81.5861 25.8992C81.2732 25.9555 80.9633 26.0056 80.6567 26.0494C80.35 26.0932 80.084 26.1307 79.859 26.162C79.352 26.2309 78.8981 26.3435 78.4974 26.5C78.0971 26.6564 77.7808 26.8755 77.5495 27.1572C77.3178 27.4325 77.2019 27.7893 77.2019 28.2274C77.2019 28.8532 77.4303 29.3258 77.8875 29.6449C78.3443 29.9642 78.9261 30.1238 79.6335 30.1238ZM89.7819 32.3299V17.91H93.1801V32.3299H89.7819ZM91.4906 15.8634C90.9523 15.8634 90.4892 15.685 90.101 15.3283C89.7129 14.9653 89.5192 14.5303 89.5192 14.0234C89.5192 13.5102 89.7129 13.0752 90.101 12.7185C90.4892 12.3555 90.9523 12.174 91.4906 12.174C92.0348 12.174 92.4983 12.3555 92.8798 12.7185C93.268 13.0752 93.4621 13.5102 93.4621 14.0234C93.4621 14.5303 93.268 14.9653 92.8798 15.3283C92.4983 15.685 92.0348 15.8634 91.4906 15.8634Z" fill="white"/>
</g>
<rect x="0.5" y="1.22998" width="110.576" height="43" rx="9.5" stroke="#318BFD"/>
<defs>
<clipPath id="clip0_906_58">
<rect width="83.451" height="32" fill="white" transform="translate(14 6.72998)"/>
</clipPath>
</defs>
</svg>
