<svg width="240" height="43" viewBox="0 0 240 43" fill="none" xmlns="http://www.w3.org/2000/svg">
<path d="M221.13 0H18.8698C8.44829 0 0 9.59977 0 21.4417C0 33.2836 8.44829 42.8834 18.8698 42.8834H221.13C231.552 42.8834 240 33.2836 240 21.4417C240 9.59977 231.552 0 221.13 0Z" fill="#2D2D2D"/>
<path d="M45.4056 27.7133C44.4928 27.7392 43.5916 27.4776 42.8016 26.9575C42.0664 26.4543 41.4781 25.716 41.1104 24.8348C40.7041 23.8502 40.5024 22.7728 40.5207 21.6855C40.5024 20.5983 40.7041 19.5209 41.1104 18.5363C41.4781 17.6551 42.0664 16.9168 42.8016 16.4136C43.5911 15.8916 44.4924 15.6282 45.4056 15.6524C46.4429 15.6132 47.4634 15.9574 48.3139 16.6333C49.1148 17.3083 49.6989 18.2629 49.9768 19.3511L48.2667 19.8818C48.1045 19.1823 47.747 18.5616 47.2478 18.1128C46.7125 17.6762 46.0639 17.4563 45.4056 17.4883C44.9725 17.4583 44.5392 17.5445 44.1409 17.7401C43.7426 17.9356 43.3904 18.235 43.1129 18.614C42.5468 19.5034 42.267 20.5869 42.3204 21.6829C42.2574 22.7797 42.5354 23.8667 43.1058 24.7544C43.3852 25.1331 43.7387 25.4321 44.138 25.6276C44.5374 25.8231 44.9715 25.9096 45.4056 25.8801C46.0633 25.9108 46.7111 25.6899 47.2454 25.2529C47.747 24.7998 48.1047 24.1731 48.2644 23.4679L49.9744 24.0146C49.6976 25.1034 49.1143 26.059 48.3139 26.7351C47.4631 27.41 46.4426 27.7533 45.4056 27.7133ZM53.8121 19.2385C54.031 19.0718 54.2724 18.9469 54.5268 18.8686C54.7915 18.7835 55.0654 18.7402 55.3405 18.74C55.5066 18.7387 55.6724 18.7548 55.8359 18.7882V20.5893C55.6606 20.5349 55.4797 20.5079 55.2981 20.5089C54.933 20.5028 54.5726 20.6025 54.2508 20.7984C53.9214 21.0007 53.6564 21.3158 53.4936 21.6989C53.3206 22.1272 53.2359 22.5947 53.246 23.0659V27.4721H51.5359V18.7882H53.0478V20.1685C53.2313 19.7917 53.4938 19.4722 53.8121 19.2385ZM63.0252 20.1551C63.1463 20.4246 63.226 20.7156 63.2611 21.0155C63.2979 21.3919 63.3145 21.7705 63.3107 22.1492V27.4721H61.8223V26.2982C61.5228 26.7532 61.1323 27.1207 60.683 27.3703C60.1952 27.6134 59.6659 27.7306 59.1334 27.7133C58.6524 27.7282 58.1757 27.6066 57.7464 27.3596C57.3798 27.1457 57.0752 26.8163 56.869 26.4108C56.6704 26.0083 56.5687 25.5535 56.5741 25.0921C56.5577 24.5203 56.7069 23.9582 56.9987 23.492C57.338 23.0136 57.7969 22.6632 58.3149 22.4869C58.747 22.3413 59.1865 22.2258 59.631 22.1412C60.1421 22.0393 60.812 21.9241 61.6407 21.7954C61.6438 21.5851 61.6083 21.3764 61.5364 21.1826C61.4645 20.9887 61.3578 20.8141 61.2232 20.6697C60.886 20.4045 60.4786 20.2796 60.0698 20.316C59.7107 20.3106 59.3567 20.4133 59.0437 20.6135C58.7347 20.8152 58.5083 21.1476 58.4139 21.5381L56.8407 20.9726C57.0158 20.2483 57.409 19.6166 57.9516 19.1876C58.5865 18.7293 59.3303 18.5047 60.0816 18.5443C61.5628 18.5461 62.5441 19.0831 63.0252 20.1551ZM61.4402 24.7249C61.5669 24.2884 61.6283 23.8309 61.6218 23.3714C61.0746 23.4679 60.591 23.5617 60.1712 23.6528C59.8347 23.7223 59.5017 23.8118 59.1735 23.9208C58.9143 24.024 58.6761 24.1854 58.4729 24.3952C58.3953 24.4826 58.3342 24.5871 58.2937 24.7024C58.2531 24.8177 58.2338 24.9412 58.237 25.0653C58.2326 25.218 58.259 25.3699 58.3141 25.5093C58.3693 25.6487 58.4519 25.7718 58.5555 25.8694C58.8181 26.0912 59.1417 26.1995 59.4683 26.1749C59.9368 26.196 60.3979 26.0374 60.7774 25.7246C61.0873 25.4812 61.3198 25.1306 61.4402 24.7249ZM68.488 17.2284C68.2258 17.2063 67.9664 17.3026 67.7663 17.4964C67.6838 17.5928 67.6199 17.7076 67.5785 17.8336C67.5371 17.9595 67.5191 18.0938 67.5257 18.2281V18.7909H69.3655V20.3026H67.5257V27.4721H65.8156V20.3026H64.582V18.7882H65.8133V18.6435C65.8084 18.2171 65.8368 17.7911 65.8982 17.3704C65.9576 17.01 66.1047 16.6758 66.3227 16.4055C66.5044 16.1736 66.7292 15.9904 66.9808 15.8695C67.1868 15.767 67.4057 15.7019 67.6295 15.6765C67.8229 15.6604 68.0847 15.6524 68.4149 15.6524H69.3631V17.2284H68.488ZM72.7337 23.8217V24.3363C72.7311 24.5487 72.7429 24.7611 72.7691 24.9715C72.7854 25.1154 72.8254 25.2545 72.8871 25.3816C73.0249 25.5849 73.2072 25.7437 73.4157 25.8424C73.6242 25.9412 73.8517 25.9763 74.0759 25.9444C74.3791 25.9311 74.6815 25.8989 74.9816 25.8479V27.4721C74.553 27.5719 74.1171 27.6257 73.6796 27.6329C73.189 27.6453 72.7012 27.545 72.2455 27.3381C71.8555 27.1605 71.5325 26.8334 71.3327 26.4134C71.2136 26.1577 71.1324 25.8816 71.0921 25.596C71.0503 25.2685 71.0306 24.9379 71.0331 24.607V20.3026H69.6485V18.7882H71.0355V16.376H72.7337V18.7882H74.984V20.3026H72.7337V23.8217ZM77.6446 23.6769C77.6706 24.2891 77.8833 24.8718 78.2461 25.3253C78.4278 25.5207 78.6425 25.672 78.8773 25.7702C79.1121 25.8683 79.362 25.9112 79.6118 25.8962C79.9912 25.9067 80.3658 25.7982 80.6944 25.5826C81.0074 25.3653 81.2524 25.0419 81.395 24.6579L83.0791 25.2368C82.8163 25.9919 82.3476 26.6315 81.7417 27.062C81.1291 27.4976 80.4192 27.7237 79.6967 27.7133C78.9898 27.727 78.2921 27.5302 77.6729 27.1425C77.0882 26.773 76.6092 26.2204 76.2931 25.5504C75.9601 24.8351 75.7922 24.0357 75.8048 23.2267C75.7887 22.3745 75.9538 21.5305 76.286 20.7662C76.586 20.0839 77.0528 19.5144 77.6305 19.1259C78.2324 18.7321 78.9173 18.5319 79.6118 18.547C80.277 18.5288 80.9335 18.7208 81.5082 19.1018C82.0508 19.4776 82.4821 20.0293 82.7465 20.6858C83.0474 21.4431 83.1949 22.2674 83.1782 23.098C83.1782 23.3553 83.1735 23.5483 83.164 23.6769H77.6446ZM79.6825 20.2356C79.4375 20.2121 79.1909 20.2445 78.9571 20.331C78.7233 20.4174 78.5071 20.5561 78.3211 20.7389C78.1352 20.9217 77.9833 21.1449 77.8744 21.3954C77.7656 21.6459 77.7018 21.9186 77.6871 22.1975H81.4351C81.407 21.6473 81.2177 21.1236 80.8973 20.7099C80.7326 20.5433 80.5404 20.4156 80.3318 20.3341C80.1233 20.2527 79.9026 20.2192 79.6825 20.2356ZM91.4997 15.8936V27.4721H89.9854V26.8449C89.384 27.4307 88.6119 27.7404 87.8201 27.7133C87.1708 27.7262 86.5328 27.5191 85.9874 27.1183C85.4491 26.7145 85.0222 26.1458 84.7562 25.478C84.4609 24.7414 84.3135 23.9395 84.3245 23.1302C84.3116 22.3164 84.4616 21.5099 84.7632 20.7716C85.0359 20.1059 85.4674 19.5405 86.0086 19.1393C86.5662 18.7362 87.2161 18.5292 87.8767 18.5443C88.5619 18.5228 89.2339 18.7603 89.7873 19.2198V15.8936H91.4997ZM88.0749 25.9766C88.3533 26.0014 88.6327 25.945 88.8866 25.8128C89.1405 25.6805 89.3604 25.4767 89.5255 25.2207C89.8614 24.5928 90.0218 23.8639 89.9854 23.1302C90.0199 22.3992 89.8596 21.6735 89.5255 21.0477C89.3706 20.7948 89.161 20.5916 88.9168 20.4578C88.6725 20.3239 88.4021 20.264 88.1315 20.2838C87.8451 20.2654 87.5591 20.3285 87.2996 20.4675C87.0401 20.6065 86.8152 20.817 86.6455 21.0798C86.2868 21.6836 86.1082 22.4024 86.136 23.1302C86.1063 23.8584 86.2797 24.5788 86.6313 25.1886C86.7941 25.4474 87.0118 25.6553 87.2641 25.793C87.5165 25.9308 87.7953 25.9939 88.0749 25.9766ZM95.6039 18.7722L97.2881 18.7882L98.7882 24.3497L100.288 18.7882H101.72L103.234 24.3497L104.72 18.7882H106.39L104.053 27.4721H102.623L100.996 21.4899L99.2694 27.4721H97.9391L95.6039 18.7722ZM107.803 15.6685H109.502V17.4374H107.803V15.6685ZM107.803 18.7882H109.502V27.4721H107.803V18.7882ZM113.86 23.8217V24.3363C113.858 24.5487 113.87 24.7611 113.896 24.9715C113.912 25.1154 113.952 25.2545 114.014 25.3816C114.152 25.5849 114.334 25.7437 114.542 25.8424C114.751 25.9412 114.978 25.9763 115.203 25.9444C115.506 25.9311 115.808 25.8989 116.108 25.8479V27.4721C115.681 27.5716 115.247 27.6254 114.811 27.6329C114.319 27.646 113.829 27.5457 113.372 27.3381C112.982 27.1605 112.659 26.8334 112.459 26.4134C112.34 26.1579 112.257 25.8817 112.216 25.596C112.175 25.2685 112.155 24.9379 112.157 24.607V20.3026H110.771V18.7882H112.157V16.376H113.856V18.7882H116.108V20.3026H113.858L113.86 23.8217ZM121.757 18.547C122.965 18.547 123.769 18.9893 124.17 19.8737C124.563 20.7191 124.769 21.6598 124.772 22.6156V27.4721H123.045V23.291C123.045 21.3398 122.446 20.3642 121.248 20.3642C121.011 20.3572 120.775 20.4065 120.556 20.509C120.337 20.6115 120.138 20.7648 119.974 20.9592C119.582 21.5418 119.4 22.2719 119.465 23.0015V27.4721H117.738V15.8936H119.267V19.7531C119.572 19.3477 119.956 19.028 120.388 18.8188C120.82 18.6096 121.289 18.5166 121.757 18.547ZM152.227 15.6658H153.926V17.4347H152.227V15.6658ZM152.227 18.7856H153.926V27.4721H152.227V18.7856ZM160.054 18.5443C161.261 18.5443 162.066 18.9866 162.467 19.871C162.859 20.7164 163.065 21.6572 163.068 22.6129V27.4721H161.342V23.291C161.342 21.3398 160.742 20.3642 159.544 20.3642C159.307 20.3572 159.071 20.4065 158.852 20.509C158.633 20.6115 158.435 20.7648 158.27 20.9592C157.879 21.5418 157.696 22.2719 157.761 23.0015V27.4721H156.034V18.7882H157.563V19.7531C157.868 19.3477 158.252 19.028 158.684 18.8188C159.116 18.6096 159.585 18.5166 160.054 18.547V18.5443ZM167.882 15.8936H169.581V27.4721H167.882V15.8936ZM175.708 18.547C176.916 18.547 177.72 18.9893 178.121 19.8737C178.514 20.7191 178.72 21.6598 178.723 22.6156V27.4721H176.996V23.291C176.996 21.3398 176.397 20.3642 175.199 20.3642C174.962 20.3572 174.726 20.4065 174.507 20.509C174.288 20.6115 174.089 20.7648 173.925 20.9592C173.533 21.5418 173.351 22.2719 173.416 23.0015V27.4721H171.689V18.7882H173.218V19.7531C173.523 19.3481 173.906 19.0286 174.338 18.8194C174.769 18.6102 175.238 18.517 175.706 18.547H175.708ZM187.2 15.8936V27.4721H185.686V26.8449C185.085 27.4317 184.313 27.7423 183.521 27.716C182.871 27.7289 182.233 27.5218 181.688 27.121C181.15 26.7171 180.723 26.1485 180.457 25.4807C180.162 24.7449 180.014 23.9439 180.025 23.1355C180.011 22.3201 180.16 21.5117 180.461 20.7716C180.734 20.1059 181.165 19.5405 181.707 19.1393C182.264 18.7362 182.914 18.5292 183.575 18.5443C184.26 18.5228 184.932 18.7603 185.485 19.2198V15.8936H187.2ZM183.773 25.9766C184.051 26.0014 184.331 25.945 184.585 25.8128C184.839 25.6805 185.058 25.4767 185.224 25.2207C185.559 24.5928 185.72 23.8639 185.684 23.1302C185.718 22.3992 185.558 21.6735 185.224 21.0477C185.069 20.7948 184.859 20.5916 184.615 20.4578C184.371 20.3239 184.1 20.264 183.83 20.2838C183.543 20.2654 183.257 20.3285 182.998 20.4675C182.738 20.6065 182.513 20.817 182.344 21.0798C181.985 21.6836 181.806 22.4024 181.834 23.1302C181.804 23.8584 181.978 24.5788 182.329 25.1886C182.492 25.4474 182.71 25.6553 182.962 25.793C183.215 25.9308 183.493 25.9939 183.773 25.9766ZM189.321 15.6685H191.019V17.4374H189.321V15.6685ZM189.321 18.7882H191.019V27.4721H189.321V18.7882ZM199.168 20.1551C199.289 20.4246 199.369 20.7156 199.404 21.0155C199.441 21.3919 199.458 21.7705 199.454 22.1492V27.4721H197.968V26.2982C197.668 26.7532 197.278 27.1207 196.828 27.3703C196.341 27.6134 195.811 27.7306 195.279 27.7133C194.798 27.7282 194.321 27.6066 193.892 27.3596C193.525 27.1457 193.221 26.8163 193.014 26.4108C192.816 26.0083 192.714 25.5535 192.72 25.0921C192.703 24.5203 192.852 23.9582 193.144 23.492C193.483 23.0136 193.942 22.6632 194.46 22.4869C194.892 22.3414 195.33 22.2259 195.774 22.1412C196.285 22.0393 196.955 21.9241 197.784 21.7954C197.787 21.5851 197.751 21.3764 197.68 21.1826C197.608 20.9887 197.501 20.8141 197.366 20.6697C197.029 20.4045 196.622 20.2796 196.213 20.316C195.854 20.3106 195.5 20.4133 195.187 20.6135C194.878 20.8152 194.651 21.1476 194.557 21.5381L192.986 20.9753C193.161 20.2509 193.554 19.6193 194.097 19.1903C194.732 18.732 195.476 18.5074 196.227 18.547C197.708 18.547 198.69 19.0831 199.171 20.1551H199.168ZM197.586 24.7249C197.713 24.2895 197.775 23.8329 197.77 23.3741C197.222 23.4706 196.739 23.5644 196.319 23.6555C195.983 23.725 195.65 23.8145 195.321 23.9235C195.062 24.0267 194.824 24.188 194.621 24.3979C194.543 24.4853 194.482 24.5898 194.441 24.7051C194.401 24.8204 194.382 24.9439 194.385 25.068C194.38 25.2207 194.407 25.3726 194.462 25.512C194.517 25.6514 194.6 25.7745 194.703 25.872C194.966 26.0939 195.29 26.2022 195.616 26.1776C196.085 26.1987 196.546 26.0401 196.925 25.7273C197.235 25.4828 197.466 25.1312 197.586 24.7249Z" fill="white"/>
<path d="M141.843 15.405H141.838C141.614 15.406 141.39 15.4271 141.169 15.4679C141.014 15.497 140.86 15.5361 140.708 15.5852C141.551 15.8445 142.297 16.4095 142.831 17.1943C143.366 17.9791 143.66 18.9408 143.67 19.9332C143.67 21.347 143.067 21.8991 142.154 23.4235L138.771 28.3705L144.448 23.4228C144.915 23.0082 145.295 22.4791 145.557 21.875C145.82 21.2708 145.96 20.6071 145.966 19.9332C145.946 18.7118 145.501 17.5489 144.728 16.7C143.955 15.851 142.917 15.3852 141.843 15.405Z" fill="#D174A3"/>
<path d="M135.701 15.405C136.281 15.3963 136.856 15.53 137.386 15.7969C137.917 16.0638 138.39 16.4576 138.774 16.9515C139.163 16.4653 139.637 16.0766 140.165 15.8103C140.694 15.544 141.265 15.406 141.843 15.405C142.918 15.3858 143.956 15.8518 144.728 16.7007C145.501 17.5496 145.946 18.7121 145.965 19.9332C145.966 20.6083 145.829 21.2745 145.566 21.8799C145.303 22.4853 144.921 23.0136 144.449 23.4235L138.774 28.3705L133.193 23.5126C132.697 23.101 132.293 22.5629 132.012 21.9415C131.732 21.3201 131.584 20.6327 131.58 19.9345C131.588 19.3293 131.701 18.7317 131.912 18.1762C132.124 17.6206 132.43 17.118 132.813 16.6972C133.196 16.2763 133.648 15.9456 134.144 15.7238C134.639 15.5021 135.169 15.3937 135.701 15.405Z" fill="#EE5757"/>
<path d="M135.701 16.7524C134.949 16.7419 134.223 17.0711 133.684 17.6678C133.144 18.2644 132.835 19.0799 132.824 19.9352C132.824 20.1109 132.886 20.2795 132.995 20.4038C133.104 20.5281 133.253 20.5979 133.407 20.5979C133.562 20.5979 133.71 20.5281 133.82 20.4038C133.929 20.2795 133.991 20.1109 133.991 19.9352C134.004 19.4329 134.192 18.957 134.511 18.61C134.831 18.263 135.258 18.0729 135.701 18.0805C135.855 18.0805 136.004 18.0107 136.113 17.8864C136.222 17.7621 136.284 17.5936 136.284 17.4178C136.284 17.2421 136.222 17.0735 136.113 16.9492C136.004 16.8249 135.855 16.7551 135.701 16.7551" fill="#FAE6F0"/>
<path d="M138.772 29.0332C138.645 29.0327 138.523 28.9857 138.422 28.8992L132.843 24.0399C132.271 23.5703 131.805 22.9532 131.484 22.2392C131.163 21.5253 130.996 20.735 130.996 19.9332C131.024 18.9242 131.302 17.9447 131.799 17.1075C132.295 16.2702 132.99 15.6093 133.802 15.2008C134.615 14.7923 135.512 14.6528 136.391 14.7983C137.27 14.9438 138.096 15.3685 138.772 16.0234C139.631 15.1996 140.718 14.746 141.843 14.7423C143.072 14.7237 144.257 15.2597 145.139 16.2327C146.021 17.2058 146.527 18.5366 146.547 19.9332C146.546 20.7085 146.389 21.4732 146.089 22.1697C145.79 22.8662 145.355 23.4761 144.817 23.9535L139.121 28.9012C139.02 28.987 138.898 29.0333 138.772 29.0332ZM135.701 16.0677C134.781 16.0518 133.894 16.4491 133.231 17.173C132.569 17.897 132.185 18.889 132.162 19.9332C132.162 20.5298 132.287 21.1178 132.527 21.6484C132.767 22.1791 133.115 22.6369 133.542 22.9839L138.772 27.5564L144.098 22.9169C144.496 22.5671 144.818 22.1187 145.04 21.6058C145.263 21.0929 145.379 20.5291 145.381 19.9573C145.362 18.9119 144.979 17.9177 144.315 17.193C143.652 16.4683 142.763 16.0722 141.843 16.0918C141.345 16.0926 140.853 16.2109 140.398 16.439C139.943 16.6672 139.535 17.0002 139.199 17.4171C139.087 17.5513 138.934 17.6306 138.772 17.6383C138.69 17.639 138.61 17.6196 138.536 17.5814C138.463 17.5432 138.397 17.4871 138.344 17.4171C138.015 16.9895 137.608 16.6476 137.152 16.4147C136.696 16.1819 136.201 16.0635 135.701 16.0677Z" fill="white"/>
</svg>
