<svg width="203" height="348" viewBox="0 0 203 348" fill="none" xmlns="http://www.w3.org/2000/svg">
<path d="M40.7406 165.585C39.5771 166.1 36.038 168.175 31.687 167.475C28.7176 166.997 43.1888 173.476 42.5293 172.991C34.3473 166.972 18.8225 191.988 0.154488 197.634C0.622078 196.784 -0.146328 197.747 0.154488 197.634C1.2217 198.299 0.401532 196.752 0.154488 197.634C0.506741 196.784 1.03652 198.26 0.154488 197.634C1.17242 196.612 0.0959426 197.764 0.154488 197.634C-0.313103 198.483 2.0971 196.611 0.154488 197.634C-0.0912532 197.707 -0.00845678 197.287 0.154488 197.634C0.000361934 197.559 3.31036 196.286 0.154488 197.634C4.47024 199.735 7.25091 200.42 15.7939 202.706C49.0624 211.608 49.9499 212.738 55.8626 212.314C58.4495 212.128 76.8103 210.811 80.1847 201.565C85.4651 187.096 51.2242 160.944 40.7406 165.585Z" fill="#302742"/>
<path d="M44.0245 312.265L38.9736 282.109L55.0557 280.04L62.6523 305.276L54.6139 319.06L44.0245 312.265Z" fill="#FFB6B6"/>
<path d="M85.6969 189.735C85.0286 190.803 83.2867 194.472 79.286 196.292C76.5557 197.534 74.0172 197.349 73.1941 197.312C62.9827 196.844 39.411 206.331 27.1921 221.298C24.425 224.688 23.1143 227.288 22.6583 230.182C22.0118 234.286 23.3806 237.099 25.8457 244.679C27.194 248.826 28.2109 253.071 29.5222 257.229C37.1994 281.572 35.0563 287.15 40.8 290.57C47.1726 294.364 57.5883 292.127 60.0852 287.444C61.1077 285.526 60.387 283.977 59.6404 279.889C57.4515 267.902 60.8821 266.074 58.9326 257.258C56.6564 246.964 50.7339 243.819 52.7193 240.74C54.5604 237.885 60.0076 240.041 70.4372 238.638C75.2096 237.997 77.9022 237.03 86.2781 234.21C118.896 223.227 120.276 223.673 124.926 220.061C126.961 218.481 141.882 207.129 138.906 197.752C125.257 154.747 91.7184 180.113 85.6969 189.735Z" fill="#302742"/>
<path d="M53.7594 309.931C52.2335 310.779 50.4494 311.77 48.5374 311.123C47.2437 310.685 46.0847 309.562 45.6863 308.248C45.2266 306.733 45.9415 305.497 45.724 305.411C45.3928 305.28 43.4888 308.047 42.3414 311.766C42.1249 312.468 41.1746 315.669 41.3229 320.722C41.4418 324.77 42.1107 324.719 42.0821 327.183C41.9942 334.746 35.6668 337.33 37.0546 342.459C37.5901 344.438 39.1193 346.222 40.9483 346.873C44.6213 348.179 48.8408 344.681 51.1155 342.746C56.5939 338.087 58.7082 333.093 61.2588 328.125C69.9328 311.232 78.604 304.483 75.9047 300.792C75.3939 300.093 75.1908 300.482 69.3989 298.085C63.6824 295.719 62.3758 294.717 61.2573 295.41C59.5736 296.454 61.5013 299.363 59.6478 303.716C58.0052 307.573 54.7481 309.382 53.7594 309.931Z" fill="#302742"/>
<path d="M100.741 46.2871L78.3052 44.7131L71.3609 55.731L50.5277 61.5023L58.2734 114.755L52.522 171.436C52.522 171.436 79.9078 190.044 82.0445 198.439C84.1813 206.834 136.531 190.045 136.531 190.045L118.636 135.742L120.239 93.2444L125.046 68.5852L103.145 58.6167L100.741 46.2871Z" fill="#3F3D56"/>
<path d="M110.891 62.027C110.891 62.027 128.77 61.7647 131.182 69.11C133.594 76.4553 141.607 127.347 141.607 127.347L147.75 149.646L120.24 136.267L126.116 127.362L106.885 91.1458L110.891 62.027Z" fill="#3F3D56"/>
<path d="M99.9538 143.612C96.9977 143.615 94.2495 141.942 93.1003 139.267C92.2311 137.244 92.313 135.303 92.9634 133.639C92.7541 133.554 92.5466 133.465 92.3323 133.39C92.6471 133.264 92.9531 133.123 93.2588 132.981C94.3237 130.896 96.3652 129.384 98.7968 129.016C101.809 125.847 103.66 121.601 103.68 116.928C103.719 107.297 95.7648 99.252 85.9615 99.021C85.8844 99.0191 85.8073 99.0178 85.7303 99.0169C81.3405 98.9673 77.3584 101.379 75.1342 105.097C73.8365 107.266 71.4383 108.722 68.6907 108.722C66.5872 108.722 64.6896 107.868 63.3332 106.494C60.3779 103.501 56.6774 101.273 52.4895 100.59C49.7393 100.141 46.8929 99.9719 43.9806 100.114C24.0448 101.087 6.89321 118.441 6.46747 138.042C5.9933 159.872 23.869 177.715 45.9879 177.715C57.497 177.715 67.8524 172.881 75.0743 165.17C78.2806 161.746 82.7736 159.828 87.5094 159.876C87.5576 159.876 87.6059 159.877 87.6542 159.877C95.3247 159.877 101.543 153.769 101.543 146.235C101.543 145.817 101.522 145.405 101.482 144.997C101.408 144.235 100.733 143.611 99.9538 143.612Z" fill="#005D7F"/>
<path d="M34.2315 132.069L167.243 107.41L167.777 116.854L35.834 147.809L34.2315 132.069Z" fill="#005D7F"/>
<path d="M165.644 108.984L167.247 107.41C167.247 107.41 174.191 104.262 174.191 103.738C174.191 103.409 184.446 99.9977 192.118 97.4912C196.403 96.0914 200.928 98.8615 201.538 103.256L202.499 110.181C203.074 114.321 199.893 118.048 195.642 118.215L176.862 118.953L167.781 116.854L165.644 108.984Z" fill="#005D7F"/>
<path d="M34.5078 134.955L34.1906 133.648L167.287 108.656L167.52 110.296L34.5078 134.955Z" fill="#3F3D56"/>
<path d="M34.8127 137.437L34.5078 136.004L167.432 111.243L167.52 112.919L34.8127 137.437Z" fill="#3F3D56"/>
<path d="M35.1085 140.411L35.0329 138.103L167.527 113.127L167.51 114.493L35.1085 140.411Z" fill="#3F3D56"/>
<path d="M35.469 143.866L35.5725 141.776L167.726 115.01L167.84 115.522L35.469 143.866Z" fill="#3F3D56"/>
<path d="M35.474 145.96L35.5752 144.399L167.53 115.876L167.648 116.387L35.474 145.96Z" fill="#3F3D56"/>
<path d="M111.905 58.682L105.287 55.0825L102.416 112.657L103.417 119.74C103.417 119.74 120.126 74.487 111.905 58.682Z" fill="#3F3D56"/>
<path d="M87.5067 40.7782C78.3611 40.7782 70.947 33.4963 70.947 24.5137C70.947 15.531 78.3611 8.24915 87.5067 8.24915C96.6524 8.24915 104.066 15.531 104.066 24.5137C104.066 33.4963 96.6524 40.7782 87.5067 40.7782Z" fill="#FFB6B6"/>
<path d="M103.408 34.22L99.4496 37.324L103.943 20.5788C103.943 20.5788 91.3893 20.3164 90.321 13.4958C90.321 13.4958 80.4386 13.2335 77.7677 13.2335C75.0967 13.2335 73.8916 30.5916 73.8916 30.5916C73.8916 30.5916 68.6865 16.3815 74.0284 9.03621C79.3702 1.69095 77.5006 6.15055 78.5689 3.52725C79.6373 0.903939 90.5881 -1.50868 97.5324 1.16627C104.477 3.84122 104.744 7.65432 106.881 7.68944C109.017 7.72456 116.496 18.2178 109.552 26.6124C102.607 35.007 103.408 34.22 103.408 34.22Z" fill="#302742"/>
<path d="M51.0708 140.951C49.108 139.413 47.6616 137.567 46.8465 135.742L27.206 122.249L34.0166 113.258L53.2067 127.913C55.1991 128.289 57.3529 129.264 59.3157 130.802C63.7997 134.316 65.5889 139.437 63.3122 142.239C61.0354 145.042 55.5548 144.465 51.0708 140.951Z" fill="#FFB6B6"/>
<path d="M59.0693 64.9127C59.0693 64.9127 54.2616 57.0428 49.454 61.7648C45.6497 65.5013 24.7868 89.2775 16.2443 99.0389C13.8886 101.731 12.5953 105.161 12.5953 108.71C12.5953 114.201 15.6817 119.243 20.6189 121.818L47.3172 135.742L54.7958 124.724L31.8259 108.46L67.082 89.5719L59.0693 64.9127Z" fill="#3F3D56"/>
<path d="M126.316 120.426C127.772 122.435 128.646 124.601 128.918 126.576L144.023 144.854L134.958 151.659L120.611 132.385C118.801 131.486 117.003 129.966 115.547 127.957C112.22 123.367 111.933 117.961 114.907 115.881C117.881 113.802 122.988 115.837 126.316 120.426Z" fill="#FFB6B6"/>
<path d="M143.494 137.437L147.746 149.646L135.46 155.942L126.112 149.646L120.236 136.267L137.597 131.283" fill="#3F3D56"/>
</svg>
