<svg width="170" height="51" viewBox="0 0 170 51" fill="none" xmlns="http://www.w3.org/2000/svg">
<g clip-path="url(#clip0_906_36)">
<path d="M162.725 50.1466H6.25867C2.81643 50.1466 0 47.3345 0 43.8977V6.40506C0 2.9682 2.81637 0.15625 6.25867 0.15625H162.725C166.167 0.15625 168.984 2.9682 168.984 6.40506V43.8977C168.984 47.3345 166.167 50.1466 162.725 50.1466Z" fill="black"/>
<path d="M162.725 0.15625H6.25867C2.81643 0.15625 0 2.9682 0 6.40506V43.8977C0 47.3345 2.81637 50.1466 6.25867 50.1466H162.725C166.167 50.1466 168.984 47.3345 168.984 43.8977V6.40506C168.984 2.9682 166.167 0.15625 162.725 0.15625ZM162.725 1.15602C165.624 1.15602 167.982 3.5111 167.982 6.40506V43.8977C167.982 46.7922 165.624 49.1473 162.725 49.1473H6.25867C3.36019 49.1473 1.00139 46.7922 1.00139 43.8977V6.40506C1.00139 3.5111 3.36013 1.15608 6.25867 1.15608L162.725 1.15602Z" fill="#A6A6A6"/>
<path d="M59.3553 12.9581C59.3553 14.0052 59.0448 14.839 58.4227 15.461C57.7163 16.2006 56.7955 16.5706 55.6636 16.5706C54.5795 16.5706 53.6579 16.1957 52.9 15.4448C52.1407 14.6945 51.7617 13.764 51.7617 12.6539C51.7617 11.5432 52.1407 10.6133 52.9 9.8624C53.6579 9.11211 54.5795 8.73663 55.6636 8.73663C56.2014 8.73663 56.7164 8.84167 57.2054 9.05112C57.6941 9.26107 58.0865 9.53977 58.3797 9.88879L57.7196 10.5483C57.2224 9.95517 56.5379 9.65884 55.6636 9.65884C54.8729 9.65884 54.1894 9.9362 53.6125 10.4912C53.0353 11.0468 52.747 11.7673 52.747 12.6539C52.747 13.5405 53.0353 14.2609 53.6125 14.8166C54.1894 15.3717 54.8729 15.649 55.6636 15.649C56.5022 15.649 57.2013 15.3701 57.7611 14.8117C58.1245 14.4479 58.3347 13.9423 58.3909 13.2929H55.6634V12.3922H59.3029C59.3381 12.5881 59.3551 12.776 59.3551 12.9581" fill="white"/>
<path d="M59.3555 12.958H59.2303C59.2292 13.9812 58.9299 14.7759 58.3344 15.3725L58.3331 15.3735L58.3325 15.3745C57.6484 16.0886 56.7692 16.444 55.6636 16.4455C54.6086 16.444 53.7255 16.0847 52.9881 15.3564C52.2522 14.6265 51.8884 13.7355 51.887 12.6538C51.8884 11.5715 52.2522 10.681 52.9881 9.95169C53.7255 9.2228 54.6086 8.863 55.6636 8.86149C56.1854 8.86149 56.6822 8.96315 57.156 9.16569C57.6303 9.36979 58.0048 9.63726 58.284 9.96932L58.3799 9.88866L58.2913 9.80032L57.6312 10.4603L57.7196 10.5482L57.8161 10.4682C57.2958 9.8457 56.5654 9.53189 55.6636 9.53375C54.8438 9.53273 54.1226 9.82525 53.526 10.4014C52.9237 10.9793 52.6209 11.7404 52.622 12.6538C52.6209 13.5672 52.9237 14.3282 53.526 14.9062C54.1226 15.4823 54.8438 15.7748 55.6636 15.7738C56.5301 15.7753 57.2686 15.4818 57.8498 14.8999C58.2381 14.5113 58.4581 13.9729 58.5158 13.3035L58.5275 13.1678H55.7888V12.5171H59.3031V12.3921L59.1798 12.414C59.214 12.6036 59.2303 12.7836 59.2303 12.958H59.4805C59.4805 12.768 59.463 12.5728 59.4262 12.3697L59.4077 12.2671H55.5386V13.4177H58.3911V13.2928L58.2664 13.2821C58.2112 13.9109 58.0107 14.3844 57.6728 14.7233C57.1349 15.2583 56.475 15.5223 55.6636 15.5238C54.9024 15.5228 54.2566 15.2612 53.6997 14.7266C53.1481 14.194 52.8737 13.514 52.8722 12.6538C52.8737 11.7936 53.1481 11.1136 53.6997 10.5809C54.2566 10.0464 54.9024 9.7847 55.6636 9.7837C56.5101 9.7857 57.1492 10.0649 57.6241 10.6288L57.7121 10.7332L58.4684 9.97707L58.5496 9.89607L58.4757 9.80857C58.1681 9.44253 57.7584 9.15198 57.2548 8.93629C56.7503 8.71994 56.2178 8.61154 55.6636 8.61154C54.5509 8.61058 53.5906 9.00111 52.8116 9.77397C52.0298 10.5453 51.6358 11.5149 51.6367 12.6538C51.6358 13.7922 52.0298 14.7623 52.8122 15.5341C53.5906 16.3064 54.5509 16.6965 55.6636 16.6955C56.8226 16.6965 57.7839 16.3122 58.5134 15.5472L58.4228 15.4608L58.5114 15.5492C59.1598 14.9024 59.4814 14.0285 59.4805 12.958H59.3553M65.125 9.8257H61.7048V12.2033H64.7893V13.1043H61.7048V15.4818H65.125V16.403H60.7406V8.9045H65.125V9.8257Z" fill="white"/>
<path d="M65.1249 9.82577V9.70079H61.5794V12.3283H64.6639V12.979L61.5794 12.9794V15.6069H64.9997V16.2781H60.8657V9.02953H64.9997V9.82577H65.1249H65.2501V8.7796H60.6152V16.5281H65.2501V15.3569H61.8299V13.2293H64.9142V12.0783H61.8299V9.95073H65.2501V9.82577H65.1249ZM69.1944 16.4031H68.2288V9.8257H66.1312V8.90451H71.2922V9.8257H69.1944V16.4031Z" fill="white"/>
<path d="M69.1943 16.4031V16.2781H68.3537V9.70079H66.2561V9.0296H71.1668V9.70079H69.0691V16.4031L69.1943 16.4031L69.3195 16.4031V9.95073H71.4171V8.7796H66.0059V9.95068H68.1034V16.528H69.3195V16.4031L69.1943 16.4031ZM75.0261 16.4031V8.90451H75.9908V16.403L75.0261 16.4031Z" fill="white"/>
<path d="M75.0256 16.4031H75.1508V9.02953H75.8651V16.2781H75.0256V16.4031V16.5281H76.1154V8.7796H74.9004V16.5281H75.0256V16.4031ZM80.2712 16.4031H79.3055V9.8257H77.2079V8.90451H82.3687V9.8257H80.2712V16.4031Z" fill="white"/>
<path d="M80.2724 16.4032V16.2782H79.432V9.70085H77.3344V9.02966H82.245V9.70085H80.1472V16.4031L80.2724 16.4032L80.3977 16.4031V9.95079H82.4952V8.77966H77.084V9.95074H79.1816V16.5281H80.3977V16.4031L80.2724 16.4032ZM87.3457 14.8064C87.9017 15.3682 88.5818 15.6489 89.3862 15.6489C90.1906 15.6489 90.871 15.3682 91.4261 14.8064C91.9826 14.2445 92.2612 13.5262 92.2612 12.6539C92.2612 11.7816 91.9826 11.0633 91.4261 10.5015C90.871 9.93957 90.1906 9.65884 89.3862 9.65884C88.5818 9.65884 87.9017 9.93957 87.3457 10.5015C86.7907 11.0633 86.5121 11.7816 86.5121 12.6539C86.5121 13.5262 86.7907 14.2445 87.3457 14.8064ZM92.14 15.4341C91.4016 16.1922 90.4833 16.5706 89.3862 16.5706C88.288 16.5706 87.3701 16.1922 86.6334 15.4341C85.8946 14.6769 85.5268 13.7499 85.5268 12.6539C85.5268 11.5579 85.8946 10.6308 86.6334 9.87368C87.3701 9.11543 88.288 8.73663 89.3862 8.73663C90.4776 8.73663 91.3933 9.11745 92.1351 9.87857C92.8758 10.6396 93.2465 11.5647 93.2465 12.6539C93.2465 13.7499 92.8767 14.6769 92.14 15.4341Z" fill="white"/>
<path d="M87.3444 14.8063L87.2554 14.8941C87.8321 15.4785 88.5513 15.7753 89.3848 15.7738C90.218 15.7753 90.9383 15.4785 91.5139 14.8941C92.0942 14.3092 92.386 13.5525 92.3851 12.6538C92.386 11.7551 92.0942 10.9984 91.5139 10.4134C90.9383 9.82908 90.218 9.53229 89.3848 9.53375C88.5513 9.53229 87.8321 9.82908 87.2554 10.4134C86.6765 10.9984 86.384 11.7551 86.3857 12.6538C86.384 13.5524 86.6765 14.3092 87.2554 14.8941L87.3444 14.8063L87.4335 14.7184C86.9024 14.1789 86.637 13.5003 86.6359 12.6538C86.637 11.8073 86.9024 11.1287 87.4333 10.5892C87.9694 10.0498 88.6094 9.78521 89.3848 9.78375C90.1597 9.78521 90.8014 10.0498 91.3357 10.5892C91.8677 11.1287 92.1334 11.8073 92.1343 12.6538C92.1334 13.5002 91.8677 14.1789 91.3357 14.7184C90.8014 15.2578 90.1599 15.5223 89.3848 15.5238C88.6094 15.5223 87.9695 15.2578 87.4335 14.7184L87.3444 14.8063ZM92.1387 15.434L92.0492 15.3471C91.3314 16.0814 90.4537 16.4441 89.3848 16.4456C88.3155 16.444 87.4377 16.0814 86.7214 15.3471C86.0052 14.6104 85.6517 13.722 85.6506 12.6538C85.6517 11.5856 86.0052 10.6971 86.7214 9.96045C87.4377 9.22618 88.3155 8.86301 89.3848 8.86155C90.4468 8.86301 91.3226 9.22769 92.0442 9.96578C92.7631 10.7059 93.1186 11.593 93.1201 12.6538C93.1186 13.722 92.764 14.6104 92.0492 15.3471L92.1387 15.434L92.2287 15.5208C92.9875 14.7427 93.3713 13.7776 93.3703 12.6538C93.3713 11.5364 92.9861 10.5732 92.2236 9.79162C91.461 9.00697 90.5055 8.61019 89.3848 8.61155C88.2584 8.61019 87.3001 9.0051 86.542 9.78673V9.78616C85.7817 10.5648 85.3993 11.53 85.4004 12.6538C85.3993 13.7776 85.7817 14.7427 86.542 15.5213L86.5455 15.5249L86.542 15.5208C87.3001 16.3024 88.2584 16.6965 89.3848 16.6955C90.5109 16.6965 91.4692 16.3024 92.2287 15.5208L92.1387 15.434ZM94.5996 16.4031V8.90445H95.7742L99.4241 14.7378H99.4657L99.4241 13.2927V8.90445H100.39V16.403H99.3826L95.5638 10.2869H95.5223L95.5638 11.7325V16.403L94.5996 16.4031Z" fill="white"/>
<path d="M94.5998 16.4031H94.725V9.02953H95.7048L99.3549 14.8629H99.5946L99.5495 13.291V9.0296H100.265V16.2781H99.4523L95.6336 10.1621H95.3939L95.4388 11.7347V16.2781H94.5998V16.4031V16.5281H95.6892V11.7307L95.6477 10.2837L95.5224 10.2871V10.412H95.564V10.2871L95.4578 10.3535L99.3134 16.5281H100.515V8.7796H99.2993V13.2943L99.3408 14.7413L99.466 14.7379V14.6129H99.4243V14.7379L99.5305 14.6716L95.8437 8.7796H94.4748V16.5281H94.5998L94.6 16.4031M133.855 37.649H136.191V22.0256H133.855V37.649ZM154.893 27.6535L152.215 34.4271H152.135L149.356 27.6533H146.84L151.007 37.1207L148.632 42.3867H151.069L157.49 27.6533L154.893 27.6535ZM141.647 35.8745C140.881 35.8745 139.814 35.4926 139.814 34.5475C139.814 33.3417 141.144 32.8794 142.29 32.8794C143.318 32.8794 143.8 33.1004 144.424 33.4022C144.243 34.8493 142.995 35.8745 141.647 35.8745ZM141.929 27.3116C140.237 27.3116 138.486 28.0555 137.762 29.7037L139.834 30.5679C140.277 29.7037 141.102 29.4221 141.969 29.4221C143.176 29.4221 144.404 30.146 144.424 31.4324V31.5931C144.001 31.3519 143.096 30.9902 141.989 30.9902C139.754 30.9902 137.479 32.2159 137.479 34.5075C137.479 36.5979 139.311 37.9448 141.364 37.9448C142.935 37.9448 143.8 37.2413 144.344 36.4174H144.424V37.623H146.679V31.6331C146.679 28.8597 144.606 27.3116 141.929 27.3116ZM127.494 29.5553H124.171V24.2001H127.494C129.24 24.2001 130.231 25.6435 130.231 26.8776C130.231 28.0884 129.24 29.5553 127.494 29.5553ZM127.434 22.0256H121.837V37.649H124.171V31.7298H127.434C130.022 31.7298 132.567 29.8585 132.567 26.8776C132.567 23.8968 130.022 22.0256 127.434 22.0256ZM96.915 35.8772C95.3015 35.8772 93.9505 34.5285 93.9505 32.6758C93.9505 30.8037 95.3015 29.4344 96.915 29.4344C98.5081 29.4344 99.7584 30.8037 99.7584 32.6758C99.7584 34.5285 98.5081 35.8772 96.915 35.8772ZM99.5969 28.5283H99.5162C98.9921 27.9043 97.9834 27.3406 96.7131 27.3406C94.0512 27.3406 91.6113 29.676 91.6113 32.6758C91.6113 35.6557 94.0512 37.9712 96.7131 37.9712C97.9834 37.9712 98.9921 37.4072 99.5162 36.7634H99.5969V37.5283C99.5969 39.5623 98.5081 40.6493 96.7537 40.6493C95.322 40.6493 94.4347 39.6221 94.0713 38.7566L92.0349 39.6022C92.6196 41.0116 94.1725 42.7433 96.7537 42.7433C99.4963 42.7433 101.815 41.1322 101.815 37.2063V27.6626H99.5969V28.5283ZM103.429 37.649H105.768V22.0249H103.429V37.649ZM109.216 32.4948C109.156 30.4409 110.809 29.3942 111.999 29.3942C112.927 29.3942 113.713 29.857 113.975 30.522L109.216 32.4948ZM116.476 30.723C116.033 29.5347 114.681 27.3406 111.918 27.3406C109.176 27.3406 106.897 29.4948 106.897 32.6559C106.897 35.6358 109.156 37.9712 112.18 37.9712C114.621 37.9712 116.033 36.4813 116.617 35.6156L114.802 34.4074C114.198 35.2935 113.37 35.8772 112.18 35.8772C110.991 35.8772 110.144 35.3335 109.599 34.2667L116.717 31.3269L116.476 30.723ZM59.7622 28.9714V31.2263H65.1665C65.0052 32.4948 64.5816 33.4209 63.9363 34.0652C63.15 34.8506 61.9198 35.7163 59.762 35.7163C56.4346 35.7163 53.8335 33.0386 53.8335 29.7163C53.8335 26.3944 56.4346 23.7163 59.7622 23.7163C61.557 23.7163 62.8674 24.421 63.8356 25.3271L65.4287 23.7367C64.0776 22.4479 62.2827 21.4612 59.7622 21.4612C55.2044 21.4612 51.373 25.1661 51.373 29.7163C51.373 34.2667 55.2044 37.9712 59.7622 37.9712C62.2226 37.9712 64.0776 37.1661 65.5293 35.6557C67.0217 34.1658 67.4858 32.072 67.4858 30.3809C67.4858 29.857 67.4455 29.3741 67.3644 28.9714H59.7622ZM73.63 35.8772C72.0163 35.8772 70.6248 34.5484 70.6248 32.6559C70.6248 30.7431 72.0163 29.4344 73.63 29.4344C75.243 29.4344 76.6345 30.7431 76.6345 32.6559C76.6345 34.5484 75.243 35.8772 73.63 35.8772ZM73.63 27.3406C70.6854 27.3406 68.2856 29.5752 68.2856 32.6559C68.2856 35.7163 70.6854 37.9712 73.63 37.9712C76.5739 37.9712 78.9737 35.7163 78.9737 32.6559C78.9737 29.5752 76.5739 27.3406 73.63 27.3406ZM85.2876 35.8772C83.6746 35.8772 82.283 34.5484 82.283 32.6559C82.283 30.7431 83.6746 29.4344 85.2876 29.4344C86.9006 29.4344 88.2923 30.7431 88.2923 32.6559C88.2923 34.5484 86.9006 35.8772 85.2876 35.8772ZM85.2876 27.3406C82.3432 27.3406 79.9439 29.5752 79.9439 32.6559C79.9439 35.7163 82.3432 37.9712 85.2876 37.9712C88.2317 37.9712 90.6315 35.7163 90.6315 32.6559C90.6315 29.5752 88.2317 27.3406 85.2876 27.3406Z" fill="white"/>
<path d="M13.1532 9.66857C12.7331 10.047 12.4824 10.6781 12.4824 11.5159V11.3265V38.9725V38.7904C12.4824 39.5641 12.6975 40.1615 13.0617 40.5464L13.1547 40.6353V40.6356C13.4495 40.9013 13.8275 41.0424 14.2608 41.0418C14.6841 41.0418 15.1604 40.9072 15.6631 40.6225L33.8322 30.3154L40.0733 26.7747C40.8657 26.3251 41.3108 25.7451 41.3851 25.1542V25.1519C41.3108 24.5597 40.8657 23.9803 40.0733 23.5307L33.8316 19.9902L15.6631 9.68317C15.1594 9.39813 14.6828 9.26288 14.2583 9.26288C13.8256 9.26288 13.4479 9.40346 13.1532 9.66857Z" fill="#00C1FF"/>
<path d="M13.1547 40.6353L13.0617 40.5464C12.6975 40.1617 12.4824 39.5641 12.4824 38.7904V38.9725V11.3334V11.5159C12.4824 10.6782 12.7331 10.047 13.1532 9.66861L28.6619 25.1524L13.1547 40.6353Z" fill="url(#paint0_linear_906_36)"/>
<path d="M33.8324 30.3152L28.6621 25.1522L33.8321 19.9902L40.0735 23.5305C40.866 23.9802 41.311 24.5595 41.3854 25.1519V25.1541C41.311 25.7449 40.866 26.3249 40.0735 26.7745L33.8324 30.3152Z" fill="url(#paint1_linear_906_36)"/>
<path d="M14.2622 41.0418C13.829 41.0422 13.451 40.9011 13.1562 40.6354V40.6351L28.6635 25.1522L33.8336 30.3152L15.6645 40.6225C15.1619 40.907 14.6856 41.0418 14.2622 41.0418Z" fill="url(#paint2_linear_906_36)"/>
<path d="M28.6632 25.1524L13.1543 9.66866C13.4491 9.40355 13.8266 9.26297 14.2593 9.26297C14.6838 9.26297 15.1605 9.39815 15.6641 9.68326L33.8328 19.9904L28.6632 25.1524Z" fill="url(#paint3_linear_906_36)"/>
<path d="M14.2619 41.2249C13.8288 41.2249 13.4502 41.0836 13.1554 40.8181L13.1549 40.8187C13.1537 40.8174 13.1524 40.8163 13.151 40.8152L13.0704 40.7365C13.0678 40.7342 13.0655 40.7312 13.0625 40.7283L13.1555 40.6356C13.4503 40.9011 13.8282 41.0422 14.2616 41.0416C14.6848 41.0416 15.1611 40.907 15.6638 40.6225L33.8329 30.3154L33.9493 30.4316L33.8314 30.4984L15.6638 40.805C15.2057 41.0643 14.7699 41.1995 14.3763 41.2219C14.3382 41.2238 14.3001 41.2247 14.2619 41.2247" fill="url(#paint4_linear_906_36)"/>
<path d="M13.0617 40.7285C12.6975 40.3438 12.4824 39.7468 12.4824 38.9725V38.7904C12.4824 39.5641 12.6975 40.1615 13.0617 40.5464L13.1547 40.6353L13.0617 40.7285Z" fill="url(#paint5_linear_906_36)"/>
<path d="M33.9485 30.4316L33.832 30.3154L40.0731 26.7745C40.8658 26.325 41.3106 25.7449 41.3851 25.1542C41.3851 25.371 41.3366 25.5878 41.2403 25.7988C41.0463 26.2239 40.6571 26.6258 40.0731 26.9572L33.9485 30.4316Z" fill="url(#paint6_linear_906_36)"/>
<path d="M41.3853 25.1521C41.311 24.5597 40.866 23.9803 40.0735 23.5307L33.832 19.9904L33.9483 19.8741H33.9488L40.0735 23.3486C40.9472 23.8446 41.385 24.4982 41.3853 25.1521Z" fill="url(#paint7_linear_906_36)"/>
<path d="M12.4824 11.5159V11.3249C12.4824 11.2561 12.4843 11.1887 12.4878 11.1234V11.1204C12.4878 11.1195 12.4878 11.1185 12.4882 11.1175V11.1102C12.5259 10.4437 12.7331 9.9239 13.0617 9.57678L13.1532 9.66852C12.7331 10.047 12.4824 10.6781 12.4824 11.5159Z" fill="url(#paint8_linear_906_36)"/>
<path d="M33.8325 19.9902L15.6638 9.68305C15.1601 9.39799 14.6835 9.26281 14.259 9.26281C13.8263 9.26281 13.4488 9.40339 13.154 9.6685L13.0625 9.57671C13.0911 9.54651 13.1208 9.51739 13.1515 9.48938C13.1525 9.48838 13.154 9.48735 13.155 9.4864C13.4474 9.22332 13.8209 9.08274 14.2498 9.0802H14.259C14.6835 9.0802 15.1601 9.21546 15.6638 9.50062L33.9493 19.8736L33.9489 19.8739L33.8325 19.9902Z" fill="url(#paint9_linear_906_36)"/>
</g>
<defs>
<linearGradient id="paint0_linear_906_36" x1="22.3935" y1="11.0413" x2="9.07114" y2="24.4277" gradientUnits="userSpaceOnUse">
<stop stop-color="#00A0FF"/>
<stop offset="0.00657" stop-color="#00A1FF"/>
<stop offset="0.2601" stop-color="#00BEFF"/>
<stop offset="0.5122" stop-color="#00D2FF"/>
<stop offset="0.7604" stop-color="#00DFFF"/>
<stop offset="1" stop-color="#00E3FF"/>
</linearGradient>
<linearGradient id="paint1_linear_906_36" x1="42.351" y1="25.063" x2="12.0629" y2="25.063" gradientUnits="userSpaceOnUse">
<stop stop-color="#FFE000"/>
<stop offset="0.4087" stop-color="#FFBD00"/>
<stop offset="0.7754" stop-color="#FFA500"/>
<stop offset="1" stop-color="#FF9C00"/>
</linearGradient>
<linearGradient id="paint2_linear_906_36" x1="31.0888" y1="30.061" x2="8.51265" y2="52.5802" gradientUnits="userSpaceOnUse">
<stop stop-color="#FF3A44"/>
<stop offset="1" stop-color="#C31162"/>
</linearGradient>
<linearGradient id="paint3_linear_906_36" x1="9.15726" y1="7.37312" x2="19.2189" y2="17.4248" gradientUnits="userSpaceOnUse">
<stop stop-color="#32A071"/>
<stop offset="0.0685" stop-color="#2DA771"/>
<stop offset="0.4762" stop-color="#15CF74"/>
<stop offset="0.8009" stop-color="#06E775"/>
<stop offset="1" stop-color="#00F076"/>
</linearGradient>
<linearGradient id="paint4_linear_906_36" x1="31.0768" y1="33.6424" x2="12.9971" y2="51.8093" gradientUnits="userSpaceOnUse">
<stop stop-color="#CC2E36"/>
<stop offset="1" stop-color="#9C0E4E"/>
</linearGradient>
<linearGradient id="paint5_linear_906_36" x1="14.5484" y1="11.0412" x2="2.81167" y2="22.8346" gradientUnits="userSpaceOnUse">
<stop stop-color="#008DE0"/>
<stop offset="0.00657" stop-color="#008DE0"/>
<stop offset="0.2601" stop-color="#00A7E0"/>
<stop offset="0.5122" stop-color="#00B8E0"/>
<stop offset="0.7604" stop-color="#00C4E0"/>
<stop offset="1" stop-color="#00C7E0"/>
</linearGradient>
<linearGradient id="paint6_linear_906_36" x1="42.3508" y1="25.1531" x2="12.0626" y2="25.1531" gradientUnits="userSpaceOnUse">
<stop stop-color="#E0C500"/>
<stop offset="0.4087" stop-color="#E0A600"/>
<stop offset="0.7754" stop-color="#E09100"/>
<stop offset="1" stop-color="#E08900"/>
</linearGradient>
<linearGradient id="paint7_linear_906_36" x1="42.3512" y1="25.1532" x2="12.063" y2="25.1532" gradientUnits="userSpaceOnUse">
<stop stop-color="#FFE840"/>
<stop offset="0.4087" stop-color="#FFCE40"/>
<stop offset="0.7754" stop-color="#FFBC40"/>
<stop offset="1" stop-color="#FFB540"/>
</linearGradient>
<linearGradient id="paint8_linear_906_36" x1="14.5356" y1="11.0625" x2="3.22948" y2="21.931" gradientUnits="userSpaceOnUse">
<stop stop-color="#40B8FF"/>
<stop offset="0.00657" stop-color="#40B9FF"/>
<stop offset="0.2601" stop-color="#40CEFF"/>
<stop offset="0.5122" stop-color="#40DDFF"/>
<stop offset="0.7604" stop-color="#40E7FF"/>
<stop offset="1" stop-color="#40EAFF"/>
</linearGradient>
<linearGradient id="paint9_linear_906_36" x1="9.13431" y1="10.6475" x2="17.2077" y2="18.7598" gradientUnits="userSpaceOnUse">
<stop stop-color="#65B895"/>
<stop offset="0.0685" stop-color="#62BD95"/>
<stop offset="0.4762" stop-color="#50DB97"/>
<stop offset="0.8009" stop-color="#44ED98"/>
<stop offset="1" stop-color="#40F498"/>
</linearGradient>
<clipPath id="clip0_906_36">
<rect width="169.153" height="50" fill="white" transform="translate(0 0.15625)"/>
</clipPath>
</defs>
</svg>
