<svg width="140" height="35" viewBox="0 0 140 35" fill="none" xmlns="http://www.w3.org/2000/svg">
<g clip-path="url(#clip0_1060_8)">
<path d="M36.7838 12.1832H50.9564V14.8275H45.3838V29.692H42.3194V14.8275H36.7715V12.1832H36.7838ZM50.351 17.0145H52.9705V19.461H53.0199C53.1064 19.1151 53.267 18.7814 53.5018 18.4602C53.7366 18.1389 54.0208 17.83 54.3544 17.5705C54.688 17.2987 55.0587 17.0886 55.4664 16.9157C55.8742 16.755 56.2943 16.6685 56.7144 16.6685C57.0357 16.6685 57.2704 16.6809 57.394 16.6932C57.5176 16.7056 57.6411 16.7303 57.7771 16.7427V19.4363C57.5794 19.3993 57.3817 19.3745 57.1716 19.3498C56.9615 19.3251 56.7638 19.3128 56.5661 19.3128C56.0966 19.3128 55.6518 19.4116 55.2317 19.597C54.8116 19.7823 54.4532 20.0665 54.1443 20.4248C53.8354 20.7955 53.5883 21.2403 53.403 21.784C53.2176 22.3277 53.1311 22.9455 53.1311 23.6498V29.6796H50.3386V17.0145H50.351ZM70.6152 29.692H67.8721V27.925H67.8227C67.4767 28.5676 66.9701 29.0742 66.2905 29.4572C65.6109 29.8403 64.9189 30.038 64.2146 30.038C62.5466 30.038 61.3356 29.6302 60.5943 28.8023C59.8529 27.9745 59.4822 26.7265 59.4822 25.0584V17.0145H62.2747V24.7866C62.2747 25.8986 62.4848 26.6894 62.9172 27.1466C63.3374 27.6038 63.9428 27.8386 64.7089 27.8386C65.302 27.8386 65.7839 27.7521 66.1793 27.5667C66.5747 27.3814 66.8959 27.1466 67.1307 26.8377C67.3778 26.5412 67.5508 26.1705 67.662 25.7504C67.7732 25.3302 67.8227 24.8731 67.8227 24.3788V17.0269H70.6152V29.692ZM75.3723 25.6268C75.4588 26.4423 75.7677 27.0107 76.299 27.3443C76.8427 27.6656 77.4852 27.8386 78.239 27.8386C78.4984 27.8386 78.795 27.8138 79.1286 27.7768C79.4622 27.7397 79.7835 27.6532 80.0677 27.542C80.3642 27.4308 80.599 27.2578 80.7967 27.0354C80.982 26.813 81.0685 26.5288 81.0562 26.1705C81.0438 25.8121 80.9079 25.5156 80.6608 25.2932C80.4136 25.0584 80.1047 24.8854 79.7217 24.7371C79.3387 24.6012 78.9062 24.4777 78.4119 24.3788C77.9177 24.28 77.4234 24.1688 76.9168 24.0576C76.3979 23.9463 75.8913 23.7981 75.4094 23.6374C74.9275 23.4768 74.495 23.2544 74.112 22.9702C73.7289 22.6984 73.42 22.34 73.1976 21.9076C72.9628 21.4751 72.8516 20.9438 72.8516 20.3013C72.8516 19.6093 73.0246 19.0409 73.3582 18.5714C73.6919 18.1019 74.1243 17.7312 74.6309 17.447C75.1499 17.1628 75.7183 16.9651 76.3485 16.8415C76.9786 16.7303 77.5841 16.6685 78.1525 16.6685C78.8073 16.6685 79.4375 16.7427 80.0306 16.8786C80.6237 17.0145 81.1674 17.2369 81.6493 17.5582C82.1312 17.8671 82.5266 18.2748 82.8478 18.7691C83.1691 19.2633 83.3668 19.8688 83.4533 20.5731H80.5372C80.4013 19.9059 80.1047 19.4487 79.6229 19.2263C79.141 18.9915 78.5849 18.8803 77.9671 18.8803C77.7694 18.8803 77.5346 18.8927 77.2628 18.9297C76.991 18.9668 76.7438 19.0286 76.4967 19.1151C76.262 19.2016 76.0643 19.3375 75.8913 19.5105C75.7306 19.6835 75.6441 19.9059 75.6441 20.1901C75.6441 20.536 75.7677 20.8079 76.0025 21.0179C76.2372 21.228 76.5461 21.401 76.9292 21.5492C77.3122 21.6852 77.7447 21.8087 78.239 21.9076C78.7332 22.0064 79.2398 22.1176 79.7588 22.2288C80.2654 22.34 80.7596 22.4883 81.2539 22.6489C81.7481 22.8096 82.1806 23.032 82.5636 23.3162C82.9467 23.6004 83.2556 23.9463 83.4903 24.3665C83.7251 24.7866 83.8487 25.3179 83.8487 25.9357C83.8487 26.6894 83.6757 27.3196 83.3297 27.8509C82.9837 28.3699 82.5389 28.8023 81.9952 29.1236C81.4516 29.4449 80.8338 29.692 80.1665 29.8403C79.4993 29.9885 78.8321 30.0627 78.1772 30.0627C77.374 30.0627 76.6326 29.9762 75.9531 29.7908C75.2735 29.6055 74.6804 29.3337 74.1861 28.9753C73.6919 28.6046 73.2965 28.1475 73.0123 27.6038C72.7281 27.0601 72.5798 26.4052 72.5551 25.6515H75.3723V25.6268ZM84.59 17.0145H86.703V13.2088H89.4955V17.0145H92.0161V19.1027H89.4955V25.8739C89.4955 26.1705 89.5078 26.4176 89.5325 26.64C89.5572 26.8501 89.619 27.0354 89.7055 27.1837C89.792 27.332 89.9279 27.4432 90.1133 27.5173C90.2986 27.5914 90.5334 27.6285 90.8546 27.6285C91.0523 27.6285 91.25 27.6285 91.4477 27.6161C91.6454 27.6038 91.8432 27.5791 92.0408 27.5297V29.692C91.7319 29.7291 91.423 29.7538 91.1388 29.7908C90.8423 29.8279 90.5457 29.8403 90.2368 29.8403C89.4955 29.8403 88.9024 29.7661 88.4575 29.6302C88.0127 29.4943 87.6544 29.2842 87.4073 29.0124C87.1478 28.7406 86.9872 28.4069 86.8883 27.9992C86.8018 27.5914 86.74 27.1219 86.7277 26.6029V19.1274H84.6148V17.0145H84.59ZM93.9931 17.0145H96.6374V18.732H96.6868C97.0822 17.9907 97.6259 17.4717 98.3302 17.1504C99.0345 16.8292 99.7882 16.6685 100.616 16.6685C101.617 16.6685 102.482 16.8415 103.223 17.1999C103.965 17.5458 104.582 18.0277 105.077 18.6455C105.571 19.2633 105.929 19.98 106.176 20.7955C106.423 21.611 106.547 22.4883 106.547 23.415C106.547 24.2676 106.436 25.0955 106.213 25.8863C105.991 26.6894 105.657 27.3937 105.213 28.0115C104.768 28.6294 104.199 29.1112 103.507 29.4819C102.815 29.8526 102.012 30.038 101.073 30.038C100.665 30.038 100.258 30.0009 99.85 29.9268C99.4422 29.8526 99.0468 29.7291 98.6761 29.5684C98.3054 29.4078 97.9471 29.1977 97.6382 28.9383C97.317 28.6788 97.0575 28.3822 96.8351 28.0486H96.7856V34.375H93.9931V17.0145ZM103.755 23.3656C103.755 22.7972 103.68 22.2412 103.532 21.6975C103.384 21.1538 103.161 20.6843 102.865 20.2642C102.568 19.8441 102.198 19.5105 101.765 19.2633C101.32 19.0162 100.814 18.8803 100.245 18.8803C99.0715 18.8803 98.1819 19.2881 97.5888 20.1036C96.9957 20.9191 96.6991 22.0064 96.6991 23.3656C96.6991 24.0081 96.7733 24.6012 96.9339 25.1449C97.0945 25.6886 97.317 26.1581 97.6382 26.5535C97.9471 26.9489 98.3178 27.2578 98.7503 27.4802C99.1827 27.715 99.6894 27.8262 100.258 27.8262C100.9 27.8262 101.432 27.6903 101.876 27.4308C102.321 27.1713 102.68 26.8253 102.964 26.4176C103.248 25.9975 103.458 25.5279 103.582 24.9966C103.693 24.4653 103.755 23.9216 103.755 23.3656ZM108.685 12.1832H111.477V14.8275H108.685V12.1832ZM108.685 17.0145H111.477V29.692H108.685V17.0145ZM113.973 12.1832H116.766V29.692H113.973V12.1832ZM125.328 30.038C124.315 30.038 123.413 29.865 122.622 29.5314C121.832 29.1977 121.164 28.7282 120.608 28.1475C120.065 27.5544 119.645 26.8501 119.36 26.0345C119.076 25.219 118.928 24.317 118.928 23.3409C118.928 22.3771 119.076 21.4875 119.36 20.6719C119.645 19.8564 120.065 19.1521 120.608 18.559C121.152 17.9659 121.832 17.5088 122.622 17.1751C123.413 16.8415 124.315 16.6685 125.328 16.6685C126.342 16.6685 127.244 16.8415 128.035 17.1751C128.825 17.5088 129.493 17.9783 130.049 18.559C130.592 19.1521 131.012 19.8564 131.297 20.6719C131.581 21.4875 131.729 22.3771 131.729 23.3409C131.729 24.317 131.581 25.219 131.297 26.0345C131.012 26.8501 130.592 27.5544 130.049 28.1475C129.505 28.7406 128.825 29.1977 128.035 29.5314C127.244 29.865 126.342 30.038 125.328 30.038ZM125.328 27.8262C125.946 27.8262 126.49 27.6903 126.947 27.4308C127.404 27.1713 127.775 26.8253 128.072 26.4052C128.368 25.9851 128.578 25.5032 128.726 24.9719C128.862 24.4406 128.937 23.8969 128.937 23.3409C128.937 22.7972 128.862 22.2659 128.726 21.7222C128.591 21.1786 128.368 20.709 128.072 20.2889C127.775 19.8688 127.404 19.5352 126.947 19.2757C126.49 19.0162 125.946 18.8803 125.328 18.8803C124.711 18.8803 124.167 19.0162 123.71 19.2757C123.253 19.5352 122.882 19.8812 122.585 20.2889C122.289 20.709 122.079 21.1786 121.931 21.7222C121.795 22.2659 121.72 22.7972 121.72 23.3409C121.72 23.8969 121.795 24.4406 121.931 24.9719C122.066 25.5032 122.289 25.9851 122.585 26.4052C122.882 26.8253 123.253 27.1713 123.71 27.4308C124.167 27.7026 124.711 27.8262 125.328 27.8262ZM132.545 17.0145H134.657V13.2088H137.45V17.0145H139.971V19.1027H137.45V25.8739C137.45 26.1705 137.462 26.4176 137.487 26.64C137.512 26.8501 137.574 27.0354 137.66 27.1837C137.746 27.332 137.882 27.4432 138.068 27.5173C138.253 27.5914 138.488 27.6285 138.809 27.6285C139.007 27.6285 139.205 27.6285 139.402 27.6161C139.6 27.6038 139.798 27.5791 139.995 27.5297V29.692C139.686 29.7291 139.378 29.7538 139.093 29.7908C138.797 29.8279 138.5 29.8403 138.191 29.8403C137.45 29.8403 136.857 29.7661 136.412 29.6302C135.967 29.4943 135.609 29.2842 135.362 29.0124C135.102 28.7406 134.942 28.4069 134.843 27.9992C134.756 27.5914 134.695 27.1219 134.682 26.6029V19.1274H132.569V17.0145H132.545Z" fill="white"/>
<path d="M33.5224 12.1832H20.7214L16.7674 0L12.801 12.1832L0 12.1709L10.3669 19.7082L6.40052 31.879L16.7674 24.3541L27.1219 31.879L23.1679 19.7082L33.5224 12.1832Z" fill="#00B67A"/>
<path d="M24.0577 22.4634L23.1681 19.708L16.7676 24.3539L24.0577 22.4634Z" fill="#005128"/>
<path d="M70.9688 0.46875H73.793C74.4336 0.46875 74.9746 0.566406 75.416 0.761719C75.8613 0.957031 76.1992 1.24609 76.4297 1.62891C76.6641 2.00781 76.7812 2.47461 76.7812 3.0293C76.7812 3.41992 76.7012 3.77734 76.541 4.10156C76.3848 4.42188 76.1582 4.69531 75.8613 4.92188C75.5684 5.14453 75.2168 5.31055 74.8066 5.41992L74.4902 5.54297H71.8359L71.8242 4.62305H73.8281C74.2344 4.62305 74.5723 4.55273 74.8418 4.41211C75.1113 4.26758 75.3145 4.07422 75.4512 3.83203C75.5879 3.58984 75.6562 3.32227 75.6562 3.0293C75.6562 2.70117 75.5918 2.41406 75.4629 2.16797C75.334 1.92188 75.1309 1.73242 74.8535 1.59961C74.5801 1.46289 74.2266 1.39453 73.793 1.39453H72.0996V9H70.9688V0.46875ZM75.9551 9L73.8809 5.13281L75.0586 5.12695L77.1621 8.92969V9H75.9551ZM80.8301 9.11719C80.3887 9.11719 79.9883 9.04297 79.6289 8.89453C79.2734 8.74219 78.9668 8.5293 78.709 8.25586C78.4551 7.98242 78.2598 7.6582 78.123 7.2832C77.9863 6.9082 77.918 6.49805 77.918 6.05273V5.80664C77.918 5.29102 77.9941 4.83203 78.1465 4.42969C78.2988 4.02344 78.5059 3.67969 78.7676 3.39844C79.0293 3.11719 79.3262 2.9043 79.6582 2.75977C79.9902 2.61523 80.334 2.54297 80.6895 2.54297C81.1426 2.54297 81.5332 2.62109 81.8613 2.77734C82.1934 2.93359 82.4648 3.15234 82.6758 3.43359C82.8867 3.71094 83.043 4.03906 83.1445 4.41797C83.2461 4.79297 83.2969 5.20312 83.2969 5.64844V6.13477H78.5625V5.25H82.2129V5.16797C82.1973 4.88672 82.1387 4.61328 82.0371 4.34766C81.9395 4.08203 81.7832 3.86328 81.5684 3.69141C81.3535 3.51953 81.0605 3.43359 80.6895 3.43359C80.4434 3.43359 80.2168 3.48633 80.0098 3.5918C79.8027 3.69336 79.625 3.8457 79.4766 4.04883C79.3281 4.25195 79.2129 4.5 79.1309 4.79297C79.0488 5.08594 79.0078 5.42383 79.0078 5.80664V6.05273C79.0078 6.35352 79.0488 6.63672 79.1309 6.90234C79.2168 7.16406 79.3398 7.39453 79.5 7.59375C79.6641 7.79297 79.8613 7.94922 80.0918 8.0625C80.3262 8.17578 80.5918 8.23242 80.8887 8.23242C81.2715 8.23242 81.5957 8.1543 81.8613 7.99805C82.127 7.8418 82.3594 7.63281 82.5586 7.37109L83.2148 7.89258C83.0781 8.09961 82.9043 8.29688 82.6934 8.48438C82.4824 8.67188 82.2227 8.82422 81.9141 8.94141C81.6094 9.05859 81.248 9.11719 80.8301 9.11719ZM86.4082 8.02148L88.1426 2.66016H89.25L86.9707 9H86.2441L86.4082 8.02148ZM84.9609 2.66016L86.748 8.05078L86.8711 9H86.1445L83.8477 2.66016H84.9609ZM91.4707 2.66016V9H90.3809V2.66016H91.4707ZM90.2988 0.978516C90.2988 0.802734 90.3516 0.654297 90.457 0.533203C90.5664 0.412109 90.7266 0.351562 90.9375 0.351562C91.1445 0.351562 91.3027 0.412109 91.4121 0.533203C91.5254 0.654297 91.582 0.802734 91.582 0.978516C91.582 1.14648 91.5254 1.29102 91.4121 1.41211C91.3027 1.5293 91.1445 1.58789 90.9375 1.58789C90.7266 1.58789 90.5664 1.5293 90.457 1.41211C90.3516 1.29102 90.2988 1.14648 90.2988 0.978516ZM95.8418 9.11719C95.4004 9.11719 95 9.04297 94.6406 8.89453C94.2852 8.74219 93.9785 8.5293 93.7207 8.25586C93.4668 7.98242 93.2715 7.6582 93.1348 7.2832C92.998 6.9082 92.9297 6.49805 92.9297 6.05273V5.80664C92.9297 5.29102 93.0059 4.83203 93.1582 4.42969C93.3105 4.02344 93.5176 3.67969 93.7793 3.39844C94.041 3.11719 94.3379 2.9043 94.6699 2.75977C95.002 2.61523 95.3457 2.54297 95.7012 2.54297C96.1543 2.54297 96.5449 2.62109 96.873 2.77734C97.2051 2.93359 97.4766 3.15234 97.6875 3.43359C97.8984 3.71094 98.0547 4.03906 98.1562 4.41797C98.2578 4.79297 98.3086 5.20312 98.3086 5.64844V6.13477H93.5742V5.25H97.2246V5.16797C97.209 4.88672 97.1504 4.61328 97.0488 4.34766C96.9512 4.08203 96.7949 3.86328 96.5801 3.69141C96.3652 3.51953 96.0723 3.43359 95.7012 3.43359C95.4551 3.43359 95.2285 3.48633 95.0215 3.5918C94.8145 3.69336 94.6367 3.8457 94.4883 4.04883C94.3398 4.25195 94.2246 4.5 94.1426 4.79297C94.0605 5.08594 94.0195 5.42383 94.0195 5.80664V6.05273C94.0195 6.35352 94.0605 6.63672 94.1426 6.90234C94.2285 7.16406 94.3516 7.39453 94.5117 7.59375C94.6758 7.79297 94.873 7.94922 95.1035 8.0625C95.3379 8.17578 95.6035 8.23242 95.9004 8.23242C96.2832 8.23242 96.6074 8.1543 96.873 7.99805C97.1387 7.8418 97.3711 7.63281 97.5703 7.37109L98.2266 7.89258C98.0898 8.09961 97.916 8.29688 97.7051 8.48438C97.4941 8.67188 97.2344 8.82422 96.9258 8.94141C96.6211 9.05859 96.2598 9.11719 95.8418 9.11719ZM101.18 7.875L102.809 2.66016H103.523L103.383 3.69727L101.725 9H101.027L101.18 7.875ZM100.084 2.66016L101.473 7.93359L101.572 9H100.84L99 2.66016H100.084ZM105.082 7.89258L106.406 2.66016H107.484L105.645 9H104.918L105.082 7.89258ZM103.682 2.66016L105.275 7.78711L105.457 9H104.766L103.061 3.68555L102.92 2.66016H103.682ZM115.453 7.53516V2.66016H116.543V9H115.506L115.453 7.53516ZM115.658 6.19922L116.109 6.1875C116.109 6.60938 116.064 7 115.975 7.35938C115.889 7.71484 115.748 8.02344 115.553 8.28516C115.357 8.54688 115.102 8.75195 114.785 8.90039C114.469 9.04492 114.084 9.11719 113.631 9.11719C113.322 9.11719 113.039 9.07227 112.781 8.98242C112.527 8.89258 112.309 8.75391 112.125 8.56641C111.941 8.37891 111.799 8.13477 111.697 7.83398C111.6 7.5332 111.551 7.17188 111.551 6.75V2.66016H112.635V6.76172C112.635 7.04688 112.666 7.2832 112.729 7.4707C112.795 7.6543 112.883 7.80078 112.992 7.91016C113.105 8.01562 113.23 8.08984 113.367 8.13281C113.508 8.17578 113.652 8.19727 113.801 8.19727C114.262 8.19727 114.627 8.10938 114.896 7.93359C115.166 7.75391 115.359 7.51367 115.477 7.21289C115.598 6.9082 115.658 6.57031 115.658 6.19922ZM121.887 7.31836C121.887 7.16211 121.852 7.01758 121.781 6.88477C121.715 6.74805 121.576 6.625 121.365 6.51562C121.158 6.40234 120.846 6.30469 120.428 6.22266C120.076 6.14844 119.758 6.06055 119.473 5.95898C119.191 5.85742 118.951 5.73438 118.752 5.58984C118.557 5.44531 118.406 5.27539 118.301 5.08008C118.195 4.88477 118.143 4.65625 118.143 4.39453C118.143 4.14453 118.197 3.9082 118.307 3.68555C118.42 3.46289 118.578 3.26562 118.781 3.09375C118.988 2.92188 119.236 2.78711 119.525 2.68945C119.814 2.5918 120.137 2.54297 120.492 2.54297C121 2.54297 121.434 2.63281 121.793 2.8125C122.152 2.99219 122.428 3.23242 122.619 3.5332C122.811 3.83008 122.906 4.16016 122.906 4.52344H121.822C121.822 4.34766 121.77 4.17773 121.664 4.01367C121.562 3.8457 121.412 3.70703 121.213 3.59766C121.018 3.48828 120.777 3.43359 120.492 3.43359C120.191 3.43359 119.947 3.48047 119.76 3.57422C119.576 3.66406 119.441 3.7793 119.355 3.91992C119.273 4.06055 119.232 4.20898 119.232 4.36523C119.232 4.48242 119.252 4.58789 119.291 4.68164C119.334 4.77148 119.408 4.85547 119.514 4.93359C119.619 5.00781 119.768 5.07812 119.959 5.14453C120.15 5.21094 120.395 5.27734 120.691 5.34375C121.211 5.46094 121.639 5.60156 121.975 5.76562C122.311 5.92969 122.561 6.13086 122.725 6.36914C122.889 6.60742 122.971 6.89648 122.971 7.23633C122.971 7.51367 122.912 7.76758 122.795 7.99805C122.682 8.22852 122.516 8.42773 122.297 8.5957C122.082 8.75977 121.824 8.88867 121.523 8.98242C121.227 9.07227 120.893 9.11719 120.521 9.11719C119.963 9.11719 119.49 9.01758 119.104 8.81836C118.717 8.61914 118.424 8.36133 118.225 8.04492C118.025 7.72852 117.926 7.39453 117.926 7.04297H119.016C119.031 7.33984 119.117 7.57617 119.273 7.75195C119.43 7.92383 119.621 8.04688 119.848 8.12109C120.074 8.19141 120.299 8.22656 120.521 8.22656C120.818 8.22656 121.066 8.1875 121.266 8.10938C121.469 8.03125 121.623 7.92383 121.729 7.78711C121.834 7.65039 121.887 7.49414 121.887 7.31836ZM127.084 5.90039V5.76562C127.084 5.30859 127.15 4.88477 127.283 4.49414C127.416 4.09961 127.607 3.75781 127.857 3.46875C128.107 3.17578 128.41 2.94922 128.766 2.78906C129.121 2.625 129.52 2.54297 129.961 2.54297C130.406 2.54297 130.807 2.625 131.162 2.78906C131.521 2.94922 131.826 3.17578 132.076 3.46875C132.33 3.75781 132.523 4.09961 132.656 4.49414C132.789 4.88477 132.855 5.30859 132.855 5.76562V5.90039C132.855 6.35742 132.789 6.78125 132.656 7.17188C132.523 7.5625 132.33 7.9043 132.076 8.19727C131.826 8.48633 131.523 8.71289 131.168 8.87695C130.816 9.03711 130.418 9.11719 129.973 9.11719C129.527 9.11719 129.127 9.03711 128.771 8.87695C128.416 8.71289 128.111 8.48633 127.857 8.19727C127.607 7.9043 127.416 7.5625 127.283 7.17188C127.15 6.78125 127.084 6.35742 127.084 5.90039ZM128.168 5.76562V5.90039C128.168 6.2168 128.205 6.51562 128.279 6.79688C128.354 7.07422 128.465 7.32031 128.613 7.53516C128.766 7.75 128.955 7.91992 129.182 8.04492C129.408 8.16602 129.672 8.22656 129.973 8.22656C130.27 8.22656 130.529 8.16602 130.752 8.04492C130.979 7.91992 131.166 7.75 131.314 7.53516C131.463 7.32031 131.574 7.07422 131.648 6.79688C131.727 6.51562 131.766 6.2168 131.766 5.90039V5.76562C131.766 5.45312 131.727 5.1582 131.648 4.88086C131.574 4.59961 131.461 4.35156 131.309 4.13672C131.16 3.91797 130.973 3.74609 130.746 3.62109C130.523 3.49609 130.262 3.43359 129.961 3.43359C129.664 3.43359 129.402 3.49609 129.176 3.62109C128.953 3.74609 128.766 3.91797 128.613 4.13672C128.465 4.35156 128.354 4.59961 128.279 4.88086C128.205 5.1582 128.168 5.45312 128.168 5.76562ZM135.299 4.01367V9H134.215V2.66016H135.24L135.299 4.01367ZM135.041 5.58984L134.59 5.57227C134.594 5.13867 134.658 4.73828 134.783 4.37109C134.908 4 135.084 3.67773 135.311 3.4043C135.537 3.13086 135.807 2.91992 136.119 2.77148C136.436 2.61914 136.785 2.54297 137.168 2.54297C137.48 2.54297 137.762 2.58594 138.012 2.67188C138.262 2.75391 138.475 2.88672 138.65 3.07031C138.83 3.25391 138.967 3.49219 139.061 3.78516C139.154 4.07422 139.201 4.42773 139.201 4.8457V9H138.111V4.83398C138.111 4.50195 138.062 4.23633 137.965 4.03711C137.867 3.83398 137.725 3.6875 137.537 3.59766C137.35 3.50391 137.119 3.45703 136.846 3.45703C136.576 3.45703 136.33 3.51367 136.107 3.62695C135.889 3.74023 135.699 3.89648 135.539 4.0957C135.383 4.29492 135.26 4.52344 135.17 4.78125C135.084 5.03516 135.041 5.30469 135.041 5.58984Z" fill="white"/>
</g>
<defs>
<clipPath id="clip0_1060_8">
<rect width="139.971" height="34.375" fill="white"/>
</clipPath>
</defs>
</svg>
