<svg width="7" height="12" viewBox="0 0 7 12" fill="none" xmlns="http://www.w3.org/2000/svg">
<path d="M0.254678 11.4016C0.0916078 11.2385 0 11.0172 0 10.7866C0 10.5559 0.0916078 10.3347 0.254678 10.1716L4.56039 5.8659L0.254678 1.56019C0.0962292 1.39614 0.00855377 1.17641 0.0105356 0.948343C0.0125175 0.720274 0.103998 0.502107 0.265274 0.340831C0.426549 0.179555 0.644716 0.0880756 0.872785 0.0860939C1.10085 0.0841122 1.32058 0.171787 1.48463 0.330235L6.40532 5.25093C6.56839 5.41405 6.66 5.63525 6.66 5.8659C6.66 6.09655 6.56839 6.31776 6.40532 6.48088L1.48463 11.4016C1.32151 11.5646 1.10031 11.6562 0.869655 11.6562C0.639004 11.6562 0.417797 11.5646 0.254678 11.4016Z" fill="#0E334C"/>
</svg>
