{"accessors" : [{"bufferView" : 0, "byteOffset" : 0, "componentType" : 5123, "count" : 1434, "type" : "SCALAR", "max" : [1158], "min" : [0]}, {"bufferView" : 1, "byteOffset" : 0, "componentType" : 5126, "count" : 1159, "type" : "VEC3", "max" : [44.050662994384766, 21.31914520263672, 19.333187103271484], "min" : [-44.050662994384766, -0.10540771484375, -22.939678192138672], "name" : "POSITION"}, {"bufferView" : 1, "byteOffset" : 12, "componentType" : 5126, "count" : 1159, "type" : "VEC3", "max" : [0.9993830919265747, 0.9999721050262451, 0.9990860819816589], "min" : [-0.9993830919265747, -0.9994303584098816, -0.9998860955238342], "name" : "NORMAL"}, {"bufferView" : 1, "byteOffset" : 24, "componentType" : 5126, "count" : 1159, "type" : "VEC2", "max" : [0.9872190952301025, 0.9804946184158325], "min" : [0.015019861981272697, 0.01122070848941803], "name" : "TEXCOORD_0"}], "asset" : {"generator" : "Aspose.3D 23.2", "version" : "2.0"}, "buffers" : [{"uri" : "data:application/octet-stream;base64,", "byteLength" : 48764}], "bufferViews" : [{"buffer" : 0, "byteOffset" : 0, "byteLength" : 2868, "target" : 34963}, {"buffer" : 0, "byteOffset" : 2872, "byteLength" : 45888, "byteStride" : 32, "target" : 34962}], "materials" : [{"name" : "03_-_Default", "pbrMetallicRoughness" : {"baseColorFactor" : [0.352941, 0.352941, 0.352941, 1], "metallicFactor" : 0, "roughnessFactor" : 0.8929713596497552}, "emissiveFactor" : [0, 0, 0], "alphaMode" : "OPAQUE", "doubleSided" : true}], "meshes" : [{"primitives" : [{"attributes" : {"POSITION" : 1, "NORMAL" : 2, "TEXCOORD_0" : 3}, "indices" : 0, "material" : 0, "mode" : 4}]}], "nodes" : [{"mesh" : 0, "name" : "Object_10"}, {"children" : [0], "name" : "Object_7"}, {"children" : [1], "matrix" : [1, 0, 0, 0, 0, 1, 2.6469779601696886E-23, 0, 0, -2.6469779601696886E-23, 1, 0, 0, 0.6735134124755859, -3.4999752044677734, 1], "name" : "spineBoneConnection"}, {"children" : [2], "matrix" : [1, 0, 0, 0, 0, 0.9999999999999867, 1.6292068494294654E-07, 0, 0, -1.6292068494294654E-07, 0.9999999999999867, 0, 0, 15.975719451904297, 1.7685322761535645, 1], "name" : "birdWeightShiftControl"}, {"children" : [3], "name" : "RootNode"}, {"children" : [4], "name" : "Object_2"}, {"children" : [5], "matrix" : [1, 0, 0, 0, 0, 0, 1, 0, 0, -1, 0, 0, 0, 0, 0, 1], "name" : "33640762e7c94d0abafaf30409222f2d.fbx"}, {"children" : [6], "matrix" : [1, 0, 0, 0, 0, 2.220446049250313E-16, -1, 0, 0, 1, 2.220446049250313E-16, 0, 0, 0, 0, 1], "name" : "Sketchfab_model"}], "scene" : 0, "scenes" : [{"nodes" : [7]}]}