<svg width="150" height="51" viewBox="0 0 150 51" fill="none" xmlns="http://www.w3.org/2000/svg">
<g clip-path="url(#clip0_906_30)">
<path d="M137.91 0.00012521H11.9482C11.4891 0.00012521 11.0354 0.00012521 10.5774 0.00262942C10.1941 0.00513363 9.81387 0.0123958 9.42684 0.0185312C8.58608 0.0284211 7.74728 0.102384 6.91776 0.239778C6.08938 0.380163 5.28697 0.644837 4.53762 1.02485C3.78924 1.40809 3.10541 1.90607 2.51097 2.5007C1.9134 3.09362 1.41527 3.77896 1.03574 4.53036C0.655153 5.28035 0.39126 6.08402 0.253174 6.91363C0.113767 7.74214 0.0387498 8.58022 0.0287976 9.42033C0.017153 9.80423 0.0159009 10.1894 0.00976562 10.5734V39.5148C0.0159009 39.9036 0.017153 40.2802 0.0287976 40.6693C0.0387592 41.5092 0.113776 42.3473 0.253174 43.1758C0.39089 44.0057 0.654798 44.8098 1.03574 45.5601C1.41509 46.3092 1.91328 46.9917 2.51097 47.5814C3.10316 48.1786 3.78742 48.6769 4.53762 49.0572C5.28695 49.4382 6.08929 49.7045 6.91776 49.847C7.74741 49.9834 8.58613 50.0574 9.42684 50.0684C9.81374 50.0769 10.1941 50.0817 10.5775 50.0817C11.0354 50.0843 11.4891 50.0843 11.9482 50.0843H137.91C138.36 50.0843 138.817 50.0843 139.267 50.0817C139.649 50.0817 140.04 50.0769 140.422 50.0684C141.261 50.0579 142.098 49.9839 142.926 49.847C143.757 49.7035 144.562 49.4373 145.315 49.0572C146.065 48.6767 146.748 48.1784 147.34 47.5814C147.936 46.9894 148.435 46.3072 148.819 45.5601C149.197 44.8093 149.459 44.0052 149.595 43.1758C149.734 42.3471 149.812 41.5092 149.827 40.6691C149.832 40.2802 149.832 39.9036 149.832 39.5148C149.842 39.0599 149.842 38.6075 149.842 38.1452V11.9405C149.842 11.4818 149.842 11.027 149.832 10.5734C149.832 10.1894 149.832 9.80423 149.827 9.4202C149.812 8.58003 149.734 7.74213 149.595 6.9135C149.458 6.08446 149.197 5.28093 148.819 4.53049C148.047 3.02426 146.821 1.79819 145.315 1.02472C144.562 0.645644 143.757 0.38104 142.926 0.239653C142.098 0.101675 141.261 0.0277067 140.422 0.0184059C140.04 0.0122706 139.649 0.00488321 139.267 0.00250421C138.817 0 138.36 0 137.91 0L137.91 0.00012521Z" fill="#A6A6A6"/>
<path d="M10.5842 48.9887C10.2027 48.9887 9.83043 48.9838 9.45192 48.9754C8.66786 48.9652 7.88561 48.897 7.11162 48.7713C6.3899 48.6468 5.69075 48.4157 5.03726 48.0851C4.38971 47.7573 3.79911 47.3275 3.28806 46.8122C2.76958 46.303 2.33791 45.7123 2.01016 45.0637C1.67885 44.4108 1.44955 43.7111 1.33027 42.9886C1.2015 42.2126 1.13185 41.4278 1.12192 40.641C1.11391 40.3769 1.10352 39.4978 1.10352 39.4978V10.5733C1.10352 10.5733 1.11453 9.70762 1.12192 9.45318C1.13146 8.66776 1.20074 7.88419 1.32914 7.10925C1.44866 6.38494 1.67815 5.68312 2.00966 5.02812C2.33614 4.37992 2.76536 3.78879 3.28067 3.27768C3.79545 2.76172 4.38795 2.32971 5.03663 1.99742C5.68864 1.66798 6.38648 1.43841 7.10673 1.31639C7.88328 1.18945 8.66825 1.12085 9.45505 1.11117L10.5848 1.09564H139.262L140.405 1.11154C141.185 1.12081 141.963 1.18886 142.732 1.31514C143.46 1.43872 144.165 1.66992 144.824 2.00117C146.124 2.67084 147.181 3.73032 147.848 5.03114C148.174 5.68164 148.4 6.37776 148.518 7.09586C148.648 7.87712 148.721 8.66683 148.736 9.4587C148.74 9.8133 148.74 10.1942 148.74 10.5733C148.75 11.0429 148.75 11.4897 148.75 11.9404V38.1452C148.75 38.6 148.75 39.044 148.74 39.4915C148.74 39.8986 148.74 40.2716 148.735 40.6555C148.72 41.4333 148.648 42.209 148.52 42.9763C148.404 43.7038 148.176 44.4091 147.844 45.0673C147.514 45.7089 147.085 46.2944 146.573 46.8023C146.061 47.3204 145.47 47.7528 144.821 48.0826C144.163 48.4157 143.459 48.6477 142.732 48.771C141.958 48.8975 141.176 48.9656 140.392 48.9752C140.017 48.984 139.643 48.9885 139.268 48.9887L137.911 48.9911L10.5842 48.9887Z" fill="black"/>
<path d="M31.0221 25.4187C31.0354 24.3737 31.3131 23.3489 31.829 22.44C32.3448 21.531 33.0822 20.7673 33.9725 20.2199C33.407 19.4121 32.6609 18.7474 31.7933 18.2785C30.9258 17.8094 29.961 17.5492 28.9753 17.5183C26.8726 17.2976 24.8344 18.7764 23.7627 18.7764C22.6707 18.7764 21.021 17.5402 19.2448 17.5768C18.0957 17.6139 16.9759 17.948 15.9943 18.5466C15.0128 19.1451 14.2031 19.9877 13.6441 20.9922C11.2225 25.1849 13.0288 31.3465 15.3485 34.7355C16.5091 36.3951 17.8654 38.2486 19.6402 38.1829C21.377 38.1109 22.0255 37.0754 24.1221 37.0754C26.199 37.0754 26.8075 38.1829 28.6183 38.1411C30.4819 38.1109 31.6561 36.4743 32.7759 34.799C33.6098 33.6167 34.2514 32.3099 34.6772 30.9269C33.5945 30.469 32.6704 29.7026 32.0205 28.723C31.3706 27.7434 31.0232 26.5943 31.0221 25.4187ZM27.6017 15.2894C28.6178 14.0696 29.1184 12.5017 28.9972 10.9188C27.4448 11.0819 26.0109 11.8238 24.9809 12.9968C24.4774 13.5698 24.0918 14.2365 23.846 14.9587C23.6004 15.6809 23.4995 16.4444 23.549 17.2057C24.3255 17.2136 25.0936 17.0453 25.7956 16.7134C26.4976 16.3814 27.1153 15.8946 27.6017 15.2894ZM52.9756 33.9819H47.0489L45.6257 38.1843H43.1153L48.729 22.6357H51.3372L56.9509 38.1843H54.3977L52.9756 33.9819ZM47.6628 32.0425H52.3606L50.0448 25.2219H49.9799L47.6628 32.0425ZM69.0745 32.517C69.0745 36.0396 67.189 38.303 64.3437 38.303C63.6228 38.3406 62.906 38.1747 62.2751 37.824C61.6444 37.4732 61.1251 36.9518 60.7768 36.3196H60.7229V41.9345H58.396V26.8482H60.6484V28.7338H60.6912C61.0556 28.1047 61.5836 27.5861 62.2193 27.233C62.8548 26.8802 63.5742 26.7062 64.3008 26.7297C67.1779 26.7297 69.0745 29.0041 69.0745 32.517ZM66.6827 32.517C66.6827 30.2218 65.4966 28.7129 63.6871 28.7129C61.9091 28.7129 60.7133 30.2536 60.7133 32.5168C60.7133 34.8011 61.9091 36.3308 63.6871 36.3308C65.4966 36.3308 66.6827 34.8331 66.6827 32.517ZM81.5515 32.517C81.5515 36.0396 79.666 38.303 76.8206 38.303C76.0999 38.3406 75.3829 38.1746 74.7522 37.8238C74.1214 37.473 73.6022 36.9518 73.2538 36.3196H73.2001V41.9345H70.8731V26.8482H73.1254V28.7338H73.1683C73.5325 28.1047 74.0605 27.5861 74.6962 27.233C75.3318 26.8802 76.0512 26.7062 76.7777 26.7297C79.655 26.7297 81.5515 29.0041 81.5515 32.517ZM79.1598 32.517C79.1598 30.2218 77.9737 28.7129 76.164 28.7129C74.386 28.7129 73.1902 30.2536 73.1902 32.5168C73.1902 34.8011 74.386 36.3308 76.164 36.3308C77.9737 36.3308 79.1598 34.8331 79.1598 32.517ZM89.7978 33.8522C89.9703 35.3941 91.4682 36.4066 93.515 36.4066C95.4763 36.4066 96.8873 35.3941 96.8873 34.0038C96.8873 32.7968 96.0363 32.0742 94.0213 31.5791L92.0061 31.0936C89.1509 30.4039 87.8254 29.0687 87.8254 26.9019C87.8254 24.2191 90.1635 22.3767 93.4832 22.3767C96.7687 22.3767 99.021 24.2191 99.0968 26.9019H96.7479C96.6073 25.3503 95.3247 24.4136 93.4501 24.4136C91.5756 24.4136 90.293 25.3614 90.293 26.7406C90.293 27.84 91.1122 28.4868 93.1162 28.9819L94.8295 29.4026C98.0195 30.1569 99.3451 31.4384 99.3451 33.7126C99.3451 36.6217 97.0279 38.4435 93.3425 38.4435C89.8942 38.4435 87.5662 36.6644 87.4157 33.852L89.7978 33.8522ZM104.367 24.1656V26.8482H106.523V28.691H104.367V34.9404C104.367 35.9114 104.799 36.3638 105.746 36.3638C106.002 36.3592 106.258 36.3412 106.512 36.3099V38.1416C106.086 38.2213 105.652 38.2572 105.219 38.2491C102.924 38.2491 102.029 37.3872 102.029 35.1886V28.691H100.381V26.8482H102.029V24.1656H104.367ZM107.771 32.517C107.771 28.95 109.872 26.7089 113.148 26.7089C116.434 26.7089 118.525 28.95 118.525 32.517C118.525 36.0935 116.445 38.325 113.148 38.325C109.851 38.325 107.771 36.0935 107.771 32.517ZM116.154 32.517C116.154 30.0702 115.033 28.6261 113.148 28.6261C111.262 28.6261 110.142 30.0811 110.142 32.517C110.142 34.9735 111.262 36.4066 113.148 36.4066C115.033 36.4066 116.154 34.9735 116.154 32.517ZM120.444 26.8482H122.663V28.7777H122.717C122.867 28.1751 123.22 27.6426 123.717 27.2696C124.213 26.8966 124.823 26.706 125.444 26.7297C125.712 26.7287 125.979 26.7578 126.241 26.8164V28.9929C125.902 28.8895 125.549 28.8419 125.195 28.8523C124.857 28.8387 124.52 28.8983 124.208 29.027C123.895 29.1559 123.613 29.3508 123.383 29.5987C123.153 29.8464 122.979 30.1411 122.873 30.4625C122.767 30.7839 122.732 31.1243 122.771 31.4605V38.1843H120.444V26.8482ZM136.969 34.8548C136.656 36.9127 134.652 38.325 132.088 38.325C128.79 38.325 126.743 36.1156 126.743 32.5707C126.743 29.015 128.801 26.7089 131.99 26.7089C135.127 26.7089 137.099 28.8634 137.099 32.3004V33.0978H129.092V33.2383C129.055 33.6555 129.108 34.0759 129.246 34.4713C129.384 34.8667 129.604 35.2283 129.892 35.532C130.181 35.8357 130.531 36.0747 130.918 36.2328C131.306 36.3909 131.723 36.4647 132.142 36.4493C132.692 36.5009 133.244 36.3735 133.715 36.0862C134.187 35.7989 134.553 35.3671 134.76 34.8548H136.969ZM129.103 31.4715H134.771C134.792 31.0964 134.735 30.7209 134.604 30.3689C134.473 30.0168 134.27 29.6956 134.009 29.4253C133.748 29.1552 133.434 28.9419 133.086 28.7989C132.739 28.6559 132.366 28.5861 131.99 28.5942C131.611 28.592 131.236 28.6649 130.885 28.8085C130.534 28.9522 130.216 29.1638 129.947 29.4313C129.679 29.6988 129.466 30.017 129.321 30.3671C129.176 30.7172 129.102 31.0925 129.103 31.4715ZM47.3711 10.9322C47.859 10.8972 48.3486 10.9709 48.8044 11.148C49.2603 11.3251 49.6713 11.6011 50.0076 11.9563C50.3438 12.3114 50.5972 12.7368 50.7491 13.2017C50.9012 13.6665 50.9481 14.1594 50.8866 14.6446C50.8866 17.0314 49.5965 18.4034 47.3711 18.4034H44.6724V10.9321L47.3711 10.9322ZM45.833 17.3467H47.2416C47.5901 17.3675 47.9389 17.3104 48.2627 17.1794C48.5864 17.0484 48.8767 16.8468 49.1128 16.5895C49.3488 16.3321 49.5244 16.0253 49.627 15.6915C49.7294 15.3577 49.7562 15.0052 49.7052 14.6597C49.7524 14.3156 49.7231 13.9653 49.619 13.6339C49.5148 13.3026 49.3389 12.9983 49.1033 12.743C48.8678 12.4876 48.5789 12.2875 48.257 12.157C47.9351 12.0265 47.5883 11.9688 47.2416 11.988H45.833V17.3467ZM52.1973 15.5818C52.1619 15.2113 52.2043 14.8374 52.3218 14.4842C52.4393 14.131 52.6292 13.8063 52.8797 13.5309C53.13 13.2554 53.4351 13.0354 53.7755 12.8848C54.1159 12.7342 54.484 12.6564 54.8562 12.6564C55.2284 12.6564 55.5965 12.7342 55.9369 12.8848C56.2773 13.0354 56.5825 13.2554 56.8328 13.5309C57.0831 13.8063 57.2731 14.131 57.3907 14.4842C57.5082 14.8374 57.5505 15.2113 57.515 15.5818C57.5513 15.9527 57.5095 16.3272 57.3923 16.6809C57.2752 17.0348 57.0853 17.3602 56.8349 17.6363C56.5844 17.9124 56.2791 18.133 55.9382 18.284C55.5975 18.4349 55.2289 18.5128 54.8562 18.5128C54.4835 18.5128 54.1149 18.4349 53.774 18.284C53.4333 18.133 53.1279 17.9124 52.8776 17.6363C52.6271 17.3602 52.4372 17.0348 52.32 16.6809C52.203 16.3272 52.1611 15.9527 52.1973 15.5818ZM56.3706 15.5818C56.3706 14.3596 55.8215 13.6449 54.858 13.6449C53.8907 13.6449 53.3468 14.3596 53.3468 15.5818C53.3468 16.8137 53.8909 17.5229 54.858 17.5229C55.8215 17.5229 56.3706 16.8088 56.3706 15.5818ZM64.5839 18.4033H63.4295L62.2642 14.2508H62.1763L61.0159 18.4033H59.8727L58.3185 12.765H59.4471L60.4572 17.0672H60.5403L61.6994 12.765H62.7669L63.9261 17.0672H64.014L65.0191 12.765H66.132L64.5839 18.4033ZM67.4389 12.7652H68.5101V13.6608H68.5933C68.7344 13.3391 68.9722 13.0694 69.2738 12.8893C69.5755 12.7093 69.9258 12.6278 70.2759 12.6562C70.5503 12.6356 70.8257 12.677 71.0818 12.7773C71.338 12.8776 71.5683 13.0342 71.7558 13.2356C71.9431 13.437 72.0829 13.678 72.1645 13.9407C72.2461 14.2034 72.2676 14.4811 72.2273 14.7533V18.4031H71.1146V15.0327C71.1146 14.1267 70.7208 13.6761 69.8981 13.6761C69.7117 13.6674 69.5259 13.6991 69.353 13.769C69.1801 13.8389 69.0245 13.9454 68.8966 14.0811C68.7686 14.2168 68.6716 14.3786 68.6122 14.5553C68.5526 14.732 68.532 14.9194 68.5518 15.1049V18.4033H67.4389V12.7652ZM74.0003 10.5641H75.113V18.4033H74.0003V10.5641ZM76.6599 15.5818C76.6244 15.2112 76.6667 14.8373 76.7842 14.4841C76.9018 14.1309 77.0918 13.8061 77.3423 13.5306C77.5926 13.2551 77.8977 13.035 78.2383 12.8844C78.5787 12.7338 78.9468 12.656 79.319 12.656C79.6913 12.656 80.0595 12.7338 80.3999 12.8844C80.7404 13.035 81.0456 13.2551 81.2959 13.5306C81.5463 13.8061 81.7364 14.1309 81.8539 14.4841C81.9714 14.8373 82.0138 15.2112 81.9783 15.5818C82.0143 15.9527 81.9724 16.3271 81.8551 16.6808C81.7379 17.0344 81.5479 17.3597 81.2975 17.6357C81.047 17.9116 80.7417 18.1322 80.401 18.283C80.0603 18.434 79.6917 18.5119 79.319 18.5119C78.9465 18.5119 78.5779 18.434 78.2371 18.283C77.8964 18.1322 77.5911 17.9116 77.3407 17.6357C77.0902 17.3597 76.9003 17.0344 76.7829 16.6808C76.6657 16.3271 76.6239 15.9527 76.6599 15.5818ZM80.8331 15.5818C80.8331 14.3596 80.2841 13.6449 79.3206 13.6449C78.3534 13.6449 77.8093 14.3596 77.8093 15.5818C77.8093 16.8137 78.3535 17.5229 79.3206 17.5229C80.2841 17.5229 80.8331 16.8088 80.8331 15.5818ZM83.1497 16.8088C83.1497 15.7939 83.9053 15.2088 85.2467 15.1256L86.7739 15.0376V14.5509C86.7739 13.9554 86.3801 13.6192 85.6197 13.6192C84.9985 13.6192 84.568 13.8472 84.4445 14.2459H83.3672C83.481 13.2774 84.3919 12.6564 85.671 12.6564C87.0844 12.6564 87.8817 13.36 87.8817 14.5509V18.4033H86.8106V17.611H86.7225C86.5438 17.8952 86.293 18.1268 85.9955 18.2823C85.6979 18.4378 85.3644 18.5117 85.029 18.4961C84.7924 18.5208 84.5531 18.4955 84.3268 18.4221C84.1006 18.3486 83.8921 18.2285 83.715 18.0695C83.538 17.9105 83.3961 17.7162 83.2987 17.499C83.2013 17.282 83.1505 17.0468 83.1497 16.8088ZM86.7739 16.3271V15.8556L85.397 15.9436C84.6206 15.9956 84.2684 16.2599 84.2684 16.7567C84.2684 17.2643 84.7086 17.5595 85.3139 17.5595C85.4913 17.5776 85.6705 17.5597 85.8408 17.507C86.011 17.4542 86.169 17.3678 86.3052 17.2528C86.4413 17.1378 86.553 16.9966 86.6335 16.8376C86.714 16.6785 86.7618 16.505 86.7739 16.3271ZM89.3442 15.5818C89.3442 13.8002 90.26 12.6716 91.6845 12.6716C92.0369 12.6554 92.3866 12.7398 92.6927 12.9149C92.999 13.0901 93.249 13.3488 93.4135 13.6608H93.4967V10.564H94.6093V18.4031H93.5431V17.5123H93.4551C93.2778 17.8222 93.0191 18.0777 92.707 18.251C92.395 18.4245 92.0413 18.5093 91.6845 18.4961C90.2501 18.4961 89.3442 17.3675 89.3442 15.5818ZM90.4936 15.5818C90.4936 16.7775 91.0573 17.4972 91.9999 17.4972C92.9376 17.4972 93.5174 16.7673 93.5174 15.5865C93.5174 14.4116 92.9316 13.6712 91.9999 13.6712C91.0633 13.6712 90.4936 14.3957 90.4936 15.5818ZM99.213 15.5818C99.1776 15.2113 99.22 14.8374 99.3373 14.4842C99.4549 14.131 99.6449 13.8063 99.8952 13.5309C100.146 13.2554 100.451 13.0354 100.791 12.8848C101.132 12.7342 101.5 12.6564 101.872 12.6564C102.244 12.6564 102.612 12.7342 102.952 12.8848C103.293 13.0354 103.598 13.2554 103.848 13.5309C104.099 13.8063 104.289 14.131 104.406 14.4842C104.524 14.8374 104.566 15.2113 104.531 15.5818C104.567 15.9527 104.525 16.3272 104.408 16.6809C104.291 17.0348 104.101 17.3602 103.851 17.6363C103.6 17.9124 103.295 18.133 102.954 18.284C102.613 18.4349 102.245 18.5128 101.872 18.5128C101.499 18.5128 101.13 18.4349 100.79 18.284C100.449 18.133 100.144 17.9124 99.8931 17.6363C99.6428 17.3602 99.4529 17.0348 99.3357 16.6809C99.2185 16.3272 99.1768 15.9527 99.213 15.5818ZM103.386 15.5818C103.386 14.3596 102.837 13.6449 101.874 13.6449C100.906 13.6449 100.362 14.3596 100.362 15.5818C100.362 16.8137 100.907 17.5229 101.874 17.5229C102.837 17.5229 103.386 16.8088 103.386 15.5818ZM106.024 12.7652H107.095V13.6608H107.178C107.319 13.3391 107.557 13.0694 107.859 12.8893C108.16 12.7093 108.51 12.6278 108.861 12.6562C109.135 12.6356 109.41 12.677 109.667 12.7773C109.923 12.8776 110.153 13.0342 110.341 13.2356C110.528 13.437 110.668 13.678 110.749 13.9407C110.831 14.2034 110.852 14.4811 110.812 14.7533V18.4031H109.699V15.0327C109.699 14.1267 109.306 13.6761 108.483 13.6761C108.296 13.6674 108.11 13.6991 107.938 13.769C107.765 13.8389 107.609 13.9454 107.481 14.0811C107.353 14.2168 107.256 14.3786 107.197 14.5553C107.137 14.732 107.117 14.9194 107.136 15.1049V18.4033H106.024L106.024 12.7652ZM117.1 11.3614V12.7908H118.321V13.728H117.1V16.6272C117.1 17.2177 117.343 17.4764 117.897 17.4764C118.039 17.476 118.18 17.4673 118.321 17.4506V18.3776C118.121 18.4133 117.919 18.4323 117.716 18.4344C116.478 18.4344 115.986 17.9991 115.986 16.9122V13.728H115.091V12.7907H115.986V11.3616L117.1 11.3614ZM119.841 10.5641H120.944V13.6712H121.032C121.18 13.3465 121.424 13.0753 121.732 12.8945C122.04 12.7138 122.395 12.6323 122.751 12.6611C123.024 12.6463 123.297 12.6918 123.55 12.7946C123.803 12.8973 124.031 13.0547 124.216 13.2554C124.402 13.4562 124.541 13.6954 124.623 13.9561C124.705 14.2167 124.729 14.4923 124.693 14.7631V18.4033H123.579V15.0376C123.579 14.137 123.159 13.681 122.373 13.681C122.182 13.6653 121.99 13.6916 121.81 13.758C121.63 13.8244 121.466 13.9294 121.331 14.0656C121.196 14.2017 121.092 14.3658 121.027 14.5462C120.962 14.7267 120.937 14.9192 120.954 15.1104V18.4033H119.841V10.5641ZM131.181 16.8809C131.03 17.3961 130.702 17.842 130.256 18.1402C129.809 18.4383 129.272 18.57 128.738 18.512C128.366 18.5219 127.997 18.4507 127.656 18.3036C127.315 18.1564 127.01 17.9368 126.762 17.6599C126.514 17.3829 126.33 17.0555 126.221 16.7001C126.112 16.3448 126.082 15.97 126.133 15.6019C126.084 15.2327 126.114 14.8571 126.223 14.5007C126.331 14.1442 126.514 13.8152 126.761 13.5359C127.007 13.2565 127.311 13.0335 127.651 12.8817C127.991 12.7299 128.36 12.653 128.733 12.6562C130.302 12.6562 131.248 13.728 131.248 15.4985V15.8868H127.267V15.9491C127.249 16.156 127.275 16.3642 127.343 16.5606C127.411 16.7569 127.519 16.9367 127.66 17.0888C127.802 17.2409 127.973 17.3618 128.164 17.4436C128.355 17.5256 128.561 17.5667 128.768 17.5644C129.035 17.5964 129.304 17.5483 129.543 17.4266C129.782 17.305 129.979 17.115 130.11 16.8809H131.181ZM127.267 15.0639H130.115C130.129 14.8747 130.103 14.6846 130.039 14.5059C129.975 14.3272 129.875 14.1639 129.744 14.0263C129.613 13.8888 129.455 13.7801 129.28 13.7072C129.105 13.6344 128.916 13.599 128.727 13.6033C128.534 13.6009 128.343 13.637 128.165 13.7096C127.987 13.7821 127.825 13.8896 127.689 14.0258C127.553 14.1619 127.445 14.3239 127.373 14.5022C127.3 14.6805 127.264 14.8715 127.267 15.0639Z" fill="white"/>
</g>
<defs>
<clipPath id="clip0_906_30">
<rect width="149.982" height="50.1562" fill="white" transform="translate(0.00976562)"/>
</clipPath>
</defs>
</svg>
