<svg width="104" height="41" viewBox="0 0 104 41" fill="none" xmlns="http://www.w3.org/2000/svg">
<rect width="103.752" height="41" rx="10" fill="#3F3F3F"/>
<g clip-path="url(#clip0_945_17)">
<path d="M15.7188 29.2V11.7759H26.8811V14.4218H18.8752V19.1522H26.1154V21.7981H18.8752V29.2H15.7188ZM32.7005 11.7759V29.2H29.6206V11.7759H32.7005ZM39.628 29.4637C38.7999 29.4637 38.0541 29.3163 37.3905 29.0213C36.7325 28.7207 36.2107 28.2783 35.825 27.6941C35.445 27.1099 35.255 26.3896 35.255 25.5331C35.255 24.7957 35.3911 24.186 35.6634 23.7039C35.9356 23.2218 36.3071 22.8361 36.7779 22.5468C37.2487 22.2576 37.779 22.0392 38.3689 21.8917C38.9644 21.7386 39.5798 21.628 40.2151 21.5599C40.9808 21.4805 41.6019 21.4096 42.0783 21.3472C42.5547 21.2792 42.9007 21.1771 43.1163 21.0409C43.3375 20.8991 43.4481 20.6808 43.4481 20.3858V20.3348C43.4481 19.6939 43.2581 19.1976 42.8781 18.8459C42.498 18.4942 41.9507 18.3184 41.236 18.3184C40.4817 18.3184 39.8833 18.4829 39.4409 18.8119C39.0041 19.1409 38.7092 19.5294 38.556 19.9775L35.6804 19.5691C35.9072 18.775 36.2816 18.1114 36.8034 17.5782C37.3253 17.0394 37.9633 16.6367 38.7177 16.3701C39.4721 16.0979 40.3058 15.9617 41.219 15.9617C41.8486 15.9617 42.4754 16.0355 43.0993 16.1829C43.7232 16.3304 44.2932 16.5743 44.8093 16.9146C45.3255 17.2493 45.7396 17.7059 46.0515 18.2844C46.3691 18.8629 46.5279 19.5861 46.5279 20.4539V29.2H43.5672V27.4048H43.4651C43.2779 27.7678 43.0142 28.1081 42.6738 28.4258C42.3392 28.7377 41.9167 28.9901 41.4062 29.183C40.9014 29.3702 40.3087 29.4637 39.628 29.4637ZM40.4278 27.2007C41.046 27.2007 41.582 27.0787 42.0358 26.8348C42.4895 26.5852 42.8383 26.2563 43.0822 25.8479C43.3318 25.4395 43.4566 24.9943 43.4566 24.5121V22.9722C43.3602 23.0516 43.1957 23.1254 42.9631 23.1934C42.7362 23.2615 42.481 23.3211 42.1974 23.3721C41.9138 23.4232 41.6331 23.4685 41.3551 23.5082C41.0772 23.5479 40.8362 23.5819 40.632 23.6103C40.1725 23.6727 39.7613 23.7748 39.3983 23.9166C39.0353 24.0584 38.7489 24.2569 38.539 24.5121C38.3291 24.7617 38.2243 25.085 38.2243 25.482C38.2243 26.0492 38.4313 26.4775 38.8453 26.7667C39.2593 27.056 39.7868 27.2007 40.4278 27.2007ZM52.143 16.1319L54.7807 20.9559L57.4604 16.1319H60.719L56.78 22.6659L60.7873 29.2H57.5457L54.7807 24.4951L52.041 29.2H48.774L52.7556 22.6659L48.8761 16.1319H52.143Z" fill="white"/>
<path d="M64.6836 10.1101C64.6836 9.11782 65.5089 8.31244 66.5267 8.31244H87.7778C88.796 8.31244 89.6209 9.11782 89.6209 10.1101V31.6105C89.6209 32.6031 88.796 33.4079 87.7778 33.4079H66.5267C65.5089 33.4079 64.6836 32.6031 64.6836 31.6108V10.1098V10.1101Z" fill="#318BFD"/>
<path d="M72.6794 29.4637C71.8515 29.4637 71.1054 29.3162 70.442 29.0213C69.7839 28.7207 69.2623 28.2783 68.8764 27.6941C68.4966 27.1099 68.3066 26.3895 68.3066 25.5331C68.3066 24.7957 68.4427 24.186 68.7149 23.7039C68.9871 23.2218 69.3586 22.8361 69.8294 22.5468C70.3002 22.2576 70.8306 22.0392 71.4204 21.8917C72.016 21.7386 72.6312 21.628 73.2666 21.5599C74.0323 21.4805 74.6533 21.4096 75.1298 21.3472C75.6063 21.2791 75.952 21.1771 76.1677 21.0409C76.3891 20.8991 76.4994 20.6808 76.4994 20.3858V20.3348C76.4994 19.6938 76.3095 19.1976 75.9297 18.8459C75.5494 18.4942 75.002 18.3184 74.2875 18.3184C73.5331 18.3184 72.9349 18.4829 72.4925 18.8119C72.0554 19.1408 71.7605 19.5294 71.6073 19.9774L68.732 19.5691C68.9587 18.775 69.3332 18.1114 69.8548 17.5782C70.3768 17.0394 71.0148 16.6367 71.7692 16.3701C72.5236 16.0979 73.3572 15.9617 74.2704 15.9617C74.9001 15.9617 75.5267 16.0355 76.1507 16.1829C76.7746 16.3304 77.3448 16.5743 77.8607 16.9146C78.377 17.2492 78.791 17.7059 79.103 18.2844C79.4206 18.8629 79.5795 19.5861 79.5795 20.4539V29.1999H76.6188V27.4048H76.5165C76.3292 27.7678 76.0657 28.1081 75.7253 28.4257C75.3906 28.7377 74.9683 28.9901 74.4577 29.1829C73.9527 29.3701 73.3602 29.4637 72.6794 29.4637ZM73.4793 27.2006C74.0975 27.2006 74.6336 27.0787 75.0873 26.8348C75.5411 26.5852 75.8899 26.2562 76.1336 25.8479C76.3834 25.4395 76.5081 24.9942 76.5081 24.5121V22.9722C76.4115 23.0516 76.2469 23.1254 76.0146 23.1934C75.7879 23.2615 75.5324 23.321 75.2488 23.3721C74.9653 23.4231 74.6844 23.4685 74.4065 23.5082C74.1286 23.5479 73.8875 23.5819 73.6836 23.6103C73.2241 23.6727 72.8128 23.7748 72.4497 23.9166C72.0869 24.0584 71.8003 24.2569 71.5907 24.5121C71.3806 24.7617 71.2756 25.085 71.2756 25.482C71.2756 26.0492 71.4826 26.4774 71.897 26.7667C72.3109 27.056 72.8382 27.2006 73.4793 27.2006ZM82.6762 29.1999V16.1319H85.7559V29.1999H82.6762ZM84.2248 14.2772C83.7369 14.2772 83.3173 14.1155 82.9655 13.7922C82.6137 13.4633 82.4382 13.0691 82.4382 12.6096C82.4382 12.1445 82.6137 11.7503 82.9655 11.427C83.3173 11.0981 83.7369 10.9336 84.2248 10.9336C84.718 10.9336 85.138 11.0981 85.4837 11.427C85.8355 11.7503 86.0114 12.1445 86.0114 12.6096C86.0114 13.0691 85.8355 13.4633 85.4837 13.7922C85.138 14.1155 84.718 14.2772 84.2248 14.2772Z" fill="white"/>
</g>
<defs>
<clipPath id="clip0_945_17">
<rect width="75.6274" height="29" fill="white" transform="translate(14 6)"/>
</clipPath>
</defs>
</svg>
