<svg width="141" height="136" viewBox="0 0 141 136" fill="none" xmlns="http://www.w3.org/2000/svg">
<g filter="url(#filter0_d_1444_153)">
<path d="M56.6234 84.934C54.9219 87.0586 55.0406 90.0477 55.789 92.6647C56.1105 93.789 56.2813 94.9799 56.2813 96.2174C56.2813 103.29 50.5816 109 43.5208 109C36.4601 109 30.7604 103.29 30.7604 96.2174C30.7604 89.1444 36.4601 83.4348 43.5208 83.4348C43.7783 83.4348 44.0333 83.442 44.2859 83.4564C47.0016 83.6113 49.9368 83.0534 51.6299 80.9245V80.9245C53.433 78.657 53.2426 75.4544 51.9396 72.8669C51.4232 71.8414 50.9983 70.7685 50.6715 69.6605C50.3177 68.4605 50.0829 67.2324 49.9684 65.994C49.7168 63.2731 48.2201 60.6429 45.6296 59.7736V59.7736C43.19 58.955 40.5744 60.0212 38.5391 61.5957C37.5347 62.3726 36.4139 62.9999 35.2098 63.4506C32.6279 64.4172 29.8027 64.5193 27.1579 63.7417C24.5131 62.9642 22.1911 61.3489 20.54 59.1379C18.889 56.9269 17.9978 54.2394 18 51.4783C18 44.4052 23.6997 38.6957 30.7604 38.6957C37.8212 38.6957 43.5208 44.4052 43.5208 51.4783V51.4783C43.5208 51.9977 43.8358 52.493 44.3283 52.6583L47.7511 53.8068C50.266 54.6507 52.9648 53.4807 54.7283 51.4989C55.6468 50.4668 56.6778 49.5345 57.8051 48.7209C58.869 47.9531 60.0057 47.3001 61.1961 46.7702C63.7415 45.6369 65.809 43.3422 65.809 40.5559V40.5559C65.809 37.9762 63.9813 35.8216 61.8554 34.3603C60.7546 33.6037 59.7711 32.6748 58.9459 31.6009C57.2234 29.3593 56.2869 26.6114 56.2813 23.7826C56.2813 16.7096 61.9809 11 69.0417 11C76.1024 11 81.8021 16.7096 81.8021 23.7826C81.8021 28.1905 79.5725 32.0633 76.1945 34.3695C74.0633 35.8245 72.2318 37.9795 72.2318 40.56V40.56C72.2318 43.343 74.2995 45.6336 76.8418 46.7659C79.2226 47.8263 81.3448 49.3623 83.0882 51.2538C85.0159 53.3452 87.9079 54.6061 90.6045 53.7012L93.7142 52.6577C94.221 52.4876 94.5625 52.0128 94.5625 51.4783V51.4783C94.5625 44.4052 100.262 38.6957 107.323 38.6957C114.384 38.6957 120.083 44.4052 120.083 51.4783C120.083 58.5513 114.384 64.2609 107.323 64.2609C104.381 64.2609 101.693 63.2632 99.5417 61.5993C97.5159 60.0324 94.9123 58.9912 92.4842 59.806V59.806C89.877 60.6808 88.373 63.3302 88.1171 66.0683C88.0023 67.2966 87.7689 68.5146 87.4179 69.7049C87.0862 70.8297 86.653 71.9182 86.1254 72.9574C84.8275 75.5138 84.6378 78.6838 86.4222 80.9277V80.9277C88.1255 83.0696 91.1017 83.6037 93.8342 83.4545C94.0748 83.4414 94.3175 83.4348 94.5625 83.4348C101.623 83.4348 107.323 89.1444 107.323 96.2174C107.323 103.29 101.623 109 94.5625 109C87.5017 109 81.8021 103.29 81.8021 96.2174C81.8021 94.9716 81.9751 93.773 82.3008 92.642C83.0509 90.0378 83.1739 87.0637 81.4871 84.9425V84.9425C79.6812 82.6716 76.5072 82.1455 73.6922 82.8481C70.6602 83.6047 67.4754 83.6115 64.4342 82.854C61.6166 82.1521 58.4385 82.6675 56.6234 84.934V84.934Z" fill="#338AFF"/>
</g>
<defs>
<filter id="filter0_d_1444_153" x="0" y="0" width="140.083" height="136" filterUnits="userSpaceOnUse" color-interpolation-filters="sRGB">
<feFlood flood-opacity="0" result="BackgroundImageFix"/>
<feColorMatrix in="SourceAlpha" type="matrix" values="0 0 0 0 0 0 0 0 0 0 0 0 0 0 0 0 0 0 127 0" result="hardAlpha"/>
<feOffset dx="1" dy="8"/>
<feGaussianBlur stdDeviation="9.5"/>
<feComposite in2="hardAlpha" operator="out"/>
<feColorMatrix type="matrix" values="0 0 0 0 0.0916666 0 0 0 0 0.5095 0 0 0 0 1 0 0 0 0.25 0"/>
<feBlend mode="normal" in2="BackgroundImageFix" result="effect1_dropShadow_1444_153"/>
<feBlend mode="normal" in="SourceGraphic" in2="effect1_dropShadow_1444_153" result="shape"/>
</filter>
</defs>
</svg>
