<svg width="34" height="36" viewBox="0 0 34 36" fill="none" xmlns="http://www.w3.org/2000/svg">
<path d="M31.1017 29.1534C30.8498 31.028 29.5883 32.6489 27.8229 33.3695C26.9578 33.729 26.0206 33.8382 25.0833 33.729C24.1829 33.6215 23.2809 33.3326 22.3453 32.7934C21.0485 32.0711 19.7501 30.9558 18.2367 29.2979C20.6152 26.3785 22.0564 23.7128 22.5973 21.3343C22.8492 20.2172 22.8862 19.2077 22.777 18.2704C22.6325 17.3701 22.3083 16.5403 21.8044 15.8197C20.6874 14.1988 18.8128 13.2615 16.7232 13.2615C14.6337 13.2615 12.7591 14.234 11.6421 15.8197C11.1381 16.5403 10.814 17.3701 10.6695 18.2704C10.525 19.2077 10.562 20.2525 10.8492 21.3343C11.3901 23.7128 12.8666 26.4155 15.2098 29.3331C13.7316 30.991 12.3996 32.1081 11.1012 32.8287C10.1639 33.3695 9.26356 33.6585 8.36323 33.766C7.43433 33.8701 6.49537 33.7458 5.62527 33.4065C3.85987 32.6859 2.59839 31.0633 2.34643 29.1904C2.23893 28.29 2.31116 27.3897 2.67062 26.3802C2.77812 26.019 2.95953 25.6596 3.13926 25.2279C3.39122 24.6517 3.68014 24.0386 3.96737 23.4255L4.00433 23.3533C6.49033 17.9832 9.15774 12.5056 11.9327 7.17245L12.0402 6.95577C12.3291 6.41657 12.6163 5.83875 12.9052 5.29787C13.1941 4.72172 13.5183 4.18085 13.9147 3.71221C14.6723 2.84714 15.6801 2.3785 16.7972 2.3785C17.9142 2.3785 18.9237 2.84714 19.6796 3.71221C20.076 4.18085 20.4002 4.72172 20.6891 5.29787C20.978 5.83875 21.2652 6.41489 21.5541 6.95409L21.6633 7.17077C24.4013 12.5392 27.0687 18.0168 29.5547 23.3869V23.4222C29.8436 23.9983 30.0956 24.6484 30.3828 25.2245C30.5625 25.6579 30.744 26.0174 30.8515 26.3768C31.1387 27.3158 31.2462 28.2161 31.1017 29.1534ZM16.7232 27.4586C14.7781 25.0078 13.5166 22.7016 13.0833 20.7564C12.9035 19.9267 12.8666 19.206 12.9758 18.5577C13.048 17.9815 13.2647 17.4759 13.5519 17.0442C14.2372 16.0717 15.3895 15.4586 16.7232 15.4586C18.0569 15.4586 19.2462 16.0364 19.8946 17.0442C20.1835 17.4776 20.3985 17.9815 20.4707 18.5577C20.5782 19.206 20.543 19.9636 20.3632 20.7564C19.9315 22.6663 18.6701 24.9726 16.7232 27.4586ZM32.9763 25.5857C32.7966 25.154 32.6152 24.6853 32.4354 24.2889C32.1465 23.6405 31.8593 23.0274 31.6057 22.4513L31.5704 22.416C29.0844 17.0106 26.417 11.533 23.6068 6.12766L23.4993 5.91097C23.2104 5.3701 22.9231 4.79395 22.6342 4.21781C22.2731 3.56943 21.9136 2.8841 21.3375 2.23572C20.1835 0.792833 18.5256 0 16.7602 0C14.9578 0 13.3369 0.792833 12.146 2.16181C11.6051 2.81019 11.2087 3.49552 10.8492 4.1439C10.5603 4.72005 10.2731 5.29619 9.98417 5.83707L9.87666 6.05207C7.10175 11.4574 4.39906 16.9351 1.91306 22.3404L1.87779 22.4127C1.62583 22.9888 1.33691 23.6019 1.048 24.2503C0.854831 24.6769 0.6751 25.1103 0.507127 25.547C0.0384819 26.8807 -0.105975 28.1422 0.0737562 29.439C0.470173 32.1417 2.27252 34.4127 4.75852 35.4205C5.69581 35.8169 6.66838 35.9966 7.6779 35.9966C7.96681 35.9966 8.32627 35.9614 8.61519 35.9244C9.80443 35.78 11.029 35.3852 12.2182 34.6999C13.6964 33.8718 15.1006 32.6825 16.6863 30.9524C18.272 32.6825 19.7132 33.8718 21.1544 34.6999C22.3436 35.3852 23.5681 35.78 24.7574 35.9244C25.0463 35.9614 25.4058 35.9966 25.6947 35.9966C26.7042 35.9966 27.712 35.8169 28.6141 35.4205C31.137 34.411 32.9024 32.1047 33.2988 29.439C33.5877 28.1792 33.4433 26.9194 32.9763 25.5857Z" fill="#E0565B"/>
</svg>
