<svg width="36" height="36" viewBox="0 0 36 36" fill="none" xmlns="http://www.w3.org/2000/svg">
<defs>
<linearGradient id="paint0_linear_1227_1806" x1="18" y1="36" x2="18" y2="0" gradientUnits="userSpaceOnUse">
<stop stop-color="#1D76F2"/>
<stop offset="1" stop-color="#1AC2FB"/>
</linearGradient>
<clipPath id="clip0_1227_1806">
<rect width="36" height="36" fill="white"/>
</clipPath>
</defs>
<g clip-path="url(#clip0_1227_1806)">
<path d="M0 5C0 2.23858 2.23858 0 5 0H31C33.7614 0 36 2.23858 36 5V31C36 33.7614 33.7614 36 31 36H5C2.23858 36 0 33.7614 0 31V5Z" fill="url(#paint0_linear_1227_1806)"/>
<path d="M11.7071 26.2087L11.7104 26.2097L10.4959 28.3134C10.0526 29.0812 9.07061 29.3444 8.30272 28.901C7.53487 28.4577 7.27177 27.4758 7.71509 26.7079L8.60981 25.1582L8.69566 25.0095C8.84902 24.789 9.22744 24.4087 9.98439 24.4802C9.98439 24.4802 11.7656 24.6735 11.8945 25.5993C11.8946 25.5993 11.9121 25.904 11.7071 26.2087ZM28.9336 20.8356H25.1462C24.8882 20.8184 24.7756 20.7263 24.7314 20.6727L24.7286 20.6678L20.6742 13.6456L20.669 13.6491L20.4258 13.3005C20.0274 12.6911 19.3946 14.2497 19.3946 14.2497C18.6391 15.9864 19.5018 17.9609 19.8026 18.5577L25.4338 28.3112C25.8771 29.0791 26.859 29.3422 27.6269 28.8988C28.3948 28.4555 28.6579 27.4736 28.2146 26.7057L26.8064 24.2668C26.7792 24.2077 26.7317 24.0472 27.0204 24.0466H28.9336C29.8202 24.0466 30.5391 23.3278 30.5391 22.4411C30.5391 21.5544 29.8202 20.8356 28.9336 20.8356ZM21.5772 23.0182C21.5772 23.0182 21.7793 24.0466 20.9971 24.0466H20.2149V24.0466H6.99611C6.10943 24.0466 5.39062 23.3278 5.39062 22.4411C5.39062 21.5544 6.10943 20.8356 6.99611 20.8356H10.5956C11.1767 20.802 11.3145 20.4665 11.3145 20.4665L11.3177 20.4681L16.0162 12.3299L16.0148 12.3296C16.1005 12.1724 16.0292 12.0239 16.0168 12.0004L14.4651 9.31278C14.0217 8.5449 14.2848 7.56299 15.0527 7.11967C15.8206 6.67631 16.8025 6.93942 17.2458 7.7073L17.9655 8.9538L18.6839 7.70952C19.1272 6.94163 20.1091 6.67853 20.877 7.12188C21.6449 7.56524 21.908 8.54715 21.4646 9.315L14.9264 20.6394C14.8979 20.7084 14.8891 20.8166 15.1018 20.8356H19.0099L19.0108 20.8737C19.0108 20.8737 21.2696 20.9089 21.5772 23.0182Z" fill="white"/>
</g>
</svg>
