<svg width="38" height="38" viewBox="0 0 38 38" fill="none" xmlns="http://www.w3.org/2000/svg">
<rect width="38" height="38" rx="5" fill="#0BA3AD"/>
<path d="M35.3948 16.4233C35.5114 16.4233 35.6221 16.4233 35.7387 16.4233C36.0476 16.4233 36.0709 16.4641 35.9602 16.738C35.7737 17.1926 35.593 17.6414 35.4065 18.096C34.9869 19.1101 34.5731 20.1301 34.1534 21.1442C34.0544 21.3773 33.9494 21.6046 33.8037 21.8144C33.5065 22.2399 33.116 22.4672 32.5798 22.4613C32.2767 22.4555 31.9853 22.4089 31.7056 22.2982C31.5249 22.2282 31.4491 22.1816 31.5599 21.9718C31.6065 21.8844 31.6298 21.7969 31.6706 21.7095C31.7755 21.4764 31.7872 21.4764 32.0261 21.558C32.131 21.5988 32.2418 21.6337 32.3525 21.6512C32.7022 21.7037 32.9645 21.5813 33.151 21.2724C33.2734 21.0742 33.3083 20.8994 33.1976 20.6663C32.6031 19.4015 32.0261 18.131 31.4375 16.8663C31.4025 16.7847 31.3617 16.7089 31.3326 16.6273C31.2859 16.5049 31.3209 16.4408 31.4491 16.4291C31.5599 16.4175 31.6764 16.4291 31.793 16.4291C32.3117 16.4291 32.201 16.3767 32.3991 16.8255C32.7955 17.723 33.1918 18.6264 33.5881 19.5239L33.6697 19.6929C33.6697 19.6929 33.693 19.7454 33.728 19.7454C33.7629 19.7454 33.8096 19.7512 33.8445 19.6871C33.8562 19.6638 33.8737 19.623 33.8912 19.588C33.897 19.5706 33.897 19.5589 33.9028 19.5472C34.2817 18.5914 34.6488 17.6298 35.0218 16.6739C35.1268 16.4233 35.1267 16.4291 35.3948 16.4233ZM28.978 18.2009C29.2927 18.3117 29.6191 18.3816 29.928 18.5098C30.1728 18.6147 30.4001 18.7371 30.5866 18.9294C31.0412 19.3957 30.9596 20.2583 30.4758 20.7012C30.1728 20.9752 29.8114 21.115 29.4034 21.1442C28.7448 21.185 28.1329 21.0334 27.5675 20.6896C27.1712 20.4506 27.1654 20.4273 27.4277 20.066C27.6083 19.8212 27.585 19.7163 27.958 19.9669C28.3835 20.2525 28.8556 20.3923 29.3801 20.3457C29.5725 20.3282 29.7415 20.2699 29.8755 20.1301C30.097 19.8969 30.0679 19.5939 29.8056 19.4074C29.6249 19.2791 29.4093 19.2209 29.1994 19.1567C29.0071 19.0926 28.8148 19.046 28.6166 18.9877C28.4126 18.9236 28.2261 18.8362 28.0396 18.7371C27.2587 18.3058 27.2994 17.3558 27.7715 16.8546C28.0629 16.5457 28.4243 16.3883 28.8439 16.365C28.9314 16.3592 29.0188 16.365 29.1062 16.365C29.6482 16.3475 30.1436 16.5166 30.6099 16.773C30.8022 16.8779 30.8139 16.9362 30.7031 17.1285C30.6448 17.2334 30.5749 17.3383 30.5108 17.4433C30.4525 17.5423 30.3651 17.5598 30.2602 17.5132C30.2019 17.4899 30.1495 17.4549 30.097 17.4258C29.7939 17.2567 29.4675 17.1577 29.1237 17.1285C28.9255 17.111 28.7215 17.1518 28.5409 17.2626C28.2378 17.4491 28.232 17.7871 28.5175 17.9911C28.6633 18.0902 28.8206 18.1485 28.978 18.2009ZM24.8399 18.3233C24.7175 18.4515 24.7175 18.4632 24.8283 18.6089C25.3703 19.3199 25.9123 20.0252 26.4544 20.7362C26.5126 20.8178 26.6292 20.8877 26.5709 21.0043C26.5185 21.1209 26.3902 21.0917 26.2912 21.0917C26.1513 21.0917 26.0114 21.0859 25.8715 21.0917C25.7142 21.1034 25.6093 21.0451 25.516 20.9227C25.143 20.4273 24.7583 19.9377 24.3795 19.4482C24.0706 19.0518 24.1172 19.0752 23.8783 19.2966C23.7151 19.454 23.5169 19.6638 23.4412 19.7687C23.412 19.827 23.3829 19.8794 23.3654 19.9436C23.3246 20.1067 23.3363 20.2816 23.3363 20.2816V20.5031C23.3421 20.5963 23.3421 20.6896 23.3363 20.7828C23.3363 20.812 23.3363 20.8411 23.3304 20.8702C23.3246 21.0393 23.2721 21.0859 23.109 21.0975C22.9516 21.1034 22.7942 21.1034 22.6369 21.0975C22.462 21.0917 22.4329 21.0567 22.4271 20.8702C22.4212 20.4273 22.4271 19.9785 22.4271 19.5356C22.4271 18.9702 22.4271 18.3991 22.4271 17.8337C22.4271 16.8837 22.4271 15.9337 22.4271 14.9837C22.4271 14.9138 22.4271 14.8439 22.4271 14.7739C22.4271 14.6632 22.4853 14.6107 22.5844 14.6049C22.7709 14.5991 22.9516 14.5933 23.1381 14.6049C23.2663 14.6107 23.3188 14.669 23.3304 14.8031C23.3363 14.8613 23.3304 14.9255 23.3304 14.9837C23.3304 16.1086 23.3304 17.2334 23.3304 18.3583V18.5739C23.3421 18.5914 23.3596 18.6031 23.3829 18.6147C23.4645 18.6439 23.5228 18.5273 23.581 18.4632C24.1872 17.8337 24.7991 17.2043 25.3994 16.569C25.4985 16.4641 25.5976 16.4117 25.7433 16.4233C25.9356 16.435 26.128 16.4291 26.3261 16.4233C26.4077 16.4233 26.4893 16.4291 26.5243 16.5166C26.5593 16.604 26.4835 16.6448 26.4369 16.6914C26.0988 17.0353 25.7608 17.3791 25.4228 17.7172C25.2304 17.9212 25.0381 18.1193 24.8399 18.3233ZM16.6746 18.7546C16.6746 17.4607 17.6421 16.3359 19.1166 16.3359C20.6553 16.3359 21.5936 17.5773 21.5412 18.7663C21.5761 19.9086 20.7136 21.1791 19.105 21.185C17.6246 21.185 16.6746 20.066 16.6746 18.7546ZM20.632 18.7779C20.6728 18.0086 20.0317 17.0761 18.9942 17.1577C18.4697 17.1985 18.0792 17.4433 17.8169 17.8804C17.5838 18.2767 17.5197 18.7138 17.6363 19.1684C17.8985 20.2 18.9768 20.6313 19.8218 20.1767C20.3814 19.8794 20.6087 19.384 20.632 18.7779ZM11.0154 18.7546C11.0154 17.5423 11.9304 16.3301 13.4574 16.3301C14.9728 16.3301 15.9111 17.5132 15.8878 18.7546C15.8936 20.0252 14.9494 21.1908 13.4225 21.1791C11.9129 21.1733 11.0154 19.9844 11.0154 18.7546ZM14.5764 19.862C15.0602 19.3083 15.1185 18.4807 14.728 17.8629C14.4366 17.4025 14.0169 17.1518 13.3817 17.1577C13.0728 17.1402 12.7406 17.2742 12.4491 17.5307C11.8139 18.096 11.7498 19.1626 12.3267 19.8328C12.9679 20.573 14.0286 20.4914 14.5764 19.862ZM6.82491 16.534C7.18043 16.3242 7.57675 16.2135 7.9789 16.231C8.82982 16.266 9.50589 16.6506 9.95466 17.3908C10.2169 17.8279 10.3102 18.3058 10.3044 18.8187C10.2985 19.3899 10.1353 19.9028 9.76233 20.3399C9.29607 20.8877 8.69577 21.1558 7.97307 21.2141C6.9065 21.3015 6.04393 20.8702 5.22798 20.2641C4.82583 19.9669 4.42368 19.6755 3.99822 19.4074C3.81172 19.2908 3.61356 19.1975 3.39792 19.1451C2.92 19.0169 2.45374 19.2034 2.1973 19.623C2.17399 19.658 2.15068 19.6988 2.13319 19.7396C2.08074 19.8561 1.99331 19.9086 1.85926 19.9028C1.66693 19.8969 1.4746 19.9028 1.27644 19.9028C1.04914 19.8969 0.99086 19.8153 1.07828 19.6055C1.38135 18.9003 1.91755 18.4515 2.66939 18.2825C3.36877 18.1252 4.00988 18.265 4.58687 18.6847C4.92491 18.9353 5.25712 19.1917 5.60098 19.4365C6.06724 19.7629 6.54515 20.0834 7.10466 20.235C7.69331 20.3982 8.27031 20.3748 8.78902 20.0018C9.09209 19.7804 9.29607 19.4948 9.35436 19.1218C9.43012 18.6264 9.37767 18.1485 9.06295 17.7288C8.46847 16.9362 7.31448 16.977 6.77246 17.8104C6.62092 18.0494 6.52184 18.3058 6.53933 18.5972C6.54515 18.7196 6.54515 18.842 6.5335 18.9644C6.52184 19.1043 6.43442 19.1626 6.31785 19.0985C6.10221 18.9877 5.89822 18.8479 5.70589 18.6963C5.60681 18.6206 5.6243 18.5098 5.6243 18.4049C5.6243 17.8046 5.6243 17.1985 5.6243 16.5982C5.6243 15.9979 5.6243 15.3917 5.6243 14.7914C5.6243 14.5175 5.64178 14.5 5.92736 14.5C6.01479 14.5 6.10221 14.5 6.18963 14.5C6.48687 14.5058 6.5335 14.5466 6.5335 14.8555C6.5335 15.2577 6.5335 15.6598 6.5335 16.062C6.5335 16.1669 6.5335 16.2718 6.5335 16.3767C6.55098 16.6914 6.55098 16.6914 6.82491 16.534Z" fill="white"/>
</svg>
