<svg width="36" height="36" viewBox="0 0 36 36" fill="none" xmlns="http://www.w3.org/2000/svg">
<defs>
<linearGradient id="paint0_linear_1227_1859" x1="18" y1="35.9964" x2="18" y2="-0.0036006" gradientUnits="userSpaceOnUse">
<stop stop-color="#F9B932"/>
<stop offset="1" stop-color="#F9CB37"/>
</linearGradient>
<clipPath id="clip0_1227_1859">
<rect width="36" height="36" fill="white"/>
</clipPath>
</defs>
<g clip-path="url(#clip0_1227_1859)">
<path d="M0 6C0 2.68629 2.68629 0 6 0H30C33.3137 0 36 2.68629 36 6V30C36 33.3137 33.3137 36 30 36H6C2.68629 36 0 33.3137 0 30V6Z" fill="url(#paint0_linear_1227_1859)"/>
<path d="M32.4184 18.824L25.8232 30.2144C25.5424 30.6997 25.0211 31.0237 24.4163 31.0237H11.2332C10.6284 31.0237 10.1085 30.6997 9.8263 30.2086L3.21816 18.824C2.92728 18.3214 2.92728 17.7022 3.21816 17.1997L9.81334 5.80928C10.0941 5.3312 10.6226 5 11.2202 5H24.425C25.0298 5 25.5496 5.32976 25.8319 5.81504L32.4198 17.1982C32.7107 17.7008 32.7107 18.3214 32.4184 18.824ZM15.8037 25.2637H19.8472C20.7443 25.2637 21.4715 24.5365 21.4715 23.6394C21.4715 22.7422 20.7443 22.015 19.8472 22.015H15.8037C14.9066 22.015 14.1794 22.7422 14.1794 23.6394C14.1794 24.5365 14.9066 25.2637 15.8037 25.2637ZM21.4499 10.8003H14.201C13.3024 10.8003 12.5738 11.529 12.5738 12.4275C12.5738 13.3261 13.3024 14.0547 14.201 14.0547H21.4499C22.3485 14.0547 23.0771 13.3261 23.0771 12.4275C23.0771 11.529 22.3485 10.8003 21.4499 10.8003ZM24.3962 16.4048H11.2476C10.349 16.4048 9.62038 17.1334 9.62038 18.032C9.62038 18.9306 10.349 19.6592 11.2476 19.6592H24.3962C25.2947 19.6592 26.0234 18.9306 26.0234 18.032C26.0234 17.1334 25.2947 16.4048 24.3962 16.4048Z" fill="white"/>
</g>
</svg>
