<svg width="36" height="36" viewBox="0 0 36 36" fill="none" xmlns="http://www.w3.org/2000/svg">
<g clip-path="url(#clip0_1227_1739)">
<path d="M30.9863 35.6175H4.72871C2.67352 35.6175 1 33.9439 1 31.8887V5.6213C1 3.5661 2.67352 1.89258 4.72871 1.89258H30.9863C33.0415 1.89258 34.715 3.5661 34.715 5.6213V31.879C34.7248 33.9439 33.0513 35.6175 30.9863 35.6175ZM4.72871 3.95757C3.80877 3.95757 3.06498 4.70135 3.06498 5.6213V31.879C3.06498 32.7989 3.80877 33.5427 4.72871 33.5427H30.9863C31.9062 33.5427 32.65 32.7989 32.65 31.879V5.6213C32.65 4.70135 31.9062 3.95757 30.9863 3.95757H4.72871Z" fill="#676B74"/>
<path d="M25.3882 7.4703C24.9478 7.4703 24.5955 7.11798 24.5955 6.67758V1.17748C24.5955 0.737085 24.9478 0.384766 25.3882 0.384766C25.8286 0.384766 26.181 0.737085 26.181 1.17748V6.6678C26.181 7.1082 25.8286 7.4703 25.3882 7.4703ZM10.2483 7.4703C9.80789 7.4703 9.45557 7.11798 9.45557 6.67758V1.17748C9.45557 0.737085 9.80789 0.384766 10.2483 0.384766C10.6887 0.384766 11.041 0.737085 11.041 1.17748V6.6678C11.0508 7.1082 10.6887 7.4703 10.2483 7.4703ZM18.8116 25.2233C15.5233 25.2233 12.8515 22.5515 12.8515 19.2632C12.8515 15.9749 15.5233 13.3031 18.8116 13.3031C20.2992 13.3031 21.7182 13.8512 22.8143 14.8494C22.9514 14.9669 22.9611 15.1822 22.8339 15.3094C22.7165 15.4464 22.5012 15.4562 22.3739 15.329C21.3953 14.4384 20.1328 13.9491 18.8116 13.9491C15.8854 13.9491 13.5072 16.3272 13.5072 19.2534C13.5072 22.1796 15.8854 24.5578 18.8116 24.5578C20.1328 24.5578 21.3953 24.0685 22.3739 23.1779C22.511 23.0604 22.7165 23.0702 22.8339 23.1975C22.9514 23.3345 22.9416 23.54 22.8143 23.6574C21.7182 24.6752 20.2992 25.2233 18.8116 25.2233Z" fill="#676B74"/>
</g>
<defs>
<clipPath id="clip0_1227_1739">
<rect width="33.7248" height="36" fill="white" transform="translate(1)"/>
</clipPath>
</defs>
</svg>
