<svg width="48" height="48" viewBox="0 0 48 48" fill="none" xmlns="http://www.w3.org/2000/svg">
<path d="M14 6H34C38.418 6 42 9.582 42 14V34C42 38.418 38.418 42 34 42H14C9.582 42 6 38.418 6 34V14C6 9.582 9.582 6 14 6Z" fill="#64DD17"/>
<path d="M23.0561 33.9339C22.9341 33.9339 22.8111 33.9329 22.6861 33.9299C19.0741 33.8419 16.7061 31.6179 15.9051 30.7319C15.7281 30.5369 15.7341 30.2429 15.9161 30.0519L17.5801 28.1759C17.7581 27.9889 18.0441 27.9669 18.2471 28.1259C18.9851 28.7059 20.6931 30.1799 22.9431 30.3029C25.5551 30.4449 26.7721 29.7019 26.9291 28.5669C27.0781 27.4919 26.5541 26.5809 23.6521 25.8279C18.4671 24.4829 17.5371 21.4579 17.8561 18.9309C18.1911 16.2719 20.9461 14.1539 24.1411 14.1859C28.7071 14.2329 31.5211 16.2719 32.5021 17.1239C32.7221 17.3149 32.7271 17.6489 32.5201 17.8539L30.9391 19.6399C30.7741 19.8039 30.5171 19.8349 30.3221 19.7079C29.5231 19.1879 27.9301 17.6339 25.0861 17.6339C23.3361 17.6339 22.2701 18.3019 22.1591 19.1749C22.0051 20.3949 22.8201 21.4489 25.3141 22.0119C30.8411 23.2589 31.7711 26.4789 31.1841 29.0799C30.6441 31.4749 27.9071 33.9339 23.0561 33.9339Z" fill="#FAFAFA"/>
<path d="M28.0319 16.592L28.8709 12.602C28.9369 12.292 28.6989 12 28.3819 12H25.3169C25.0809 12 24.8759 12.166 24.8279 12.397L23.9849 16.408L28.0319 16.592Z" fill="#FAFAFA"/>
<path d="M20.9158 31L19.9908 35.397C19.9258 35.708 20.1628 36 20.4808 36H23.5458C23.7818 36 23.9868 35.834 24.0348 35.603L25.0028 31H20.9158Z" fill="#FAFAFA"/>
</svg>
