<svg width="36" height="27" viewBox="0 0 36 27" fill="none" xmlns="http://www.w3.org/2000/svg">
<g clip-path="url(#clip0_1227_1751)">
<path d="M29.9505 2.23111C33.8489 7.96287 35.7742 14.4281 35.0545 21.8712C35.0514 21.9027 35.035 21.9316 35.0092 21.9505C32.057 24.1183 29.1967 25.4339 26.3765 26.3063C26.3546 26.313 26.3311 26.3126 26.3093 26.3053C26.2876 26.2979 26.2687 26.284 26.2553 26.2653C25.6037 25.3588 25.0117 24.4031 24.4931 23.3995C24.4633 23.3403 24.4905 23.2691 24.5518 23.2458C25.492 22.8916 26.386 22.467 27.246 21.9644C27.3137 21.9247 27.318 21.8276 27.2554 21.781C27.0729 21.6455 26.8921 21.5031 26.7191 21.3607C26.6868 21.3344 26.6432 21.3292 26.6065 21.3469C21.0236 23.925 14.9078 23.925 9.25882 21.3469C9.22215 21.3305 9.17857 21.3361 9.14707 21.362C8.97448 21.5044 8.79326 21.6455 8.61247 21.781C8.5499 21.8276 8.55508 21.9247 8.62325 21.9644C9.48319 22.4575 10.3772 22.8916 11.3161 23.2476C11.377 23.2709 11.4059 23.3403 11.3757 23.3995C10.8682 24.4044 10.2763 25.3601 9.61264 26.2666C9.58373 26.3033 9.53627 26.3201 9.49139 26.3063C6.68461 25.4339 3.82433 24.1183 0.872136 21.9505C0.847542 21.9316 0.829851 21.9014 0.827262 21.8699C0.225778 15.4318 1.45161 8.91299 5.9265 2.22982C5.93729 2.21213 5.95368 2.19832 5.97267 2.19012C8.17451 1.1796 10.5334 0.43616 12.9989 0.0115845C13.0438 0.00468087 13.0886 0.0253918 13.1119 0.0650879C13.4166 0.604436 13.7648 1.2961 14.0004 1.86133C16.5992 1.46437 19.2385 1.46437 21.8917 1.86133C22.1273 1.30818 22.4634 0.604436 22.7668 0.0650879C22.7776 0.0453951 22.7943 0.0296183 22.8146 0.0200099C22.8349 0.0104015 22.8577 0.00745271 22.8798 0.0115845C25.3466 0.437454 27.7055 1.18089 29.9056 2.19012C29.925 2.19832 29.941 2.21213 29.9505 2.23111ZM15.3216 14.4722C15.3487 12.5689 13.9611 10.994 12.2192 10.994C10.4916 10.994 9.1173 12.5551 9.1173 14.4722C9.1173 16.3888 10.5187 17.9499 12.2192 17.9499C13.9473 17.9499 15.3216 16.3888 15.3216 14.4722ZM26.7912 14.4722C26.8184 12.5689 25.4307 10.994 23.6893 10.994C21.9612 10.994 20.5869 12.5551 20.5869 14.4722C20.5869 16.3888 21.9884 17.9499 23.6893 17.9499C25.4307 17.9499 26.7912 16.3888 26.7912 14.4722Z" fill="#5865F2"/>
</g>
<defs>
<clipPath id="clip0_1227_1751">
<rect width="36" height="26.3232" fill="white"/>
</clipPath>
</defs>
</svg>
