<svg width="48" height="48" viewBox="0 0 48 48" fill="none" xmlns="http://www.w3.org/2000/svg">
<path d="M10.6309 22.6748C10.226 21.9165 9.43825 21.4453 8.5769 21.4453H2.08365C1.9585 21.4453 1.86279 21.5484 1.86279 21.6735C1.86279 21.7324 1.88488 21.7913 1.92905 21.8281L3.34255 23.249C3.4677 23.3741 3.63703 23.4478 3.81371 23.4478H8.39285C8.71678 23.4478 8.98917 23.7054 8.98917 24.0294C8.98917 24.3533 8.7315 24.6257 8.40758 24.6257H5.2493C5.12414 24.6257 5.02844 24.7287 5.02844 24.8539C5.02844 24.9128 5.05052 24.9717 5.09469 25.0085L6.50083 26.4294C6.62598 26.5545 6.79531 26.6281 6.97199 26.6281H8.40022C10.2628 26.6281 11.6689 24.6404 10.6309 22.6748Z" fill="#FF3008"/>
<path d="M13.7301 22.904V25.1715H14.3117C14.9301 25.1641 15.4234 24.6562 15.416 24.0378C15.4307 23.4341 14.9522 22.9261 14.3485 22.904C14.3338 22.904 14.3264 22.904 14.3117 22.904H13.7301ZM14.3117 22.1973C15.3939 22.1973 16.2111 23.0144 16.2111 24.0378C16.2111 25.0611 15.3939 25.8856 14.3117 25.8856H13.0307C12.9792 25.8856 12.9424 25.8414 12.9424 25.7973V22.293C12.9424 22.2414 12.9866 22.2046 13.0307 22.2046L14.3117 22.1973Z" fill="#FF3008"/>
<path d="M18.9863 25.2514C19.6562 25.2514 20.201 24.714 20.201 24.0441C20.201 23.3741 19.6636 22.8293 18.9937 22.8293C18.3237 22.8293 17.7789 23.3668 17.7789 24.0367C17.7789 24.7066 18.3237 25.2441 18.9863 25.2514ZM18.9863 22.1152C20.12 22.1152 20.9888 22.9913 20.9888 24.0367C20.9888 25.0895 20.12 25.9582 18.9863 25.9582C17.8526 25.9582 16.9912 25.0895 16.9912 24.0367C16.9912 22.9839 17.8599 22.1152 18.9863 22.1152Z" fill="#FF3008"/>
<path d="M23.7568 25.2514C24.4268 25.2514 24.9642 24.7066 24.9642 24.0367C24.9642 23.3668 24.4194 22.8293 23.7495 22.8293C23.0795 22.8293 22.5421 23.3741 22.5421 24.0367C22.5421 24.7066 23.0869 25.2514 23.7568 25.2514ZM23.7568 22.1152C24.8906 22.1152 25.7593 22.9839 25.7593 24.0367C25.7593 25.0895 24.8832 25.9582 23.7568 25.9582C22.6305 25.9582 21.7544 25.0895 21.7544 24.0367C21.7544 22.9839 22.6231 22.1152 23.7568 22.1152Z" fill="#FF3008"/>
<path d="M28.4096 22.9025H27.5924V23.8743H28.4096C28.6746 23.889 28.8955 23.6829 28.9102 23.4178C28.9102 23.4105 28.9102 23.4031 28.9102 23.4031C28.9176 23.1381 28.7114 22.9099 28.4464 22.9025C28.4317 22.9025 28.417 22.9025 28.4096 22.9025ZM26.8047 22.2915C26.8047 22.2399 26.8489 22.2031 26.893 22.2031H28.4317C29.1679 22.2031 29.6979 22.7405 29.6979 23.4178C29.7053 23.8743 29.4476 24.2939 29.0427 24.5001L29.7495 25.7516C29.7789 25.7958 29.7642 25.8473 29.7274 25.8767C29.7127 25.8915 29.6906 25.8915 29.6685 25.8915H29.0427C29.0059 25.8915 28.9765 25.8694 28.9617 25.8399L28.2771 24.5958H27.5924V25.7884C27.5924 25.8399 27.5482 25.8767 27.5041 25.8767H26.9078C26.8562 25.8767 26.8194 25.8326 26.8194 25.7884L26.8047 22.2915Z" fill="#FF3008"/>
<path d="M31.7594 22.925V25.1925H32.341C32.9594 25.1852 33.4527 24.6772 33.4453 24.0588C33.46 23.4551 32.9889 22.9471 32.3778 22.925C32.3631 22.925 32.3484 22.925 32.341 22.925H31.7594ZM32.3336 22.2109C33.4159 22.2109 34.233 23.0281 34.233 24.0588C34.233 25.0895 33.4159 25.9066 32.3336 25.9066H31.06C31.0085 25.9066 30.9717 25.8625 30.9717 25.8183V22.3066C30.9717 22.2551 31.0159 22.2183 31.06 22.2183L32.3336 22.2109Z" fill="#FF3008"/>
<path d="M36.6407 23.1171L36.1916 24.3319H37.0898L36.6407 23.1171ZM35.934 25.0092L35.6395 25.819C35.6248 25.8558 35.5879 25.8852 35.5511 25.8852H34.918C34.8665 25.8926 34.8223 25.8558 34.8149 25.8043C34.8149 25.7895 34.8149 25.7748 34.8223 25.7601L36.199 22.2632C36.2137 22.2263 36.2505 22.1969 36.2873 22.2043H37.0014C37.0456 22.2043 37.0824 22.2263 37.0898 22.2632L38.4665 25.7601C38.4886 25.8043 38.4665 25.8632 38.4223 25.8852C38.4076 25.8926 38.3929 25.8926 38.3781 25.8926H37.745C37.7008 25.8926 37.664 25.8705 37.6567 25.8263L37.3622 25.0165H35.934V25.0092Z" fill="#FF3008"/>
<path d="M39.2023 23.1899C39.2023 22.6083 39.7029 22.1077 40.4907 22.1077C40.9177 22.1003 41.3226 22.2549 41.6391 22.542C41.6759 22.5788 41.6759 22.6377 41.6465 22.6745C41.6465 22.6745 41.6465 22.6745 41.6391 22.6819L41.2858 23.0353C41.2489 23.0721 41.1901 23.0721 41.1532 23.0353C40.9839 22.8807 40.7704 22.7997 40.5422 22.7923C40.2256 22.7923 39.9901 22.9764 39.9901 23.1899C39.9901 23.8745 41.86 23.477 41.86 24.7948C41.86 25.4647 41.352 25.9653 40.4612 25.9653C39.9606 25.9727 39.4821 25.7813 39.1287 25.4279C39.0919 25.3911 39.0919 25.3322 39.1213 25.2954C39.1213 25.2954 39.1213 25.2954 39.1287 25.288L39.4673 24.9494C39.5042 24.9126 39.5631 24.9126 39.5999 24.9494C39.8134 25.1555 40.1078 25.2733 40.4023 25.2807C40.7999 25.2807 41.0575 25.0672 41.0575 24.8022C41.0649 24.1175 39.2023 24.515 39.2023 23.1899Z" fill="#FF3008"/>
<path d="M45.2538 22.2856V23.6697H43.671V22.2856C43.671 22.2341 43.6268 22.1973 43.5826 22.1973H42.9863C42.9348 22.1973 42.8979 22.2414 42.8979 22.2856V25.7825C42.8979 25.8341 42.9421 25.8709 42.9863 25.8709H43.5826C43.6341 25.8709 43.671 25.8267 43.671 25.7825V24.3764H45.2538V25.7825C45.2538 25.8341 45.298 25.8709 45.3421 25.8709H45.9384C45.99 25.8709 46.0268 25.8267 46.0268 25.7825V22.2856C46.0268 22.2341 45.9826 22.1973 45.9384 22.1973H45.3421C45.2906 22.1973 45.2538 22.2341 45.2538 22.2856Z" fill="#FF3008"/>
</svg>
