<svg width="36" height="36" viewBox="0 0 36 36" fill="none" xmlns="http://www.w3.org/2000/svg">
<defs>
<linearGradient id="paint0_linear_1411_1321" x1="18" y1="36" x2="18" y2="0.206998" gradientUnits="userSpaceOnUse">
<stop stop-color="#1AC8FC"/>
<stop offset="0.258" stop-color="#1BB6FA"/>
<stop offset="0.775" stop-color="#1C86F5"/>
<stop offset="1" stop-color="#1D70F2"/>
</linearGradient>
</defs>
<path d="M28 36H8C3.589 36 0 32.411 0 28V8C0 3.589 3.589 0 8 0H28C32.411 0 36 3.589 36 8V28C36 32.411 32.411 36 28 36Z" fill="url(#paint0_linear_1411_1321)"/>
<path opacity="0.05" d="M28 10C28.178 10 28.347 10.031 28.512 10.074L20.688 17.899C19.946 18.64 18.973 19.01 18 19.01C17.027 19.01 16.054 18.64 15.312 17.899L7.488 10.074C7.653 10.031 7.822 10 8 10H28ZM29.926 11.488C29.969 11.653 30 11.822 30 12V24C30 24.178 29.969 24.347 29.926 24.512L23.414 18L29.926 11.488ZM6.074 11.488L12.586 18L6.075 24.511C6.031 24.347 6 24.178 6 24V12C6 11.822 6.031 11.653 6.074 11.488ZM21.99 19.404L28.512 25.926C28.347 25.969 28.178 26 28 26H8C7.822 26 7.653 25.969 7.488 25.926L14.01 19.404C15.127 20.467 16.56 21.009 18 21.009C19.44 21.009 20.873 20.467 21.99 19.404ZM28 9H8C7.756 9 7.505 9.035 7.232 9.108C6.886 9.2 6.616 9.469 6.523 9.815C6.431 10.156 6.526 10.519 6.771 10.771C6.582 10.588 6.331 10.488 6.074 10.488C5.987 10.488 5.9 10.499 5.814 10.522C5.469 10.615 5.199 10.885 5.107 11.231C5.035 11.505 5 11.756 5 12V24C5 24.244 5.035 24.495 5.108 24.768C5.2 25.114 5.469 25.384 5.815 25.477C5.901 25.5 5.988 25.511 6.075 25.511C6.332 25.511 6.583 25.412 6.771 25.229C6.526 25.482 6.431 25.845 6.523 26.185C6.616 26.53 6.886 26.8 7.232 26.892C7.505 26.965 7.756 27 8 27H28C28.244 27 28.495 26.965 28.768 26.892C29.114 26.8 29.384 26.531 29.477 26.185C29.569 25.844 29.474 25.481 29.229 25.229C29.418 25.412 29.669 25.511 29.925 25.511C30.012 25.511 30.099 25.5 30.185 25.477C30.53 25.384 30.8 25.114 30.892 24.768C30.965 24.495 31 24.244 31 24V12C31 11.756 30.965 11.505 30.892 11.232C30.8 10.886 30.531 10.616 30.185 10.523C30.099 10.5 30.012 10.489 29.925 10.489C29.668 10.489 29.417 10.588 29.228 10.771C29.473 10.518 29.568 10.155 29.476 9.815C29.383 9.47 29.113 9.2 28.767 9.108C28.495 9.035 28.244 9 28 9Z" fill="black"/>
<path opacity="0.07" d="M28 9.5H8C7.797 9.5 7.594 9.529 7.36 9.591C7.187 9.637 7.052 9.772 7.006 9.944C6.96 10.117 7.009 10.301 7.135 10.427L14.959 18.252C15.77 19.063 16.85 19.51 18 19.51C19.15 19.51 20.23 19.063 21.041 18.253L28.865 10.428C28.991 10.302 29.041 10.117 28.994 9.945C28.948 9.772 28.812 9.638 28.64 9.592C28.406 9.529 28.203 9.5 28 9.5ZM29.926 10.988C29.795 10.988 29.667 11.039 29.572 11.134L23.061 17.646C22.866 17.841 22.866 18.158 23.061 18.353L29.572 24.864C29.667 24.959 29.795 25.01 29.926 25.01C29.969 25.01 30.013 25.004 30.056 24.993C30.229 24.947 30.363 24.811 30.409 24.639C30.471 24.406 30.5 24.203 30.5 24V12C30.5 11.797 30.471 11.594 30.409 11.36C30.363 11.187 30.228 11.052 30.056 11.006C30.013 10.994 29.969 10.988 29.926 10.988ZM6.074 10.988C6.031 10.988 5.987 10.994 5.944 11.005C5.771 11.051 5.637 11.187 5.591 11.359C5.529 11.594 5.5 11.797 5.5 12V24C5.5 24.203 5.529 24.406 5.591 24.64C5.637 24.813 5.772 24.948 5.944 24.994C5.987 25.006 6.031 25.011 6.074 25.011C6.205 25.011 6.333 24.96 6.428 24.865L12.939 18.354C13.134 18.159 13.134 17.842 12.939 17.647L6.428 11.135C6.333 11.04 6.205 10.988 6.074 10.988ZM21.99 18.904C21.866 18.904 21.742 18.95 21.645 19.042C20.65 19.988 19.356 20.509 18 20.509C16.644 20.509 15.349 19.988 14.355 19.042C14.258 18.95 14.134 18.904 14.01 18.904C13.882 18.904 13.754 18.953 13.656 19.05L7.134 25.572C7.008 25.698 6.958 25.883 7.005 26.055C7.052 26.227 7.187 26.362 7.359 26.408C7.594 26.471 7.797 26.5 8 26.5H28C28.203 26.5 28.406 26.471 28.64 26.409C28.813 26.363 28.948 26.228 28.994 26.056C29.04 25.884 28.991 25.699 28.865 25.573L22.343 19.051C22.246 18.953 22.118 18.904 21.99 18.904Z" fill="black"/>
<path d="M29.926 11.488L23.414 18L29.925 24.511C29.969 24.347 30 24.178 30 24V12C30 11.822 29.969 11.653 29.926 11.488ZM20.688 17.899L28.512 10.074C28.347 10.031 28.178 10 28 10H8C7.822 10 7.653 10.031 7.488 10.074L15.312 17.899C16.795 19.38 19.205 19.38 20.688 17.899ZM6.074 11.488C6.031 11.653 6 11.822 6 12V24C6 24.178 6.031 24.347 6.074 24.512L12.586 18L6.074 11.488ZM18 21.009C16.56 21.009 15.127 20.467 14.01 19.404L7.488 25.926C7.653 25.969 7.822 26 8 26H28C28.178 26 28.347 25.969 28.512 25.926L21.99 19.404C20.873 20.467 19.44 21.009 18 21.009Z" fill="#F9F9F9"/>
</svg>
