<svg width="36" height="36" viewBox="0 0 36 36" fill="none" xmlns="http://www.w3.org/2000/svg">
<defs>
<linearGradient id="paint0_linear_1227_1746" x1="17.895" y1="0.75174" x2="18.1098" y2="36.0412" gradientUnits="userSpaceOnUse">
<stop stop-color="#5DF777"/>
<stop offset="1" stop-color="#0ABC28"/>
</linearGradient>
<clipPath id="clip0_1227_1746">
<rect width="36" height="36" fill="white"/>
</clipPath>
</defs>
<g clip-path="url(#clip0_1227_1746)">
<path d="M8.262 0H27.738C32.316 0 36 3.684 36 8.262V27.738C36 32.316 32.316 36 27.738 36H8.262C3.684 36 0 32.316 0 27.738V8.262C0 3.684 3.684 0 8.262 0Z" fill="url(#paint0_linear_1227_1746)"/>
<path d="M5.48975 13.6378V22.4038C5.48975 24.3178 7.04375 25.8658 8.95175 25.8658H19.4998C21.4138 25.8658 22.9618 24.3118 22.9618 22.4038V13.6378C22.9618 11.7238 21.4078 10.1758 19.4998 10.1758H8.95775C7.04375 10.1698 5.48975 11.7238 5.48975 13.6378ZM28.2478 11.2918L24.2758 14.5678C23.9218 14.8618 23.7178 15.2938 23.7178 15.7498V20.2858C23.7178 20.7418 23.9158 21.1678 24.2638 21.4618L28.2358 24.7978C29.1418 25.5538 30.5158 24.9118 30.5158 23.7358V12.3598C30.5218 11.1898 29.1538 10.5418 28.2478 11.2918Z" fill="white"/>
</g>
</svg>
