<svg width="36" height="36" viewBox="0 0 36 36" fill="none" xmlns="http://www.w3.org/2000/svg">
<g clip-path="url(#clip0_1227_1756)">
<path d="M17.9304 0C8.02898 0 0 8.02758 0 17.9304C0 25.8526 5.13759 32.5737 12.2619 34.9446C13.158 35.1105 13.4871 34.5556 13.4871 34.082C13.4871 33.6545 13.4703 32.2419 13.4627 30.7437C8.47434 31.8284 7.42177 28.6282 7.42177 28.6282C6.60614 26.5556 5.43094 26.0047 5.43094 26.0047C3.80419 24.8918 5.55356 24.9145 5.55356 24.9145C7.35413 25.0411 8.30222 26.7623 8.30222 26.7623C9.90141 29.5035 12.4968 28.711 13.52 28.253C13.6808 27.0939 14.1456 26.3031 14.6583 25.8553C10.6758 25.4018 6.48914 23.8643 6.48914 16.994C6.48914 15.0365 7.18959 13.4369 8.33667 12.1812C8.15048 11.7295 7.5368 9.90591 8.51034 7.43611C8.51034 7.43611 10.016 6.95419 13.4425 9.27408C14.8726 8.87667 16.4066 8.67755 17.9304 8.6708C19.4542 8.67755 20.9893 8.87667 22.4222 9.27408C25.8446 6.95419 27.3482 7.43611 27.3482 7.43611C28.3241 9.90591 27.7102 11.7295 27.524 12.1812C28.6736 13.4369 29.3693 15.0363 29.3693 16.994C29.3693 23.8807 25.1747 25.3972 21.1821 25.841C21.8251 26.3974 22.3982 27.4887 22.3982 29.1614C22.3982 31.5605 22.3774 33.4914 22.3774 34.082C22.3774 34.5592 22.7001 35.1183 23.6091 34.9422C30.7295 32.5686 35.8606 25.85 35.8606 17.9304C35.8606 8.02758 27.8328 0 17.9304 0Z" fill="#161614"/>
<path d="M6.7156 25.5423C6.67622 25.6313 6.53588 25.6581 6.40833 25.597C6.27825 25.5385 6.20512 25.417 6.24731 25.3276C6.28598 25.2359 6.42633 25.2103 6.55613 25.2719C6.68649 25.3303 6.76074 25.4529 6.7156 25.5423ZM7.5976 26.3293C7.5121 26.4086 7.3449 26.3717 7.23141 26.2464C7.11413 26.1214 7.09219 25.9544 7.17896 25.8738C7.26713 25.7946 7.42927 25.8316 7.54683 25.9568C7.66412 26.0832 7.6869 26.2493 7.59746 26.3294L7.5976 26.3293ZM8.20271 27.3361C8.09274 27.4125 7.91302 27.3409 7.80207 27.1815C7.69224 27.0221 7.69224 26.8309 7.80446 26.7542C7.91584 26.6776 8.09274 26.7465 8.20524 26.9047C8.31493 27.0668 8.31493 27.2581 8.20257 27.3363L8.20271 27.3361ZM9.2259 28.5023C9.12761 28.6106 8.91835 28.5817 8.76507 28.4337C8.60842 28.2892 8.56468 28.084 8.66326 27.9756C8.76268 27.867 8.9732 27.8975 9.12761 28.0442C9.28328 28.1885 9.33081 28.3952 9.22604 28.5023H9.2259ZM10.5483 28.8961C10.5052 29.0364 10.3035 29.1003 10.1005 29.0407C9.89767 28.9792 9.76492 28.8147 9.80584 28.6728C9.84803 28.5315 10.0505 28.4649 10.2551 28.5288C10.4576 28.59 10.5907 28.7532 10.5485 28.8961H10.5483ZM12.0536 29.063C12.0587 29.211 11.8864 29.3336 11.6732 29.3363C11.4588 29.3409 11.2854 29.2212 11.2831 29.0758C11.2831 28.9265 11.4514 28.805 11.6658 28.8015C11.8789 28.7972 12.0536 28.9161 12.0536 29.063ZM13.5321 29.0063C13.5577 29.1506 13.4095 29.2988 13.1979 29.3382C12.9897 29.3762 12.7971 29.2872 12.7705 29.1442C12.7446 28.9962 12.8957 28.8481 13.1034 28.8098C13.3154 28.7729 13.5051 28.8597 13.5321 29.0063Z" fill="#161614"/>
</g>
<defs>
<clipPath id="clip0_1227_1756">
<rect width="36" height="36" fill="white"/>
</clipPath>
</defs>
</svg>
