<svg width="36" height="28" viewBox="0 0 36 28" fill="none" xmlns="http://www.w3.org/2000/svg">
<path d="M2.45461 27.0417H8.18184V13.1325L0 6.99609V24.5872C0 25.9433 1.09842 27.0418 2.45461 27.0418V27.0417Z" fill="#4285F4"/>
<path d="M27.8184 27.0416H33.5456C34.9017 27.0416 36.0001 25.9431 36.0001 24.587V6.99609L27.8184 13.1325V27.0416Z" fill="#34A853"/>
<path d="M27.8184 2.49627V13.1326L36.0001 6.99623V3.72357C36.0001 0.690171 32.5373 -1.04231 30.1093 0.778131L27.8184 2.49627Z" fill="#FBBC04"/>
<path fill-rule="evenodd" clip-rule="evenodd" d="M8.18164 13.1325V2.49609L17.9998 9.85978L27.818 2.49609V13.1325L17.9998 20.4961L8.18164 13.1325Z" fill="#EA4335"/>
<path d="M0 3.72358V6.99625L8.18184 13.1326V2.49628L5.89092 0.778136C3.46289 -1.04231 0 0.690175 0 3.72344V3.72358Z" fill="#C5221F"/>
</svg>
