<svg width="19" height="17" viewBox="0 0 19 17" fill="none" xmlns="http://www.w3.org/2000/svg">
<g clip-path="url(#clip0_940_2511)">
<path d="M11.0771 0.946681C10.4994 0.776006 9.88042 0.682617 9.24084 0.682617C7.37367 0.682617 5.70251 1.47159 4.58496 2.71462L7.4562 4.97527L11.0771 0.946681Z" fill="#1A73E8"/>
<path d="M4.58472 2.71484C3.66418 3.73877 3.15993 5.03457 3.16113 6.37309C3.16113 7.44223 3.38808 8.31171 3.76289 9.0878L7.45597 4.97549L4.58472 2.71484Z" fill="#EA4335"/>
<path d="M9.24116 4.19946C9.68442 4.19985 10.1183 4.31884 10.4918 4.54243C10.8653 4.76601 11.1627 5.08489 11.3492 5.4615C11.5356 5.8381 11.6032 6.25676 11.5441 6.66817C11.485 7.07957 11.3016 7.46659 11.0155 7.78364L14.6329 3.75507C13.8904 2.41534 12.6103 1.40649 11.0739 0.950195L7.45996 4.97877C7.67772 4.73455 7.95015 4.53815 8.25795 4.40348C8.56576 4.26881 8.90142 4.19916 9.24116 4.19946Z" fill="#4285F4"/>
<path d="M9.24041 8.55302C7.95781 8.55302 6.9159 7.57728 6.9159 6.37611C6.9144 5.86467 7.10695 5.36935 7.45921 4.97852L3.7627 9.0908C4.3954 10.4015 5.44418 11.4545 6.5239 12.7812L11.0147 7.78337C10.7966 8.02479 10.5248 8.21873 10.2183 8.35166C9.91186 8.48459 9.57813 8.5533 9.24041 8.55302Z" fill="#FBBC04"/>
<path d="M10.9253 14.1432C12.9541 11.1741 15.3165 9.82475 15.3165 6.37259C15.3165 5.42582 15.0689 4.5338 14.6322 3.74805L6.52734 12.781C6.87121 13.2028 7.21851 13.6505 7.55549 14.1464C8.78652 15.9304 8.44609 16.9996 9.24041 16.9996C10.0347 16.9996 9.69431 15.9272 10.9253 14.1432Z" fill="#34A853"/>
</g>
<defs>
<clipPath id="clip0_940_2511">
<rect width="18.1525" height="17" fill="white" transform="translate(0.59375)"/>
</clipPath>
</defs>
</svg>
