<svg width="19" height="17" viewBox="0 0 19 17" fill="none" xmlns="http://www.w3.org/2000/svg">
<defs>
<radialGradient id="paint0_radial_940_2492" cx="0" cy="0" r="1" gradientUnits="userSpaceOnUse" gradientTransform="translate(1.32716 16.6276) scale(23.047 21.5837)">
<stop offset="0.09" stop-color="#FA8F21"/>
<stop offset="0.78" stop-color="#D82D7E"/>
</radialGradient>
<radialGradient id="paint1_radial_940_2492" cx="0" cy="0" r="1" gradientUnits="userSpaceOnUse" gradientTransform="translate(12.726 16.0817) scale(20.2816 18.9939)">
<stop offset="0.64" stop-color="#8C3AAA" stop-opacity="0"/>
<stop offset="1" stop-color="#8C3AAA"/>
</radialGradient>
<clipPath id="clip0_940_2492">
<rect width="18.1525" height="17" fill="white" transform="translate(0.152344)"/>
</clipPath>
</defs>
<g clip-path="url(#clip0_940_2492)">
<path d="M4.75535 16.9399C3.67582 16.8939 3.08938 16.7257 2.69932 16.5832C2.18248 16.3947 1.814 16.1704 1.4261 15.8076C1.0382 15.4449 0.798125 15.0998 0.59797 14.6157C0.445832 14.2505 0.266178 13.7013 0.217084 12.6903C0.163134 11.5974 0.152344 11.2695 0.152344 8.50076C0.152344 5.73201 0.164213 5.40461 0.216544 4.31076C0.265639 3.29976 0.446371 2.75157 0.597431 2.38526C0.798664 1.90124 1.03874 1.55616 1.42556 1.19238C1.81292 0.829613 2.1814 0.604274 2.69878 0.416828C3.08884 0.274348 3.67528 0.106102 4.75481 0.0601242C5.92229 0.0101049 6.27297 0 9.22834 0C12.1848 0 12.5344 0.0111154 13.7024 0.0601242C14.782 0.106102 15.3673 0.275359 15.7584 0.416828C16.2753 0.604274 16.6438 0.829613 17.0317 1.19238C17.4196 1.55515 17.6586 1.90073 17.8598 2.38476C18.0119 2.75005 18.1916 3.29925 18.2407 4.31025C18.2941 5.40411 18.3049 5.73151 18.3049 8.50025C18.3049 11.268 18.2941 11.5964 18.2407 12.6903C18.1916 13.7013 18.0109 14.2505 17.8598 14.6157C17.6586 15.0998 17.419 15.4449 17.0317 15.8076C16.6443 16.1704 16.2753 16.3947 15.7584 16.5832C15.3684 16.7257 14.782 16.8939 13.7024 16.9399C12.5355 16.9899 12.1848 17 9.22834 17C6.27297 17 5.92229 16.9904 4.75535 16.9399Z" fill="url(#paint0_radial_940_2492)"/>
<path d="M4.75535 16.9399C3.67582 16.8939 3.08938 16.7257 2.69932 16.5832C2.18248 16.3947 1.814 16.1704 1.4261 15.8076C1.0382 15.4449 0.798125 15.0998 0.59797 14.6157C0.445832 14.2505 0.266178 13.7013 0.217084 12.6903C0.163134 11.5974 0.152344 11.2695 0.152344 8.50076C0.152344 5.73201 0.164213 5.40461 0.216544 4.31076C0.265639 3.29976 0.446371 2.75157 0.597431 2.38526C0.798664 1.90124 1.03874 1.55616 1.42556 1.19238C1.81292 0.829613 2.1814 0.604274 2.69878 0.416828C3.08884 0.274348 3.67528 0.106102 4.75481 0.0601242C5.92229 0.0101049 6.27297 0 9.22834 0C12.1848 0 12.5344 0.0111154 13.7024 0.0601242C14.782 0.106102 15.3673 0.275359 15.7584 0.416828C16.2753 0.604274 16.6438 0.829613 17.0317 1.19238C17.4196 1.55515 17.6586 1.90073 17.8598 2.38476C18.0119 2.75005 18.1916 3.29925 18.2407 4.31025C18.2941 5.40411 18.3049 5.73151 18.3049 8.50025C18.3049 11.268 18.2941 11.5964 18.2407 12.6903C18.1916 13.7013 18.0109 14.2505 17.8598 14.6157C17.6586 15.0998 17.419 15.4449 17.0317 15.8076C16.6443 16.1704 16.2753 16.3947 15.7584 16.5832C15.3684 16.7257 14.782 16.8939 13.7024 16.9399C12.5355 16.9899 12.1848 17 9.22834 17C6.27297 17 5.92229 16.9904 4.75535 16.9399Z" fill="url(#paint1_radial_940_2492)"/>
<path d="M7.0001 8.53627C7.0001 7.37365 8.00621 6.43091 9.24765 6.43091C10.4891 6.43091 11.4957 7.37365 11.4957 8.53627C11.4957 9.69889 10.4891 10.6416 9.24765 10.6416C8.00621 10.6416 7.0001 9.69889 7.0001 8.53627ZM5.78482 8.53627C5.78482 10.3274 7.33513 11.7792 9.24765 11.7792C11.1602 11.7792 12.7105 10.3274 12.7105 8.53627C12.7105 6.74518 11.1602 5.2933 9.24765 5.2933C7.33513 5.2933 5.78487 6.74508 5.78487 8.53627H5.78482ZM12.0384 5.16472C12.0383 5.31461 12.0857 5.46115 12.1746 5.58582C12.2634 5.71048 12.3898 5.80767 12.5376 5.86508C12.6855 5.9225 12.8482 5.93757 13.0052 5.90839C13.1622 5.8792 13.3064 5.80708 13.4196 5.70113C13.5328 5.59518 13.61 5.46017 13.6413 5.31317C13.6726 5.16617 13.6566 5.01378 13.5954 4.87528C13.5342 4.73677 13.4305 4.61837 13.2975 4.53505C13.1644 4.45172 13.008 4.40721 12.8479 4.40715H12.8476C12.6331 4.40725 12.4274 4.48708 12.2756 4.62912C12.1239 4.77117 12.0386 4.9638 12.0384 5.16472ZM6.52318 13.677C5.86569 13.649 5.50833 13.5464 5.27084 13.4598C4.95599 13.345 4.73134 13.2083 4.49515 12.9874C4.25895 12.7665 4.11275 12.5563 3.99071 12.2614C3.89814 12.0391 3.78862 11.7044 3.75873 11.0886C3.72603 10.4229 3.71951 10.2229 3.71951 8.53637C3.71951 6.84981 3.72657 6.65039 3.75873 5.98413C3.78867 5.36838 3.899 5.03426 3.99071 4.8113C4.11329 4.51644 4.25928 4.30605 4.49515 4.08486C4.73101 3.86366 4.95545 3.72674 5.27084 3.61245C5.50822 3.52575 5.86569 3.42319 6.52318 3.3952C7.23402 3.36458 7.44756 3.35847 9.24765 3.35847C11.0477 3.35847 11.2615 3.36498 11.9729 3.3953C12.6304 3.42334 12.9872 3.52666 13.2253 3.61255C13.5401 3.72684 13.7648 3.86406 14.001 4.08496C14.2372 4.30585 14.3828 4.51654 14.5054 4.8114C14.598 5.03371 14.7075 5.36848 14.7374 5.98423C14.7701 6.65049 14.7766 6.84992 14.7766 8.53648C14.7766 10.223 14.7701 10.4225 14.7374 11.0887C14.7074 11.7045 14.5974 12.0391 14.5054 12.2615C14.3828 12.5564 14.2368 12.7668 14.001 12.9875C13.7651 13.2082 13.5401 13.3451 13.2253 13.4599C12.9879 13.5466 12.6304 13.6492 11.9729 13.6771C11.2621 13.7078 11.0486 13.7139 9.24765 13.7139C7.44675 13.7139 7.23381 13.7078 6.52318 13.6771V13.677ZM6.46734 2.25895C5.74943 2.28957 5.25886 2.39617 4.83044 2.5523C4.38703 2.71352 4.01116 2.92982 3.63583 3.28076C3.2605 3.6317 3.03013 3.98376 2.85798 4.39952C2.69127 4.80099 2.57744 5.26016 2.54475 5.93249C2.51151 6.60588 2.50391 6.82117 2.50391 8.53627C2.50391 10.2514 2.51151 10.4667 2.54475 11.1401C2.57744 11.8124 2.69127 12.2716 2.85798 12.673C3.03013 13.0883 3.26055 13.441 3.63583 13.7918C4.01111 14.1426 4.38649 14.3586 4.83044 14.5202C5.25967 14.6764 5.74943 14.783 6.46734 14.8136C7.18676 14.8442 7.41627 14.8518 9.24765 14.8518C11.079 14.8518 11.3089 14.8447 12.028 14.8136C12.7459 14.783 13.2362 14.6764 13.6649 14.5202C14.1083 14.3586 14.4841 14.1427 14.8595 13.7918C15.2348 13.4408 15.4647 13.0883 15.6373 12.673C15.804 12.2716 15.9184 11.8124 15.9506 11.1401C15.9833 10.4662 15.9909 10.2514 15.9909 8.53627C15.9909 6.82117 15.9833 6.60588 15.9506 5.93249C15.9179 5.26011 15.804 4.80074 15.6373 4.39952C15.4647 3.98426 15.2342 3.63226 14.8595 3.28076C14.4847 2.92926 14.1083 2.71352 13.6654 2.5523C13.2362 2.39617 12.7459 2.28906 12.0285 2.25895C11.3094 2.22818 11.0796 2.2207 9.24846 2.2207C7.41735 2.2207 7.18703 2.22783 6.46761 2.25895" fill="white"/>
</g>
</svg>
