<svg width="48" height="19" viewBox="0 0 48 19" fill="none" xmlns="http://www.w3.org/2000/svg">
<g clip-path="url(#clip0_1298_4922)">
<path d="M7.84975 13.5305C7.83603 13.584 7.78286 13.6104 7.69073 13.6104H5.91584C5.8089 13.6104 5.71599 13.5637 5.63635 13.4704L2.70518 9.74214L1.8876 10.5192V13.4114C1.8876 13.5437 1.82079 13.6104 1.6885 13.6104H0.31264C0.178908 13.6104 0.112793 13.5437 0.112793 13.4114V0.230457C0.112793 0.097337 0.178908 0.03125 0.31264 0.03125H1.6885C1.82079 0.03125 1.8876 0.097337 1.8876 0.230457V8.34627L5.39719 4.79672C5.48977 4.70342 5.58304 4.65745 5.67598 4.65745H7.51061C7.59041 4.65745 7.64359 4.6909 7.67047 4.75712C7.69693 4.8364 7.69073 4.89625 7.65057 4.93585L3.94125 8.52555L7.80996 13.3313C7.86244 13.3849 7.87616 13.451 7.84975 13.5305Z" fill="#48BAEB"/>
<path d="M15.0395 13.6095H13.6637C13.517 13.6095 13.4436 13.5428 13.4436 13.4105V13.1305C12.8583 13.5692 12.1076 13.7883 11.1905 13.7883C10.3536 13.7883 9.62798 13.5302 9.01678 13.0108C8.41877 12.4789 8.11914 11.8016 8.11914 10.9771C8.11914 9.67428 8.93049 8.7905 10.5525 8.32555C11.1905 8.13942 12.154 7.97984 13.4436 7.84622C13.4836 7.35481 13.3538 6.93605 13.0552 6.5904C12.7558 6.2451 12.3204 6.07219 11.7485 6.07219C11.0039 6.07219 10.2462 6.33804 9.47516 6.86916C9.3559 6.93603 9.26914 6.92231 9.21663 6.82948L8.49821 5.81249C8.43138 5.73305 8.45227 5.63975 8.5581 5.53404C9.58218 4.82923 10.645 4.47656 11.7485 4.47656C12.5998 4.47656 13.3241 4.67641 13.9222 5.07521C14.7996 5.65967 15.2385 6.59694 15.2385 7.88651V13.4105C15.2386 13.5428 15.1716 13.6095 15.0395 13.6095ZM13.4436 9.44168C12.1411 9.5748 11.25 9.74774 10.7714 9.96014C10.1203 10.2395 9.82777 10.6385 9.89383 11.157C9.93396 11.449 10.0805 11.6847 10.3328 11.8648C10.5851 12.0435 10.8783 12.1477 11.2103 12.1743C12.1411 12.241 12.8856 11.9945 13.4436 11.4355V9.44168H13.4436Z" fill="#48BAEB"/>
<path d="M23.3876 17.0692C22.6631 17.8198 21.6358 18.196 20.3069 18.196C19.5352 18.196 18.8043 18.0032 18.1135 17.6176C17.9669 17.5243 17.7938 17.4013 17.5948 17.2488C17.3949 17.0965 17.1625 16.906 16.8973 16.6804C16.8037 16.6003 16.797 16.5009 16.8767 16.3811L17.814 15.4441C17.8545 15.4045 17.907 15.3843 17.9739 15.3843C18.0267 15.3843 18.0734 15.4045 18.1135 15.4441C18.858 16.1883 19.5822 16.5616 20.2872 16.5616C21.8955 16.5616 22.6995 15.7233 22.6995 14.0483V13.0111C22.0748 13.5298 21.2439 13.7896 20.2074 13.7896C18.9175 13.7896 17.907 13.3034 17.1761 12.3331C16.5385 11.4828 16.2192 10.4125 16.2192 9.12293C16.2192 7.90059 16.5249 6.86279 17.1365 6.01265C17.8545 4.98862 18.8712 4.47656 20.1875 4.47656C21.1846 4.47656 22.022 4.73626 22.6995 5.2545V4.8555C22.6995 4.72257 22.7656 4.65649 22.8987 4.65649H24.2752C24.4075 4.65649 24.4745 4.72257 24.4745 4.8555V13.77C24.4745 15.2179 24.112 16.3181 23.3876 17.0692ZM22.6995 7.48801C22.3676 6.63768 21.5962 6.2116 20.3867 6.2116C18.8316 6.2116 18.0535 7.18245 18.0535 9.12291C18.0535 10.2001 18.3133 10.9844 18.8315 11.4762C19.2168 11.8618 19.7153 12.0546 20.3268 12.0546C21.5759 12.0546 22.3676 11.6293 22.6995 10.7779V7.48801H22.6995Z" fill="#48BAEB"/>
<path d="M32.7631 17.0692C32.0385 17.8198 31.0104 18.196 29.6823 18.196C28.9109 18.196 28.1797 18.0032 27.4884 17.6176C27.3419 17.5243 27.1691 17.4013 26.9701 17.2488C26.7703 17.0965 26.5378 16.906 26.2718 16.6804C26.1785 16.6003 26.1724 16.5009 26.2516 16.3811L27.189 15.4441C27.2286 15.4045 27.2819 15.3843 27.3489 15.3843C27.4017 15.3843 27.4483 15.4045 27.4884 15.4441C28.2329 16.1883 28.9575 16.5616 29.662 16.5616C31.2701 16.5616 32.0742 15.7233 32.0742 14.0483V13.0111C31.4497 13.5298 30.6192 13.7896 29.5813 13.7896C28.2923 13.7896 27.2819 13.3034 26.551 12.3331C25.9126 11.4828 25.5942 10.4125 25.5942 9.12293C25.5942 7.90059 25.8997 6.86279 26.5114 6.01265C27.2286 4.98862 28.2465 4.47656 29.5617 4.47656C30.5594 4.47656 31.3961 4.73626 32.0742 5.2545V4.8555C32.0742 4.72257 32.141 4.65649 32.2731 4.65649H33.6495C33.7824 4.65649 33.8494 4.72257 33.8494 4.8555V13.77C33.8494 15.2179 33.4877 16.3181 32.7631 17.0692ZM32.0742 7.48801C31.7413 6.63768 30.9715 6.2116 29.7617 6.2116C28.2057 6.2116 27.4285 7.18245 27.4285 9.12291C27.4285 10.2001 27.6882 10.9844 28.2057 11.4762C28.5919 11.8618 29.0898 12.0546 29.7017 12.0546C30.9513 12.0546 31.7413 11.6293 32.0742 10.7779V7.48801H32.0742Z" fill="#48BAEB"/>
<path d="M36.9093 13.6104H35.5332C35.4008 13.6104 35.334 13.5443 35.334 13.4114V0.230457C35.334 0.097337 35.4008 0.03125 35.5332 0.03125H36.9093C37.0423 0.03125 37.1085 0.097337 37.1085 0.230457V13.4114C37.1085 13.5443 37.0423 13.6104 36.9093 13.6104Z" fill="#48BAEB"/>
<path d="M46.9385 9.56159C46.9385 9.69451 46.8717 9.7614 46.7387 9.7614H40.2575C40.3376 10.4126 40.6169 10.9572 41.0958 11.3958C41.6402 11.8615 42.3253 12.0941 43.1501 12.0941C43.8795 12.0941 44.5389 11.8879 45.1236 11.4755C45.2434 11.3958 45.3429 11.3958 45.4223 11.4755L46.36 12.4338C46.4658 12.5396 46.4658 12.6329 46.36 12.7121C45.4021 13.4307 44.2924 13.7883 43.0295 13.7883C41.6735 13.7883 40.5436 13.3374 39.6402 12.4338C38.7631 11.5423 38.3237 10.4058 38.3237 9.02296C38.3237 7.72008 38.7553 6.61683 39.6199 5.71329C40.4178 4.88906 41.4549 4.47656 42.7301 4.47656C43.9402 4.47656 44.9572 4.90884 45.7815 5.7727C46.6321 6.66378 47.024 7.78002 46.9587 9.12263L46.9385 9.56159ZM44.3258 6.63033C43.8734 6.21867 43.3291 6.01265 42.6915 6.01265C42.0927 6.01265 41.5671 6.21163 41.1161 6.61063C40.6636 7.0094 40.3773 7.52761 40.2576 8.16541H45.0647C45.0507 7.55377 44.8048 7.04221 44.3258 6.63033Z" fill="#48BAEB"/>
<path d="M46.5015 4.57812H47.0737V4.68459H46.849V5.28427H46.7253V4.68459H46.5015V4.57812Z" fill="#48BAEB"/>
<path d="M47.1538 4.57812H47.3288L47.5233 5.13058H47.5248L47.7153 4.57812H47.8871V5.28427H47.7697V4.73949H47.7674L47.5714 5.28427H47.4687L47.2736 4.73949H47.2721V5.28427H47.1538V4.57812Z" fill="#48BAEB"/>
</g>
<defs>
<clipPath id="clip0_1298_4922">
<rect width="48" height="18.2261" fill="white"/>
</clipPath>
</defs>
</svg>
