<svg width="16" height="15" viewBox="0 0 16 15" fill="none" xmlns="http://www.w3.org/2000/svg">
<g clip-path="url(#clip0_940_2011)">
<path d="M0.830078 1.10047C0.830078 0.509754 1.32492 0.0302734 1.93491 0.0302734H14.6744C15.2846 0.0302734 15.7792 0.509754 15.7792 1.10047V13.9003C15.7792 14.4911 15.2846 14.9703 14.6744 14.9703H1.93491C1.32498 14.9703 0.830078 14.4912 0.830078 13.9004V1.10029V1.10047Z" fill="#006699"/>
<path d="M5.37276 12.5338V5.80776H3.13576V12.5338H5.373H5.37276ZM4.25473 4.88959C5.03466 4.88959 5.52021 4.37311 5.52021 3.72766C5.50561 3.0675 5.03466 2.56543 4.26956 2.56543C3.50394 2.56543 3.00391 3.0675 3.00391 3.7276C3.00391 4.37305 3.48929 4.88954 4.24007 4.88954H4.25455L4.25473 4.88959ZM6.61097 12.5338H8.8478V8.77808C8.8478 8.57733 8.8624 8.37604 8.92149 8.23266C9.08313 7.83085 9.4512 7.41492 10.0693 7.41492C10.8785 7.41492 11.2025 8.03166 11.2025 8.93594V12.5338H13.4392V8.6773C13.4392 6.61143 12.3358 5.65008 10.8641 5.65008C9.65745 5.65008 9.12751 6.32407 8.83308 6.78312H8.84797V5.808H6.61109C6.64029 6.43898 6.61092 12.534 6.61092 12.534L6.61097 12.5338Z" fill="white"/>
</g>
<defs>
<clipPath id="clip0_940_2011">
<rect width="14.9492" height="15" fill="white" transform="translate(0.830078)"/>
</clipPath>
</defs>
</svg>
