<svg width="48" height="48" viewBox="0 0 48 48" fill="none" xmlns="http://www.w3.org/2000/svg">
<path d="M14.5 12.1309C12.8585 12.1309 11.233 12.4542 9.71646 13.0824C8.19989 13.7105 6.8219 14.6313 5.66117 15.792C4.50043 16.9528 3.57969 18.3307 2.95151 19.8473C2.32332 21.3639 2 22.9893 2 24.6309C2 26.2724 2.32332 27.8978 2.95151 29.4144C3.57969 30.931 4.50043 32.309 5.66117 33.4697C6.8219 34.6304 8.19989 35.5512 9.71646 36.1794C11.233 36.8075 12.8585 37.1309 14.5 37.1309C16.1415 37.1309 17.767 36.8075 19.2835 36.1794C20.8001 35.5512 22.1781 34.6304 23.3388 33.4697C24.4996 32.309 25.4203 30.931 26.0485 29.4144C26.6767 27.8978 27 26.2724 27 24.6309C27 22.9893 26.6767 21.3639 26.0485 19.8473C25.4203 18.3307 24.4996 16.9528 23.3388 15.792C22.1781 14.6313 20.8001 13.7105 19.2835 13.0824C17.767 12.4542 16.1415 12.1309 14.5 12.1309ZM39.73 21.2119C39.672 20.8519 39.604 20.4989 39.528 20.1549C39.376 19.4669 39.19 18.8129 38.975 18.2019C38.867 17.8959 38.752 17.6009 38.63 17.3169C38.141 16.1809 37.54 15.2279 36.86 14.5199C36.01 13.6349 35.036 13.1319 34 13.1319C32.964 13.1319 31.99 13.6349 31.14 14.5199C30.46 15.2279 29.859 16.1809 29.37 17.3169C29.248 17.6009 29.132 17.8959 29.025 18.2019C28.809 18.8139 28.624 19.4679 28.472 20.1549C28.396 20.4989 28.329 20.8509 28.27 21.2119C28.094 22.2919 28 23.4409 28 24.6309C28 30.9819 30.686 36.1309 34 36.1309C37.314 36.1309 40 30.9819 40 24.6309C40 23.4409 39.906 22.2919 39.73 21.2119ZM43.5 14.1309C42.119 14.1309 41 18.8319 41 24.6309C41 24.9929 41.004 25.3519 41.013 25.7049C41.064 27.8229 41.265 29.7549 41.571 31.3099C41.673 31.8289 41.786 32.3049 41.91 32.7329C42.033 33.1609 42.167 33.5399 42.309 33.8629C42.663 34.6709 43.069 35.1299 43.501 35.1299C43.933 35.1299 44.338 34.6709 44.693 33.8629C44.835 33.5399 44.968 33.1609 45.092 32.7329C45.215 32.3049 45.329 31.8279 45.431 31.3099C45.737 29.7539 45.938 27.8229 45.989 25.7049C45.996 25.3519 46 24.9939 46 24.6309C46 18.8319 44.881 14.1309 43.5 14.1309Z" fill="black"/>
</svg>
