<svg width="48" height="43" viewBox="0 0 48 43" fill="none" xmlns="http://www.w3.org/2000/svg">
<g clip-path="url(#clip0_1298_4842)">
<path fill-rule="evenodd" clip-rule="evenodd" d="M13.7549 39.2259L19.9956 40.8817V38.7165L20.505 38.207H24.071V40.7542V42.5372H20.2503L15.5379 40.4995L13.7549 39.2259Z" fill="#CDBDB2"/>
<path fill-rule="evenodd" clip-rule="evenodd" d="M34.1318 39.2259L28.0186 40.8817V38.7165L27.5092 38.207H23.9432V40.7542V42.5372H27.7639L32.4761 40.4995L34.1318 39.2259Z" fill="#CDBDB2"/>
<path fill-rule="evenodd" clip-rule="evenodd" d="M20.505 34.5139L19.9956 38.7166L20.6323 38.2071H27.2549L28.0191 38.7166L27.5096 34.5139L26.4908 33.877L21.3964 34.0044L20.505 34.5139Z" fill="#393939"/>
<path fill-rule="evenodd" clip-rule="evenodd" d="M17.0659 6.11328L20.1225 13.2454L21.5236 34.0049H26.4904L28.0187 13.2454L30.8206 6.11328H17.0659Z" fill="#F89C35"/>
<path fill-rule="evenodd" clip-rule="evenodd" d="M3.69348 21.7778L0.127441 32.0937L9.04254 31.5843H14.7736V27.1268L14.5188 17.957L13.2453 18.9759L3.69348 21.7778Z" fill="#F89D35"/>
<path fill-rule="evenodd" clip-rule="evenodd" d="M10.4434 22.9238L20.8868 23.1785L19.7406 28.5276L14.7735 27.254L10.4434 22.9238Z" fill="#D87C30"/>
<path fill-rule="evenodd" clip-rule="evenodd" d="M10.4434 23.0508L14.7735 27.1263V31.2017L10.4434 23.0508Z" fill="#EA8D3A"/>
<path fill-rule="evenodd" clip-rule="evenodd" d="M14.7734 27.2539L19.8678 28.5275L21.5236 34.004L20.3772 34.6407L14.7734 31.3294V27.2539Z" fill="#F89D35"/>
<path fill-rule="evenodd" clip-rule="evenodd" d="M14.7738 31.3301L13.7549 39.2263L20.505 34.5142L14.7738 31.3301Z" fill="#EB8F35"/>
<path fill-rule="evenodd" clip-rule="evenodd" d="M20.8869 23.1797L21.5238 34.0053L19.6133 28.4651L20.8869 23.1797Z" fill="#EA8E3A"/>
<path fill-rule="evenodd" clip-rule="evenodd" d="M8.91504 31.4576L14.7735 31.3301L13.7547 39.2263L8.91504 31.4576Z" fill="#D87C30"/>
<path fill-rule="evenodd" clip-rule="evenodd" d="M2.92933 42.6646L13.7547 39.2258L8.91506 31.457L0.127441 32.0937L2.92933 42.6646Z" fill="#EB8F35"/>
<path fill-rule="evenodd" clip-rule="evenodd" d="M20.1226 13.2441L14.6463 17.829L10.4434 22.9234L20.8868 23.3056L20.1226 13.2441Z" fill="#E8821E"/>
<path fill-rule="evenodd" clip-rule="evenodd" d="M13.7549 39.2258L20.505 34.5137L19.9956 38.5891V40.8816L15.4107 39.99L13.7549 39.2258Z" fill="#DFCEC3"/>
<path fill-rule="evenodd" clip-rule="evenodd" d="M34.1318 39.2258L27.5092 34.5137L28.0186 38.5891V40.8816L32.6035 39.99L34.1318 39.2258Z" fill="#DFCEC3"/>
<path fill-rule="evenodd" clip-rule="evenodd" d="M18.0848 25.4707L19.4858 28.4001L14.5187 27.1265L18.0848 25.4707Z" fill="#393939"/>
<path fill-rule="evenodd" clip-rule="evenodd" d="M2.80176 0.126953L20.1225 13.2448L17.1934 6.11269L2.80176 0.126953Z" fill="#E88F35"/>
<path fill-rule="evenodd" clip-rule="evenodd" d="M2.80173 0.126953L0.509277 7.13167L1.78286 14.7732L0.891353 15.2826L2.16494 16.4288L1.14607 17.3204L2.54701 18.5939L1.6555 19.3581L3.69324 21.9053L13.2451 18.976C17.9149 15.2402 20.2074 13.3298 20.1225 13.2449C20.0376 13.16 14.264 8.78733 2.80173 0.126953Z" fill="#8E5A30"/>
<path fill-rule="evenodd" clip-rule="evenodd" d="M44.1932 21.7778L47.7593 32.0937L38.8442 31.5843H33.1132V27.1268L33.3679 17.957L34.6415 18.9759L44.1932 21.7778Z" fill="#F89D35"/>
<path fill-rule="evenodd" clip-rule="evenodd" d="M37.4434 22.9238L27 23.1785L28.1461 28.5276L33.1132 27.254L37.4434 22.9238Z" fill="#D87C30"/>
<path fill-rule="evenodd" clip-rule="evenodd" d="M37.4434 23.0508L33.1132 27.1263V31.2017L37.4434 23.0508Z" fill="#EA8D3A"/>
<path fill-rule="evenodd" clip-rule="evenodd" d="M33.1133 27.2539L28.0189 28.5275L26.3632 34.004L27.5095 34.6407L33.1133 31.3294V27.2539Z" fill="#F89D35"/>
<path fill-rule="evenodd" clip-rule="evenodd" d="M33.113 31.3301L34.1318 39.2263L27.5092 34.6414L33.113 31.3301Z" fill="#EB8F35"/>
<path fill-rule="evenodd" clip-rule="evenodd" d="M26.9999 23.1797L26.3629 34.0053L28.2734 28.4651L26.9999 23.1797Z" fill="#EA8E3A"/>
<path fill-rule="evenodd" clip-rule="evenodd" d="M38.9717 31.4576L33.1132 31.3301L34.1321 39.2263L38.9717 31.4576Z" fill="#D87C30"/>
<path fill-rule="evenodd" clip-rule="evenodd" d="M44.9574 42.6646L34.132 39.2258L38.9717 31.457L47.7593 32.0937L44.9574 42.6646Z" fill="#EB8F35"/>
<path fill-rule="evenodd" clip-rule="evenodd" d="M27.7641 13.2441L33.2404 17.829L37.4434 22.9234L27 23.3056L27.7641 13.2441Z" fill="#E8821E"/>
<path fill-rule="evenodd" clip-rule="evenodd" d="M29.8019 25.4707L28.4009 28.4001L33.368 27.1265L29.8019 25.4707Z" fill="#393939"/>
<path fill-rule="evenodd" clip-rule="evenodd" d="M45.085 0.126953L27.7642 13.2448L30.6933 6.11269L45.085 0.126953Z" fill="#E88F35"/>
<path fill-rule="evenodd" clip-rule="evenodd" d="M45.085 0.126953L47.3774 7.13167L46.1039 14.7732L46.9954 15.2826L45.7218 16.4288L46.7406 17.3204L45.3397 18.5939L46.2312 19.3581L44.1935 21.9053L34.6416 18.976C29.9718 15.2402 27.6793 13.3298 27.7642 13.2449C27.8491 13.16 33.6227 8.78733 45.085 0.126953Z" fill="#8E5A30"/>
</g>
<defs>
<clipPath id="clip0_1298_4842">
<rect width="48" height="42.7925" fill="white"/>
</clipPath>
</defs>
</svg>
