<svg width="48" height="48" viewBox="0 0 48 48" fill="none" xmlns="http://www.w3.org/2000/svg">
<g clip-path="url(#clip0_1298_4911)">
<path d="M48 24C48 37.2541 37.2541 48 24 48C10.7459 48 0 37.2541 0 24C0 10.7459 10.7459 0 24 0C37.2569 0 48 10.7459 48 24Z" fill="#2081E2"/>
<path d="M11.8404 24.8059L11.944 24.6431L18.1873 14.8762C18.2786 14.7332 18.4931 14.748 18.5621 14.9033C19.6052 17.2409 20.5052 20.148 20.0835 21.9579C19.9035 22.7026 19.4104 23.7111 18.8555 24.6431C18.7841 24.7788 18.7052 24.9119 18.6213 25.0402C18.5819 25.0993 18.5153 25.1339 18.4438 25.1339H12.0229C11.8503 25.1339 11.7492 24.9465 11.8404 24.8059Z" fill="white"/>
<path d="M39.6694 26.6209V28.1669C39.6694 28.2557 39.6152 28.3346 39.5362 28.3691C39.053 28.5762 37.3984 29.3357 36.7105 30.2924C34.9548 32.736 33.6135 36.23 30.6151 36.23H18.1062C13.6727 36.23 10.0801 32.6251 10.0801 28.1768V28.0338C10.0801 27.9154 10.1762 27.8193 10.2946 27.8193H17.2678C17.4059 27.8193 17.507 27.9475 17.4947 28.0831C17.4453 28.5368 17.5292 29.0003 17.7437 29.422C18.158 30.2628 19.016 30.7881 19.9432 30.7881H23.3953V28.093H19.9826C19.8076 28.093 19.704 27.8907 19.8051 27.7477C19.8421 27.691 19.884 27.6319 19.9284 27.5653C20.2514 27.1066 20.7125 26.394 21.1712 25.5828C21.4843 25.0354 21.7876 24.451 22.0317 23.8642C22.081 23.7581 22.1204 23.6496 22.1599 23.5436C22.2265 23.3562 22.2956 23.1811 22.3448 23.0061C22.3942 22.8581 22.4336 22.7027 22.4731 22.5573C22.589 22.0592 22.6383 21.5315 22.6383 20.9841C22.6383 20.7696 22.6284 20.5452 22.6087 20.3307C22.5988 20.0964 22.5692 19.8622 22.5396 19.6279C22.5199 19.4208 22.4829 19.2161 22.4435 19.0016C22.3942 18.6885 22.3251 18.3778 22.2462 18.0646L22.2191 17.9463C22.1599 17.7317 22.1106 17.5271 22.0416 17.3126C21.8468 16.6394 21.6224 15.9835 21.3857 15.3695C21.2994 15.1254 21.2007 14.8912 21.1021 14.6569C20.9566 14.3043 20.8087 13.9838 20.6731 13.6805C20.604 13.5424 20.5448 13.4166 20.4857 13.2884C20.4191 13.1429 20.3501 12.9974 20.281 12.8594C20.2317 12.7534 20.175 12.6547 20.1355 12.5561L19.7139 11.7769C19.6547 11.6709 19.7533 11.5451 19.8692 11.5772L22.5076 12.2922H22.515C22.5199 12.2922 22.5224 12.2947 22.5248 12.2947L22.8725 12.3909L23.2547 12.4994L23.3953 12.5388V10.9706C23.3953 10.2136 24.0019 9.59961 24.7515 9.59961C25.1263 9.59961 25.4665 9.75249 25.7107 10.0015C25.9547 10.2506 26.1076 10.5909 26.1076 10.9706V13.2983L26.3888 13.3772C26.4109 13.3846 26.4331 13.3944 26.4528 13.4092C26.5219 13.461 26.6205 13.5374 26.7463 13.6312C26.8449 13.71 26.9509 13.8062 27.0791 13.9049C27.3331 14.1095 27.6364 14.3734 27.9693 14.6767C28.058 14.7531 28.1444 14.832 28.2233 14.9109C28.6523 15.3104 29.1332 15.7788 29.5918 16.2967C29.72 16.4422 29.8458 16.5901 29.974 16.7454C30.1022 16.9032 30.2378 17.0586 30.3561 17.2139C30.5115 17.4211 30.6792 17.6356 30.8247 17.86C30.8937 17.966 30.9726 18.0745 31.0392 18.1805C31.2266 18.4641 31.3918 18.7575 31.5496 19.051C31.6162 19.1866 31.6852 19.3345 31.7444 19.48C31.9195 19.872 32.0576 20.2715 32.1463 20.671C32.1734 20.7573 32.1932 20.851 32.203 20.9348V20.9545C32.2326 21.0729 32.2425 21.1986 32.2523 21.3268C32.2918 21.7362 32.2721 22.1455 32.1833 22.5573C32.1463 22.7324 32.097 22.8975 32.0378 23.0726C31.9786 23.2403 31.9195 23.4154 31.843 23.5806C31.6951 23.9233 31.52 24.2661 31.3129 24.5866C31.2463 24.705 31.1674 24.8307 31.0885 24.9491C31.0022 25.0748 30.9134 25.1932 30.8345 25.3091C30.726 25.457 30.6102 25.6124 30.4918 25.7505C30.3858 25.8959 30.2773 26.0414 30.1589 26.1696C29.9937 26.3644 29.8359 26.5494 29.6707 26.7269C29.5721 26.8428 29.466 26.9612 29.3575 27.0672C29.2515 27.1855 29.143 27.2915 29.0444 27.3902C28.8792 27.5554 28.7411 27.6836 28.6252 27.7896L28.354 28.0387C28.3145 28.0732 28.2627 28.093 28.2085 28.093H26.1076V30.7881H28.7509C29.3427 30.7881 29.9049 30.5784 30.3586 30.1938C30.514 30.0582 31.1921 29.4713 31.9934 28.5861C32.0205 28.5565 32.0551 28.5343 32.0946 28.5245L39.3957 26.4138C39.5313 26.3743 39.6694 26.4778 39.6694 26.6209Z" fill="white"/>
</g>
<defs>
<clipPath id="clip0_1298_4911">
<rect width="48" height="48" fill="white"/>
</clipPath>
</defs>
</svg>
