<svg width="48" height="48" viewBox="0 0 48 48" fill="none" xmlns="http://www.w3.org/2000/svg">
<path d="M18.6999 13.767L18.7049 13.769C18.8089 13.326 19.1869 13 19.6599 13H33.1319C33.1489 13 33.1659 12.993 33.1829 12.994C32.8959 8.215 28.8869 6 25.3499 6H11.8779C11.4039 6 11.0259 6.335 10.9229 6.777L10.9179 6.775L5.02893 33.813L5.04193 33.814C5.02793 33.878 5.00293 33.939 5.00293 34.008C5.00293 34.561 5.44993 34.999 6.00293 34.999H14.0739L18.6999 13.767Z" fill="#1565C0"/>
<path d="M33.1831 12.9941C33.2361 13.8701 33.1781 14.8231 32.9541 15.8761C31.6731 21.8711 27.0421 24.9911 21.3191 24.9911C21.3191 24.9911 17.8491 24.9911 17.0061 24.9911C16.4851 24.9911 16.2391 25.2971 16.1261 25.5311L14.3861 33.5801L14.0811 35.0091H14.0751L12.8121 40.8051L12.8251 40.8061C12.8111 40.8701 12.7861 40.9311 12.7861 41.0001C12.7861 41.5531 13.2331 42.0001 13.7861 42.0001H21.1191L21.1321 41.9901C21.6041 41.9831 21.9791 41.6461 22.0771 41.2021L22.0951 41.1871L23.9071 32.7711C23.9071 32.7711 24.0331 31.9681 24.8771 31.9681C25.7211 31.9681 29.0551 31.9681 29.0551 31.9681C34.7781 31.9681 39.4561 28.8621 40.7381 22.8661C42.1801 16.1061 37.3581 13.0191 33.1831 12.9941Z" fill="#039BE5"/>
<path d="M19.66 12.9995C19.186 12.9995 18.808 13.3255 18.705 13.7685L18.7 13.7665L16.125 25.5315C16.238 25.2975 16.484 24.9915 17.005 24.9915C17.849 24.9915 21.24 24.9915 21.24 24.9915C26.963 24.9915 31.672 21.8715 32.953 15.8765C33.178 14.8235 33.235 13.8705 33.182 12.9945C33.166 12.9925 33.148 12.9995 33.132 12.9995H19.66Z" fill="#283593"/>
</svg>
