<svg width="48" height="48" viewBox="0 0 48 48" fill="none" xmlns="http://www.w3.org/2000/svg">
<g clip-path="url(#clip0_1298_4798)">
<path d="M5.446 18.01H0.548004C0.271004 18.01 0.0460038 18.177 0.0450038 18.512L3.78991e-06 30.519C-0.00099621 30.819 0.196004 30.969 0.465004 30.969C1.2 30.969 1.8 30.969 2.535 30.969C2.79 30.969 3 30.844 3 30.594C3 29.483 3 28.111 3 27L5.126 27.009C6.525 26.917 7.461 26.267 7.851 24.957C7.968 24.564 7.991 24.224 7.991 23.82L8.101 20.958C7.999 18.946 6.949 18.181 5.446 18.01ZM4.995 23.465C4.995 23.759 4.754 24 4.461 24H3V21H4.461C4.754 21 4.995 21.24 4.995 21.535V23.465ZM13.938 18H10.515C10.255 18 10.032 18.08 10.032 18.351C10.032 19.057 10.032 19.846 10.032 20.552C10.06 20.846 10.263 21 10.552 21H13.407C14.001 21 13.939 21.972 13.407 22H11.84C10.101 22 9 23.562 9 25.137C9 25.557 9.005 26.543 9 27C8.992 27.651 8.986 28.311 9.112 28.899C9.336 29.939 10.235 31 11.597 31H15.825C16.366 31 16.998 30.526 16.998 29.899V21.625C17.026 19.443 15.942 18.117 13.938 18ZM14 27.55C14 27.798 13.798 28 13.552 28H12.447C12.201 28 12 27.798 12 27.55V25.449C12 25.202 12.201 25 12.447 25H13.552C13.798 25 14 25.202 14 25.449V27.55ZM18 18.594V24.202C18.124 25.802 19.608 27 21.171 27H22.585C23.182 27 23.146 27.969 22.585 27.969H19.49C19.151 27.969 19.028 28.146 19.028 28.445V30.597C19.028 30.823 19.211 30.993 19.45 30.993H22.409C24.825 30.993 26.001 29.834 26 27.236V18.396C26 18.12 25.825 18.013 25.658 18.013H23.356C23.132 18.013 23.001 18.256 23.001 18.435V23.653C23.001 23.852 22.89 23.969 22.711 23.969H21.41C21.146 23.969 21.001 23.826 21.001 23.573V18.515C21 18.218 20.88 18 20.552 18C19.774 18 19.11 18 18.332 18C18.067 18 18 18.263 18 18.594Z" fill="#0D47A1"/>
<path d="M27.0381 20.5698V18.4318C27.0381 18.1948 27.2321 18.0008 27.4681 18.0008H28.0001C29.3681 17.7158 29.8511 17.3808 30.6881 16.4788C31.2021 15.9218 31.6541 15.7748 31.9861 16.3658L32.0001 18.0008H33.5691C33.8071 18.0008 34.0001 18.1948 34.0001 18.4318V20.5698C34.0001 20.8058 33.8061 21.0008 33.5691 21.0008H32.0001V30.5698C32.0001 30.8078 31.8061 31.0008 31.5701 31.0008H29.4301C29.1931 31.0008 29.0001 30.8078 29.0001 30.5698V21.0008H27.4691C27.2341 21.0008 27.0381 20.8068 27.0381 20.5698ZM42.9911 30.4658C42.9911 30.7598 42.7471 31.0008 42.4521 31.0008H40.5421C40.2451 31.0008 40.0021 30.7598 40.0021 30.4658V23.8428V21.9718C40.0021 20.6878 38.0001 20.6878 38.0001 21.9718V30.4658C38.0001 30.7598 37.7581 31.0008 37.4611 31.0008H35.5401C35.2431 31.0008 35.0001 30.7598 35.0001 30.4658V18.5378C35.0001 18.2418 35.2431 18.0008 35.5401 18.0008H37.5161C37.8131 18.0008 38.0551 18.2418 38.0551 18.5378V18.8298C39.3751 17.5638 41.3571 17.8568 42.4711 19.0578C44.5681 16.6528 48.1611 18.7958 47.9941 21.4328C47.9941 24.3488 47.9681 27.5258 47.9681 30.4658C47.9681 30.7598 47.7241 31.0008 47.4301 31.0008H45.5391C45.2421 31.0008 45.0001 30.7598 45.0001 30.4658C45.0001 27.6798 45.0001 24.7648 45.0001 22.0258C45.0001 20.7188 43.0001 20.6558 43.0001 22.0258V30.4658H42.9911Z" fill="#00ADEE"/>
</g>
<defs>
<clipPath id="clip0_1298_4798">
<rect width="48" height="48" fill="white"/>
</clipPath>
</defs>
</svg>
