<svg width="48" height="48" viewBox="0 0 48 48" fill="none" xmlns="http://www.w3.org/2000/svg">
<path d="M13 42H35C38.866 42 42 38.866 42 35V13C42 9.134 38.866 6 35 6H13C9.134 6 6 9.134 6 13V35C6 38.866 9.134 42 13 42Z" fill="#00FF00"/>
<path d="M35.4501 31.0419L30.8381 27.9909C30.2751 27.6499 29.5711 27.6439 29.0021 27.9739C29.0021 27.9739 29.0021 27.9739 27.0241 29.1269C26.7591 29.2809 26.5041 29.3099 26.2981 29.2719C26.0361 29.2239 25.8561 29.0809 25.8441 29.0709C24.7571 28.2739 23.4871 27.2189 22.1331 25.8659C20.7801 24.5129 19.7251 23.2429 18.9281 22.1549C18.9191 22.1419 18.7751 21.9619 18.7271 21.7009C18.6901 21.4949 18.7181 21.2409 18.8721 20.9749C20.0251 18.9969 20.0251 18.9969 20.0251 18.9969C20.3561 18.4279 20.3491 17.7229 20.0081 17.1609L16.9571 12.5489C16.5791 11.9779 15.8061 11.8269 15.2431 12.2169C15.2431 12.2169 13.7981 13.2059 13.3211 13.5419C12.5571 14.0799 12.3111 14.8979 12.3101 16.0379C12.3081 17.6419 13.6901 22.6669 19.5111 28.4879C25.3331 34.3099 30.3571 35.6909 31.9611 35.6889C33.1011 35.6879 33.9191 35.4409 34.4571 34.6779C34.7931 34.2009 35.7821 32.7559 35.7821 32.7559C36.1721 32.1929 36.0221 31.4199 35.4501 31.0419Z" fill="white"/>
</svg>
