<svg width="36" height="36" viewBox="0 0 36 36" fill="none" xmlns="http://www.w3.org/2000/svg">
<g clip-path="url(#clip0_1227_1711)">
<path d="M35.4702 17.9499C35.4702 27.6298 27.6202 35.4798 17.9402 35.4798C8.26016 35.4798 0.410156 27.6298 0.410156 17.9499C0.410156 8.2699 8.26016 0.419922 17.9402 0.419922C27.6202 0.419922 35.4702 8.2699 35.4702 17.9499Z" fill="#CA2127"/>
<path d="M16.4702 6.28968C11.5302 6.81968 6.61016 10.6197 6.41016 16.0596C6.28016 19.3796 7.67017 21.8696 10.9902 22.5696C11.3702 20.9996 11.4402 20.1496 11.4402 20.1496C11.4402 20.1496 9.98018 18.7496 9.83018 17.8596C8.61017 10.6997 18.5002 5.80968 23.6902 10.8097C27.2702 14.2797 24.9102 24.9496 19.1302 23.8396C13.5902 22.7796 21.8402 14.2897 17.4202 12.6197C13.8302 11.2597 11.9202 16.7696 13.6202 19.4996C12.6202 24.1996 10.4702 28.6296 11.3402 34.5196C14.1702 32.5696 15.1202 28.8296 15.9002 24.9296C17.3202 25.7496 18.0802 26.6096 19.8902 26.7396C26.5702 27.2296 30.3003 20.3896 29.3903 14.0697C28.5702 8.46967 22.7102 5.61968 16.4702 6.28968Z" fill="white"/>
</g>
<defs>
<clipPath id="clip0_1227_1711">
<rect width="36" height="36" fill="white"/>
</clipPath>
</defs>
</svg>
