<svg width="48" height="48" viewBox="0 0 48 48" fill="none" xmlns="http://www.w3.org/2000/svg">
<path d="M34.0274 38.7346C39.5723 35.2368 43.3499 28.9762 43.3365 21.3912C43.3365 6.83904 33.9122 1.66992 24.0611 1.66992C-4.53918 2.9928 -0.203341 47.581 28.4733 41.0395C32.356 47.9779 38.1391 46.2989 39.6314 45.7522C39.6314 45.7522 39.4312 44.531 39.0808 42.2582C36.2911 42.1872 35.0479 40.787 34.0274 38.7346ZM21.2992 30.0403C21.2992 30.0403 21.4509 31.1688 21.7643 33.2203C24.3823 33.2194 25.6783 34.5768 26.584 36.3302C25.7767 36.6432 24.7768 36.6437 23.932 36.6739C19.3456 36.6739 13.853 34.693 13.853 22.331C13.853 9.97152 19.6053 6.55872 24.1922 6.55872C28.7776 6.55872 34.1114 9.50016 34.1114 21.8606C34.0845 27.4459 33.0127 31.1222 31.2487 33.2477C27.4346 28.3267 22.4858 29.5061 21.2992 30.0403Z" fill="#B92B27"/>
</svg>
