<svg width="36" height="36" viewBox="0 0 36 36" fill="none" xmlns="http://www.w3.org/2000/svg">
<g clip-path="url(#clip0_1227_1689)">
<path d="M6 0C2.68629 0 0 2.68629 0 6V30C0 33.3137 2.68629 36 6 36H30C33.3137 36 36 33.3137 36 30V6C36 2.68629 33.3137 0 30 0H6Z" fill="#3A76F0"/>
<path d="M15.0293 5.98624L15.3071 7.11124C14.2125 7.38178 13.1648 7.81554 12.1993 8.39796L11.6051 7.40304C12.6679 6.75945 13.8226 6.28169 15.0293 5.98624ZM20.9707 5.98624L20.693 7.11124C21.7876 7.38178 22.8353 7.81554 23.8008 8.39796L24.402 7.40304C23.3364 6.76001 22.1795 6.28232 20.9707 5.98624ZM7.40399 11.6007C6.76101 12.665 6.2833 13.8207 5.9872 15.0284L7.1122 15.3061C7.38273 14.2115 7.8165 13.1638 8.39891 12.1983L7.40399 11.6007ZM6.78525 17.9991C6.78516 17.4366 6.82747 16.8748 6.91181 16.3186L5.76572 16.1429C5.5794 17.3722 5.5794 18.6225 5.76572 19.8518L6.91181 19.6796C6.8276 19.1234 6.78529 18.5616 6.78525 17.9991ZM24.3949 28.5917L23.8008 27.6003C22.8368 28.1832 21.7902 28.617 20.6965 28.887L20.9742 30.012C22.1795 29.7137 23.3328 29.2348 24.3949 28.5917ZM29.2148 17.9991C29.2148 18.5616 29.1725 19.1234 29.0883 19.6796L30.2344 19.8518C30.4207 18.6225 30.4207 17.3722 30.2344 16.1429L29.0883 16.3186C29.1726 16.8748 29.2149 17.4366 29.2148 17.9991ZM30.0129 20.9663L28.8879 20.6886C28.618 21.7845 28.1842 22.8334 27.6012 23.7999L28.5961 24.3975C29.2397 23.3323 29.7174 22.1753 30.0129 20.9663ZM19.6805 29.0874C18.5665 29.2561 17.4335 29.2561 16.3196 29.0874L16.1473 30.2334C17.3754 30.4198 18.6246 30.4198 19.8528 30.2334L19.6805 29.0874ZM27.0281 24.6507C26.3599 25.5568 25.5587 26.3568 24.6516 27.0237L25.3406 27.9588C26.3398 27.2233 27.2237 26.3429 27.9633 25.3467L27.0281 24.6507ZM24.6516 8.971C25.5588 9.63915 26.36 10.4404 27.0281 11.3476L27.9633 10.6515C27.2263 9.65437 26.3447 8.7728 25.3477 8.03585L24.6516 8.971ZM8.97195 11.3476C9.6401 10.4404 10.4413 9.63915 11.3485 8.971L10.6524 8.03585C9.65532 8.7728 8.77375 9.65437 8.0368 10.6515L8.97195 11.3476ZM28.5961 11.6007L27.6012 12.1983C28.1841 13.1623 28.6179 14.2089 28.8879 15.3026L30.0129 15.0249C29.7167 13.8183 29.239 12.6637 28.5961 11.6007ZM16.3196 6.91085C17.4335 6.74208 18.5665 6.74208 19.6805 6.91085L19.8528 5.76476C18.6246 5.57841 17.3754 5.57841 16.1473 5.76476L16.3196 6.91085ZM9.56609 28.2682L7.17196 28.8237L7.73094 26.4296L6.60243 26.1659L6.04345 28.56C6.00848 28.7085 6.00311 28.8623 6.02766 29.0128C6.05221 29.1633 6.10618 29.3075 6.18651 29.4372C6.26683 29.5668 6.37193 29.6793 6.49578 29.7683C6.61963 29.8573 6.75981 29.921 6.90829 29.9557C7.08195 29.9944 7.26198 29.9944 7.43563 29.9557L9.82976 29.4038L9.56609 28.2682ZM6.8415 25.1323L7.97352 25.3924L8.36024 23.7331C7.7955 22.7858 7.37488 21.7597 7.1122 20.6886L5.9872 20.9663C6.24025 21.9916 6.62302 22.9804 7.12626 23.9089L6.8415 25.1323ZM12.2555 27.6424L10.5962 28.0292L10.8598 29.1612L12.0798 28.8764C13.0075 29.3812 13.9965 29.764 15.0223 30.0155L15.3 28.8905C14.2323 28.6244 13.2098 28.2014 12.2661 27.6354L12.2555 27.6424ZM18 7.94444C12.4454 7.94796 7.94891 12.4515 7.94891 18.0026C7.95197 19.8934 8.48679 21.7451 9.49226 23.3464L8.52547 27.4737L12.6493 26.5069C17.3496 29.4635 23.5582 28.0538 26.5148 23.3569C29.4715 18.66 28.0652 12.4515 23.3684 9.49131C21.7604 8.48015 19.8995 7.94393 18 7.94444Z" fill="white"/>
</g>
<defs>
<clipPath id="clip0_1227_1689">
<rect width="36" height="36" fill="white"/>
</clipPath>
</defs>
</svg>
