<svg width="48" height="48" viewBox="0 0 48 48" fill="none" xmlns="http://www.w3.org/2000/svg">
<defs>
<linearGradient id="paint0_linear_1298_4626" x1="20.6012" y1="4.72124" x2="27.3992" y2="43.2792" gradientUnits="userSpaceOnUse">
<stop stop-color="#FEDE00"/>
<stop offset="1" stop-color="#FFD000"/>
</linearGradient>
</defs>
<path d="M34.0172 41.9902L14.0172 42.0092C9.61724 42.0132 6.01424 38.4172 6.00924 34.0172L5.99024 14.0172C5.98624 9.61724 9.58224 6.01424 13.9822 6.00924L33.9822 5.99024C38.3822 5.98624 41.9852 9.58224 41.9902 13.9822L42.0092 33.9822C42.0142 38.3832 38.4172 41.9862 34.0172 41.9902Z" fill="url(#paint0_linear_1298_4626)"/>
<path opacity="0.07" d="M14.6131 20.5049C14.4451 20.5049 14.2711 20.5439 14.1101 20.6249C13.8451 20.7569 13.6471 20.9849 13.5531 21.2659C13.4021 21.7189 13.5571 22.2159 13.9391 22.5019L17.6151 24.7979L17.4721 25.1799C17.4061 25.3589 15.8021 29.5829 12.7691 31.2369C12.6081 31.3249 12.5051 31.4429 12.4951 31.5539C12.4841 31.6659 12.5731 31.7669 12.6501 31.8309C13.3061 32.3799 13.9841 32.7699 15.3351 33.0179L15.7441 33.0929L15.7451 33.5089C15.7471 34.1169 15.9401 34.7599 16.1201 34.7599C17.0131 34.7599 18.8711 34.7599 20.7281 35.6879C21.7581 36.2029 23.2001 36.5109 23.9991 36.5109C24.7981 36.5109 26.2401 36.2029 27.2701 35.6879C29.1261 34.7599 30.9851 34.7599 31.8781 34.7599C32.0591 34.7599 32.2521 34.1169 32.2531 33.5089L32.2541 33.0929L32.6631 33.0179C34.0141 32.7709 34.6921 32.3809 35.3491 31.8309C35.4261 31.7669 35.5151 31.6659 35.5041 31.5539C35.4931 31.4429 35.3901 31.3249 35.2301 31.2369C32.1981 29.5829 30.5941 25.3589 30.5271 25.1799L30.3841 24.7979L34.0941 22.4779C34.4411 22.2149 34.5961 21.7189 34.4451 21.2659C34.3521 20.9849 34.1541 20.7579 33.8891 20.6249C33.6251 20.4919 33.3251 20.4719 33.0431 20.5649L30.4971 21.6069V18.0999C30.4971 14.4639 27.5831 11.5059 24.0011 11.5059C20.4151 11.5059 17.5011 14.4639 17.5011 18.0999V21.6079L14.9251 20.5549C14.8281 20.5219 14.7221 20.5049 14.6131 20.5049Z" fill="black"/>
<path opacity="0.05" d="M23.9999 37.0109C24.8679 37.0109 26.3869 36.6889 27.4939 36.1359C29.2449 35.2609 31.0029 35.2609 31.8779 35.2609C32.7529 35.2609 32.7529 33.5099 32.7529 33.5099C34.1439 33.2559 34.9089 32.8519 35.6699 32.2149C36.2009 31.7699 36.0769 31.1299 35.4689 30.7989C32.5659 29.2159 30.9949 25.0059 30.9949 25.0059L34.3589 22.9019C34.9129 22.4869 35.1379 21.7639 34.9199 21.1069C34.6389 20.2639 33.7269 19.8089 32.8849 20.0909L30.9979 20.8619V18.0999C30.9979 14.2359 27.8659 11.0059 24.0019 11.0059H23.9979C20.1339 11.0059 17.0019 14.2359 17.0019 18.0999V20.8629L15.1149 20.0919C14.2719 19.8099 13.3609 20.2649 13.0799 21.1079C12.8609 21.7639 13.0869 22.4869 13.6409 22.9029L17.0049 25.0069C17.0049 25.0069 15.4349 29.2159 12.5309 30.7999C11.9229 31.1309 11.7989 31.7719 12.3299 32.2159C13.0899 32.8529 13.8559 33.2569 15.2469 33.5109C15.2469 33.5109 15.2469 35.2619 16.1219 35.2619C16.9969 35.2619 18.7549 35.2619 20.5059 36.1369C21.6129 36.6889 23.1319 37.0109 23.9999 37.0109Z" stroke="#1D1D1B" stroke-width="2"/>
<path opacity="0.07" d="M23.9999 37.0109C24.8679 37.0109 26.3869 36.6889 27.4939 36.1359C29.2449 35.2609 31.0029 35.2609 31.8779 35.2609C32.7529 35.2609 32.7529 33.5099 32.7529 33.5099C34.1439 33.2559 34.9089 32.8519 35.6699 32.2149C36.2009 31.7699 36.0769 31.1299 35.4689 30.7989C32.5659 29.2159 30.9949 25.0059 30.9949 25.0059L34.3589 22.9019C34.9129 22.4869 35.1379 21.7639 34.9199 21.1069C34.6389 20.2639 33.7269 19.8089 32.8849 20.0909L30.9979 20.8619V18.0999C30.9979 14.2359 27.8659 11.0059 24.0019 11.0059H23.9979C20.1339 11.0059 17.0019 14.2359 17.0019 18.0999V20.8629L15.1149 20.0919C14.2719 19.8099 13.3609 20.2649 13.0799 21.1079C12.8609 21.7639 13.0869 22.4869 13.6409 22.9029L17.0049 25.0069C17.0049 25.0069 15.4349 29.2159 12.5309 30.7999C11.9229 31.1309 11.7989 31.7719 12.3299 32.2159C13.0899 32.8529 13.8559 33.2569 15.2469 33.5109C15.2469 33.5109 15.2469 35.2619 16.1219 35.2619C16.9969 35.2619 18.7549 35.2619 20.5059 36.1369C21.6129 36.6889 23.1319 37.0109 23.9999 37.0109Z" stroke="black"/>
<path d="M23.9999 37.0109C24.8679 37.0109 26.3869 36.6889 27.4939 36.1359C29.2449 35.2609 31.0029 35.2609 31.8779 35.2609C32.7529 35.2609 32.7529 33.5099 32.7529 33.5099C34.1439 33.2559 34.9089 32.8519 35.6699 32.2149C36.2009 31.7699 36.0769 31.1299 35.4689 30.7989C32.5659 29.2159 30.9949 25.0059 30.9949 25.0059L34.3589 22.9019C34.9129 22.4869 35.1379 21.7639 34.9199 21.1069C34.6389 20.2639 33.7269 19.8089 32.8849 20.0909L30.9979 20.8619V18.0999C30.9979 14.2359 27.8659 11.0059 24.0019 11.0059H23.9979C20.1339 11.0059 17.0019 14.2359 17.0019 18.0999V20.8629L15.1149 20.0919C14.2719 19.8099 13.3609 20.2649 13.0799 21.1079C12.8609 21.7639 13.0869 22.4869 13.6409 22.9029L17.0049 25.0069C17.0049 25.0069 15.4349 29.2159 12.5309 30.7999C11.9229 31.1309 11.7989 31.7719 12.3299 32.2159C13.0899 32.8529 13.8559 33.2569 15.2469 33.5109C15.2469 33.5109 15.2469 35.2619 16.1219 35.2619C16.9969 35.2619 18.7549 35.2619 20.5059 36.1369C21.6129 36.6889 23.1319 37.0109 23.9999 37.0109Z" fill="white"/>
</svg>
