<svg width="36" height="36" viewBox="0 0 36 36" fill="none" xmlns="http://www.w3.org/2000/svg">
<defs>
<linearGradient id="paint0_linear_1227_1733" x1="18.0385" y1="8.54529" x2="18.0385" y2="27.5718" gradientUnits="userSpaceOnUse">
<stop stop-color="#FF8800"/>
<stop offset="1" stop-color="#FF3300"/>
</linearGradient>
<clipPath id="clip0_1227_1733">
<rect width="36" height="19.9728" fill="white" transform="translate(0 8)"/>
</clipPath>
</defs>
<g clip-path="url(#clip0_1227_1733)">
<path d="M0 24.3853C0 24.8321 0.161957 25.1699 0.485813 25.3988C0.809683 25.6278 1.15589 25.7087 1.52443 25.6417C1.87062 25.5747 2.11353 25.4519 2.25317 25.2732C2.39275 25.0945 2.46257 24.7985 2.46257 24.3853V19.5273C2.46257 19.1811 2.34253 18.8879 2.1024 18.6478C1.86232 18.4077 1.56917 18.2876 1.22293 18.2876C0.887889 18.2876 0.600321 18.4077 0.360202 18.6478C0.120082 18.8879 0 19.181 0 19.5273V24.3853ZM3.85295 26.4626C3.85295 26.7865 3.96743 27.0294 4.19636 27.1913C4.42532 27.3533 4.7185 27.4342 5.07584 27.4342C5.44438 27.4342 5.74311 27.3532 5.97207 27.1913C6.201 27.0294 6.31549 26.7865 6.31549 26.4626V15.1383C6.31549 14.8032 6.1954 14.5157 5.95532 14.2756C5.7152 14.0355 5.42205 13.9154 5.07584 13.9154C4.74081 13.9154 4.4532 14.0355 4.21312 14.2756C3.97299 14.5157 3.85295 14.8032 3.85295 15.1383V26.4626ZM7.68915 26.9986C7.68915 27.3225 7.80641 27.5654 8.04094 27.7274C8.27546 27.8893 8.577 27.9703 8.94558 27.9703C9.30293 27.9703 9.59609 27.8893 9.82502 27.7274C10.054 27.5654 10.1685 27.3225 10.1685 26.9986V16.6627C10.1685 16.3165 10.0484 16.0205 9.8083 15.7748C9.56818 15.5292 9.28062 15.4063 8.94558 15.4063C8.59935 15.4063 8.30341 15.5292 8.05772 15.7748C7.81204 16.0205 7.68918 16.3165 7.68918 16.6627V26.9986H7.68915ZM11.5421 27.0489C11.5421 27.6632 11.9553 27.9703 12.7817 27.9703C13.6082 27.9703 14.0213 27.6632 14.0213 27.0489V10.297C14.0213 9.35886 13.7366 8.8284 13.167 8.70554C12.7985 8.61618 12.4355 8.72228 12.0781 9.02382C11.7207 9.32535 11.5421 9.74972 11.5421 10.297V27.0489H11.5421ZM15.4621 27.5347V9.30861C15.4621 8.72788 15.6352 8.38168 15.9814 8.26998C16.7296 8.0913 17.4723 8.00195 18.2094 8.00195C19.9181 8.00195 21.5095 8.404 22.9837 9.20809C24.4579 10.0122 25.6501 11.1094 26.5602 12.4998C27.4704 13.8903 27.9981 15.423 28.1433 17.0983C28.8245 16.8079 29.5504 16.6627 30.321 16.6627C31.8845 16.6627 33.2219 17.2155 34.3331 18.3212C35.4443 19.4268 36 20.7558 36 22.3082C36 23.8717 35.4443 25.2062 34.3331 26.3119C33.2219 27.4175 31.8901 27.9703 30.3378 27.9703L15.7636 27.9536C15.663 27.9201 15.5876 27.8586 15.5374 27.7693C15.4871 27.68 15.4621 27.6017 15.4621 27.5347Z" fill="url(#paint0_linear_1227_1733)"/>
</g>
</svg>
