<svg width="36" height="36" viewBox="0 0 36 36" fill="none" xmlns="http://www.w3.org/2000/svg">
<g clip-path="url(#clip0_1227_1766)">
<path d="M18 0C8.05855 0 0 8.05855 0 18C0 27.9415 8.05855 36 18 36C27.9415 36 36 27.9415 36 18C36 8.05977 27.9415 0.00122825 18 0ZM26.2551 25.9603C25.932 26.4909 25.2405 26.6567 24.7124 26.3337C20.486 23.7507 15.1652 23.1672 8.8999 24.5982C8.2956 24.7369 7.69376 24.3586 7.55619 23.7543C7.4174 23.1501 7.79447 22.5482 8.4 22.4106C15.2561 20.8446 21.1382 21.5189 25.8829 24.4176C26.4111 24.7431 26.5793 25.4321 26.2551 25.9603ZM28.4573 21.0608C28.0508 21.7216 27.1861 21.9279 26.5265 21.5226C21.6897 18.549 14.3128 17.688 8.59038 19.4248C7.84852 19.6495 7.06489 19.2307 6.83889 18.4901C6.61535 17.7482 7.03419 16.9658 7.77482 16.7398C14.3116 14.7562 22.4389 15.7167 27.9943 19.1312C28.6551 19.5378 28.8639 20.4012 28.4573 21.0608ZM28.6465 15.9562C22.8442 12.511 13.2737 12.1941 7.73429 13.8743C6.84504 14.1445 5.9042 13.6422 5.63521 12.7529C5.36622 11.8637 5.86735 10.9228 6.75783 10.6526C13.1165 8.72303 23.6856 9.09519 30.3648 13.06C31.1644 13.5353 31.4272 14.5683 30.9531 15.3666C30.4802 16.1674 29.4448 16.4315 28.6465 15.9562Z" fill="#2EBD59"/>
</g>
<defs>
<clipPath id="clip0_1227_1766">
<rect width="36" height="36" fill="white"/>
</clipPath>
</defs>
</svg>
