<svg width="48" height="48" viewBox="0 0 48 48" fill="none" xmlns="http://www.w3.org/2000/svg">
<path d="M8.94203 16.0647C9.01945 15.6001 9.01945 15.0969 9.09687 14.6324C9.48397 12.9679 10.142 11.3808 11.2259 10.0259C12.0001 9.0582 12.7743 8.05175 13.7033 7.27756C14.8259 6.38724 16.1033 5.65175 17.342 4.95498C19.084 3.94853 21.0969 3.79369 23.0324 3.67756C24.0388 3.63885 25.0453 3.90982 26.0517 4.10336C28.4517 4.52917 30.542 5.61304 32.3227 7.23885C34.5291 9.21304 35.9614 11.7292 36.6969 14.5937C37.084 15.9485 36.7743 16.8001 35.6517 17.1098C34.4517 17.4195 33.213 17.613 31.9743 17.7679C30.9678 17.884 29.9614 17.884 28.9549 17.9227C28.7227 17.9227 28.4517 17.884 28.1807 17.8453C27.8324 17.8066 27.4453 17.7292 27.0969 17.7292C26.6711 17.6905 26.2453 17.7292 25.6646 17.7292C25.6259 16.5679 25.5872 15.6001 25.5485 14.5937C25.5485 13.8195 25.6259 13.0453 25.5098 12.3098C25.4711 11.9614 25.0453 11.4582 24.7743 11.4195C24.2711 11.3421 23.9227 11.7679 23.9227 12.3485C23.9227 12.4259 23.9227 12.5034 23.9227 12.5421C23.9227 14.4001 23.9614 16.2582 23.9227 18.1163C23.884 19.5485 24.2711 19.6259 25.5098 19.7421C27.1356 19.8969 28.7614 19.7421 30.3872 19.7808C31.6646 19.8195 32.942 19.8195 34.1807 20.0518C35.342 20.284 36.3485 21.213 36.1936 22.2582C36.0775 23.0711 36.0001 23.884 35.7678 24.6195C35.3807 25.8195 34.9549 27.0195 34.413 28.1421C33.7549 29.613 33.0969 31.1227 32.2065 32.5163C30.3485 35.4195 28.413 38.2453 26.4001 41.0324C25.4711 42.3485 24.3098 43.5485 23.2646 44.7872C22.9936 45.0969 22.8001 45.0969 22.5291 44.7098C21.3291 43.0066 20.0904 41.3421 18.813 39.6776C17.342 37.7421 16.0259 35.6518 14.942 33.484C14.5549 32.6711 14.6324 32.5163 15.484 32.3227C16.1033 32.1679 16.7614 32.0518 17.4194 32.0518C18.8517 32.013 20.284 32.013 21.7162 32.0518C22.2969 32.0518 22.4904 32.4388 22.4517 32.9808C22.413 33.755 22.413 34.5679 22.4517 35.3421C22.4904 35.8453 22.684 36.3098 23.2646 36.4259C23.884 36.5421 24.1162 36.1163 24.2711 35.613C24.3485 35.3808 24.3872 35.1098 24.3872 34.8776C24.3872 33.6776 24.3872 32.5163 24.3872 31.3163C24.3872 30.0389 24.0001 29.6518 22.7227 29.6905C21.3291 29.7292 19.9743 29.8453 18.5807 29.884C17.342 29.9227 16.1033 29.9227 14.9033 29.884C14.3227 29.8453 13.6259 29.7679 13.1614 29.4582C12.5033 28.9937 11.884 28.3356 11.5356 27.6001C9.90977 24.4647 9.09687 21.0969 8.90332 17.5356" fill="#F0851D"/>
</svg>
