<svg width="36" height="36" viewBox="0 0 36 36" fill="none" xmlns="http://www.w3.org/2000/svg">
<defs>
<linearGradient id="paint0_linear_1411_1319" x1="17.977" y1="0.159001" x2="17.977" y2="36.046" gradientUnits="userSpaceOnUse">
<stop stop-color="#4C4C4C"/>
<stop offset="1" stop-color="#343434"/>
</linearGradient>
</defs>
<path fill-rule="evenodd" clip-rule="evenodd" d="M34.004 35.969L2.031 36C0.932001 36.001 0.032001 35.103 0.031001 34.004L8.34381e-07 2.031C-0.000999166 0.932001 0.897001 0.032001 1.996 0.031001L33.969 8.34381e-07C35.068 -0.000999166 35.968 0.897001 35.969 1.996L36 33.969C36.001 35.068 35.103 35.968 34.004 35.969Z" fill="url(#paint0_linear_1411_1319)"/>
<path fill-rule="evenodd" clip-rule="evenodd" d="M23.2078 14.6065C24.7838 15.7325 26.7148 16.3945 28.7998 16.3945V12.3835C28.4048 12.3835 28.0118 12.3425 27.6258 12.2605V15.4175C25.5408 15.4175 23.6108 14.7545 22.0338 13.6295V21.8135C22.0338 25.9075 18.7128 29.2265 14.6168 29.2265C13.0888 29.2265 11.6678 28.7645 10.4878 27.9725C11.8348 29.3485 13.7128 30.2025 15.7908 30.2025C19.8868 30.2025 23.2078 26.8835 23.2078 22.7895V14.6065ZM24.6568 10.5605C23.8518 9.68148 23.3228 8.54448 23.2078 7.28748V6.77148H22.0948C22.3748 8.36848 23.3308 9.73348 24.6568 10.5605ZM13.0788 24.8315C12.6288 24.2415 12.3858 23.5205 12.3868 22.7785C12.3868 20.9055 13.9058 19.3875 15.7798 19.3875C16.1288 19.3875 16.4758 19.4405 16.8088 19.5465V15.4465C16.4198 15.3935 16.0278 15.3705 15.6348 15.3785V18.5695C15.3018 18.4635 14.9548 18.4105 14.6048 18.4105C12.7308 18.4105 11.2118 19.9285 11.2118 21.8015C11.2128 23.1265 11.9718 24.2735 13.0788 24.8315Z" fill="#EC407A"/>
<path fill-rule="evenodd" clip-rule="evenodd" d="M22.034 13.6295C23.61 14.7555 25.541 15.4175 27.626 15.4175V12.2605C26.462 12.0125 25.432 11.4045 24.657 10.5595C23.331 9.73248 22.376 8.36848 22.096 6.77148H19.173V22.7895C19.166 24.6565 17.65 26.1685 15.78 26.1685C14.678 26.1685 13.699 25.6435 13.079 24.8305C11.972 24.2725 11.213 23.1255 11.213 21.8015C11.213 19.9285 12.732 18.4105 14.606 18.4105C14.965 18.4105 15.311 18.4665 15.636 18.5695V15.3795C11.612 15.4625 8.37598 18.7485 8.37598 22.7905C8.37598 24.8085 9.18198 26.6375 10.49 27.9735C11.67 28.7655 13.091 29.2275 14.619 29.2275C18.715 29.2275 22.036 25.9085 22.036 21.8145L22.034 13.6295Z" fill="white"/>
<path fill-rule="evenodd" clip-rule="evenodd" d="M27.6262 12.2619V11.4079C26.5762 11.4099 25.5482 11.1159 24.6572 10.5599C25.4452 11.4229 26.4832 12.0179 27.6262 12.2619ZM22.0952 6.77192C22.0682 6.61892 22.0482 6.46592 22.0342 6.31092V5.79492H17.9982V21.8139C17.9922 23.6809 16.4752 25.1929 14.6052 25.1929C14.0562 25.1929 13.5382 25.0629 13.0792 24.8309C13.6992 25.6439 14.6782 26.1689 15.7802 26.1689C17.6502 26.1689 19.1662 24.6569 19.1732 22.7899V6.77192H22.0952ZM15.6352 15.3799V14.4709C15.2982 14.4249 14.9582 14.4019 14.6172 14.4019C10.5202 14.4019 7.2002 17.7209 7.2002 21.8149C7.2002 24.3819 8.5052 26.6439 10.4882 27.9739C9.1802 26.6379 8.3742 24.8089 8.3742 22.7909C8.3742 18.7489 11.6112 15.4629 15.6352 15.3799Z" fill="#81D4FA"/>
</svg>
