<svg width="19" height="17" viewBox="0 0 19 17" fill="none" xmlns="http://www.w3.org/2000/svg">
<g clip-path="url(#clip0_940_2009)">
<path d="M18.508 3.2277C17.8404 3.50471 17.1233 3.69188 16.3694 3.77648C17.1385 3.34525 17.7285 2.66091 18.0067 1.84633C17.2872 2.24615 16.4902 2.53663 15.642 2.69236C14.9624 2.01556 13.995 1.5918 12.9238 1.5918C10.8676 1.5918 9.1999 3.15357 9.1999 5.08073C9.2 5.34781 9.23218 5.61403 9.29583 5.87437C6.19953 5.72835 3.45657 4.3395 1.61942 2.22968C1.29967 2.74628 1.11575 3.34525 1.11575 3.98313C1.11575 5.193 1.77374 6.26142 2.77223 6.8866C2.18086 6.86896 1.60253 6.71931 1.08538 6.4501V6.49502C1.08538 8.18481 2.36852 9.59463 4.07297 9.91509C3.75314 9.9959 3.42329 10.0367 3.09202 10.0364C2.85678 10.0365 2.62205 10.016 2.39092 9.97498C2.86499 11.3601 4.24007 12.3693 5.87017 12.3963C4.595 13.3321 2.98891 13.8899 1.24447 13.8899C0.943878 13.8899 0.647269 13.8734 0.355469 13.8412C2.00398 14.8318 3.96105 15.4083 6.06362 15.4083C12.915 15.4083 16.6605 10.094 16.6605 5.48502C16.6605 5.3353 16.6564 5.18403 16.6492 5.03431C17.3768 4.54165 18.0083 3.92848 18.5064 3.22994L18.508 3.2277Z" fill="#1DA1F2"/>
</g>
<defs>
<clipPath id="clip0_940_2009">
<rect width="18.1525" height="17" fill="white" transform="translate(0.355469)"/>
</clipPath>
</defs>
</svg>
