<svg width="33" height="28" viewBox="0 0 33 28" fill="none" xmlns="http://www.w3.org/2000/svg">
<g clip-path="url(#clip0_1227_1764)">
<path d="M32.9801 6.47824C32.8323 9.62871 30.5896 13.9436 26.2521 19.4215C21.7667 25.1409 17.9704 28.0019 14.8658 28.0019C12.9438 28.0019 11.3163 26.2573 9.98573 22.7667L7.32462 13.1686C6.33726 9.67674 5.2773 7.9321 4.14474 7.9321C3.8979 7.9321 3.03594 8.44096 1.55622 9.45866L0.00390625 7.49595C1.61694 6.10179 3.2181 4.69596 4.81002 3.27844C6.97878 1.43645 8.60501 0.466772 9.69005 0.370713C12.2535 0.127969 13.8309 1.84924 14.4222 5.53323C15.0624 9.50799 15.5073 11.9809 15.7528 12.9492C16.492 16.2451 17.3051 17.8937 18.1922 17.8937C18.8825 17.8937 19.9174 16.8266 21.2981 14.6939C22.6788 12.5611 23.418 10.9372 23.5157 9.82213C23.7124 7.98013 22.9732 7.05849 21.2981 7.05849C20.5101 7.05849 19.6956 7.22854 18.8588 7.56734C20.485 2.38016 23.591 -0.139438 28.1753 0.00594854C31.5756 0.103306 33.1768 2.26074 32.9801 6.47824Z" fill="#1AB7EA"/>
</g>
<defs>
<clipPath id="clip0_1227_1764">
<rect width="33" height="28" fill="white"/>
</clipPath>
</defs>
</svg>
