<svg width="19" height="18" viewBox="0 0 19 18" fill="none" xmlns="http://www.w3.org/2000/svg">
<defs>
<linearGradient id="paint0_linear_940_2519" x1="9.70716" y1="17.0013" x2="9.70716" y2="0.299833" gradientUnits="userSpaceOnUse">
<stop stop-color="#20B038"/>
<stop offset="1" stop-color="#60D66A"/>
</linearGradient>
<clipPath id="clip0_940_2519">
<rect width="18.6864" height="17.5" fill="white" transform="translate(0.364258)"/>
</clipPath>
</defs>
<g clip-path="url(#clip0_940_2519)">
<path d="M16.3282 2.54232C14.5714 0.903207 12.2355 2.34984e-05 9.74666 -0.000976562C4.61807 -0.000976562 0.444426 3.88923 0.442372 8.67085C0.441775 10.1993 0.870102 11.6913 1.68424 13.0065L0.364258 17.5003L5.29657 16.2944C6.65551 16.9855 8.18559 17.3496 9.74266 17.3502H9.74661H9.74666C14.8744 17.3502 19.0487 13.4593 19.0509 8.67788C19.0517 6.36048 18.0847 4.18155 16.3282 2.54232ZM9.74666 15.8855H9.74364C8.35575 15.8848 6.99474 15.5374 5.8076 14.8806L5.52509 14.7244L2.59815 15.4399L3.3796 12.7801L3.19553 12.5074C2.42136 11.3597 2.01266 10.0333 2.01324 8.67141C2.01494 4.69708 5.48391 1.46378 9.74958 1.46378C11.8152 1.46458 13.7567 2.21532 15.2169 3.5777C16.677 4.94007 17.4805 6.75115 17.4799 8.67727C17.478 12.6517 14.009 15.8855 9.74666 15.8855Z" fill="#E0E0E0"/>
<path d="M0.791016 17.0013L2.0507 12.7127C1.27355 11.4576 0.864871 10.0337 0.865361 8.57531C0.867399 4.0122 4.85043 0.299805 9.74433 0.299805C12.1196 0.300805 14.3489 1.16269 16.025 2.72697C17.7015 4.29123 18.6242 6.37049 18.6233 8.58178C18.6212 13.145 14.638 16.8577 9.74468 16.8577C9.74433 16.8577 9.74493 16.8577 9.74468 16.8577H9.74073C8.25479 16.8573 6.79471 16.5095 5.49793 15.8505L0.791016 17.0013Z" fill="url(#paint0_linear_940_2519)"/>
<path fill-rule="evenodd" clip-rule="evenodd" d="M7.44702 4.98951C7.27489 4.63268 7.09365 4.62553 6.92988 4.61929C6.79593 4.61393 6.64258 4.61426 6.48948 4.61426C6.33626 4.61426 6.08726 4.66795 5.8767 4.88236C5.66602 5.09678 5.07227 5.61511 5.07227 6.6693C5.07227 7.7236 5.89585 8.74231 6.01065 8.88539C6.12557 9.02825 7.60049 11.2608 9.93634 12.1196C11.8776 12.8334 12.2727 12.6914 12.694 12.6557C13.1154 12.62 14.0537 12.1375 14.2452 11.6371C14.4367 11.1369 14.4367 10.708 14.3793 10.6184C14.3218 10.5291 14.1686 10.4755 13.9388 10.3684C13.7089 10.2612 12.5791 9.7428 12.3684 9.67136C12.1578 9.59993 12.0045 9.56422 11.8513 9.77874C11.6981 9.99304 11.2579 10.4755 11.1238 10.6184C10.9898 10.7616 10.8557 10.7795 10.6259 10.6723C10.396 10.5648 9.65586 10.3388 8.77782 9.60885C8.09464 9.04096 7.6334 8.33957 7.49933 8.12506C7.36526 7.91076 7.48496 7.79468 7.60024 7.68786C7.70343 7.59187 7.83008 7.43773 7.945 7.31261C8.05968 7.18749 8.09798 7.0982 8.1746 6.95533C8.25121 6.81224 8.2129 6.68713 8.15544 6.57998C8.09798 6.47283 7.65136 5.4132 7.44702 4.98951Z" fill="white"/>
<path d="M16.2523 2.51509C14.5157 0.894788 12.2066 0.00199091 9.74636 0.000976562C4.67664 0.000976562 0.550928 3.84652 0.54889 8.57325C0.548292 10.0842 0.9717 11.559 1.77648 12.8591L0.47168 17.3014L5.34735 16.1093C6.69071 16.7924 8.20321 17.1523 9.7424 17.1529H9.74631H9.74636C14.8152 17.1529 18.9415 13.3067 18.9437 8.58017C18.9445 6.28941 17.9887 4.1355 16.2523 2.51509ZM9.74636 15.7051H9.74337C8.37141 15.7044 7.02601 15.3609 5.85252 14.7117L5.57324 14.5573L2.67992 15.2646L3.45239 12.6353L3.27043 12.3658C2.50515 11.2312 2.10114 9.9201 2.10174 8.57382C2.10341 4.64513 5.53254 1.44895 9.74924 1.44895C11.7912 1.44974 13.7104 2.19185 15.1538 3.53859C16.5971 4.88533 17.3913 6.67561 17.3907 8.57964C17.3889 12.5084 13.9597 15.7051 9.74636 15.7051Z" fill="white"/>
</g>
</svg>
