<svg width="23" height="15" viewBox="0 0 23 15" fill="none" xmlns="http://www.w3.org/2000/svg">
<g clip-path="url(#clip0_940_2015)">
<path d="M15.3944 7.28129C13.3384 6.23491 11.3697 5.27293 9.35742 4.26855V10.277C11.475 9.18068 13.707 8.1767 15.4031 7.28129H15.3944Z" fill="white"/>
<path d="M15.3944 7.28128C13.3384 6.23491 9.35742 4.26855 9.35742 4.26855L14.6651 7.666C14.6655 7.666 13.6982 8.1767 15.3944 7.28128Z" fill="#E8E0E0"/>
<path d="M9.7439 14.9806C5.47341 14.9057 4.01483 14.8384 3.1183 14.6625C2.51173 14.5456 1.98463 14.2861 1.59814 13.9097C1.29944 13.6248 1.06189 13.1902 0.877586 12.5872C0.719497 12.0848 0.657925 11.6668 0.570144 10.6458C0.435768 8.34145 0.403734 6.4575 0.570144 4.35248C0.707432 3.19002 0.773996 1.81004 1.68592 1.00496C2.11651 0.628166 2.6174 0.38569 3.17987 0.285451C4.05851 0.126573 7.8019 0.000976562 11.6772 0.000976562C15.5437 0.000976562 19.2954 0.126573 20.1749 0.285451C20.8776 0.411047 21.5365 0.78744 21.9234 1.27279C22.7555 2.51924 22.7701 4.06919 22.8545 5.28157C22.8895 5.85924 22.8895 9.13941 22.8545 9.71707C22.723 11.6331 22.6174 12.311 22.3187 13.0139C22.1339 13.4576 21.9763 13.6918 21.7034 13.9513C21.2753 14.3506 20.7297 14.6163 20.1391 14.7128C16.4436 14.9775 13.3055 15.0349 9.7439 14.9806ZM15.4031 7.28161C13.3471 6.23523 11.3785 5.26493 9.36615 4.26056V10.2694C11.4837 9.17308 13.7161 8.16871 15.4118 7.27329L15.4031 7.28161Z" fill="#CD201F"/>
</g>
<defs>
<clipPath id="clip0_940_2015">
<rect width="22.4237" height="15" fill="white" transform="translate(0.457031)"/>
</clipPath>
</defs>
</svg>
