<svg width="48" height="48" viewBox="0 0 48 48" fill="none" xmlns="http://www.w3.org/2000/svg">
<g clip-path="url(#clip0_1298_4839)">
<path d="M1.18368 0H46.8163C47.4701 0 48 0.52992 48 1.18368V46.8158C48 47.4696 47.4701 47.9995 46.8163 47.9995H1.18368C0.52992 48 0 47.4701 0 46.8163V1.18368C0 0.52992 0.52992 0 1.18368 0Z" fill="#E23744"/>
<path d="M9.37029 21.6408L9.33189 22.8585L6.15669 26.3107C7.48293 26.3107 8.32485 26.2973 8.80917 26.2704C8.66901 26.9261 8.55429 27.4613 8.43957 28.2638C7.80213 28.2105 6.80709 28.1971 5.81253 28.1971C4.70325 28.1971 3.73365 28.2105 2.95557 28.2638L2.98101 27.0331L6.15669 23.5944C4.76661 23.5944 4.25637 23.6078 3.68229 23.6213C3.80997 23.0059 3.89925 22.3233 3.98853 21.6408C4.99605 21.6811 5.39157 21.6941 6.70485 21.6941C7.91637 21.6945 8.60517 21.6811 9.37029 21.6408ZM11.6277 25.4592C11.6277 26.2757 11.8956 26.6904 12.3544 26.6904C12.9669 26.6904 13.4512 25.7006 13.4512 24.4963C13.4512 23.6669 13.1834 23.2656 12.737 23.2656C12.125 23.2651 11.6277 24.2414 11.6277 25.4592ZM15.798 24.3979C15.798 26.6189 14.2293 28.4654 12.1504 28.4654C10.2885 28.4654 9.33189 27.1944 9.33189 25.5355C9.33189 23.328 10.9135 21.4814 12.9794 21.4814C14.8668 21.4809 15.798 22.752 15.798 24.3979ZM40.7896 25.4592C40.7896 26.2757 41.0575 26.6904 41.5164 26.6904C42.1288 26.6904 42.6132 25.7006 42.6132 24.4963C42.6132 23.6669 42.3453 23.2656 41.8989 23.2656C41.2874 23.2651 40.7896 24.2414 40.7896 25.4592ZM45.0453 24.3509C45.0453 26.6011 43.456 28.4717 41.3498 28.4717C39.4634 28.4717 38.4943 27.1838 38.4943 25.5029C38.4943 23.2665 40.0965 21.3955 42.1898 21.3955C44.1016 21.396 45.0453 22.6838 45.0453 24.3509ZM26.5231 23.6347C26.6892 22.4971 26.5994 21.467 25.337 21.467C24.4188 21.467 23.4242 22.2432 22.7224 23.5406C22.8756 22.4702 22.7863 21.467 21.5364 21.467C20.5927 21.467 19.5722 22.283 18.8709 23.6347C19.0495 22.7515 19.0111 21.7483 18.9602 21.5337C18.2335 21.6542 17.5956 21.7209 16.7028 21.7478C16.7282 22.3632 16.6898 23.1662 16.5751 23.9285L16.2818 25.9353C16.1671 26.7245 16.0394 27.635 15.9122 28.2101H18.2844C18.2968 27.8621 18.3861 27.3134 18.45 26.8315L18.654 25.4534C18.8196 24.5568 19.5338 23.4998 20.0824 23.4998C20.4012 23.4998 20.3887 23.8075 20.2994 24.383L20.07 25.9349C19.9552 26.724 19.8276 27.6345 19.7004 28.2096H22.098C22.1109 27.8616 22.1872 27.3129 22.2511 26.831L22.4551 25.4529C22.6207 24.5563 23.3349 23.4993 23.8836 23.4993C24.2028 23.4993 24.1898 23.7936 24.1384 24.1949L23.5658 28.2086H25.7536L26.5231 23.6347ZM37.9797 26.3237L37.7248 27.9029C37.3293 28.1169 36.5896 28.4246 35.7352 28.4246C34.2813 28.4246 33.988 27.6489 34.2175 26.003L34.5871 23.3539H33.8719L34.0744 21.6393L34.8554 21.6014L35.1487 20.3568L37.3548 19.5273L37.0744 21.6014H38.5922C38.5408 21.8155 38.3628 22.9929 38.3114 23.3539H36.832L36.5004 25.8024C36.4111 26.4312 36.4624 26.6587 36.8959 26.6587C37.2146 26.6582 37.6864 26.471 37.9797 26.3237ZM29.6124 27.0749C30.4149 26.9765 30.9674 26.2022 31.1004 25.4299L31.1229 25.223C30.7778 25.1453 30.2796 25.0867 29.7957 25.1462C29.3354 25.2029 28.9519 25.3939 28.746 25.6713C28.5909 25.8701 28.5122 26.1081 28.5468 26.3913C28.5991 26.8166 29.0695 27.1411 29.6124 27.0749ZM28.9284 28.2984C27.7956 28.4376 27.0492 27.9878 26.825 26.9645C26.6839 26.3208 26.8792 25.5878 27.221 25.1501C27.678 24.5779 28.4234 24.2102 29.332 24.0989C30.0636 24.0091 30.6799 24.0533 31.2564 24.1627L31.2804 24.0638C31.2967 23.9059 31.313 23.748 31.29 23.5584C31.2304 23.0741 30.8474 22.7846 29.9037 22.9008C29.2663 22.979 28.66 23.2094 28.1892 23.4715L27.7317 22.0877C28.3692 21.7214 29.1736 21.4425 30.0943 21.3297C31.8525 21.1137 33.0876 21.6749 33.246 22.9632C33.2882 23.3059 33.293 23.6697 33.2498 23.999C33.0237 25.5926 32.8792 26.7917 32.8159 27.5961C32.8063 27.72 32.8068 27.9336 32.8183 28.2374L30.6367 28.2355C30.6828 28.1093 30.7245 27.9398 30.7615 27.7262C30.786 27.5856 30.8032 27.408 30.8148 27.1934C30.352 27.8251 29.7189 28.2014 28.9284 28.2984Z" fill="white"/>
</g>
<defs>
<clipPath id="clip0_1298_4839">
<rect width="48" height="48" fill="white"/>
</clipPath>
</defs>
</svg>
