<svg width="27" height="26" viewBox="0 0 27 26" fill="none" xmlns="http://www.w3.org/2000/svg">
<path d="M9.43357 20.4394C9.86032 21.0009 10.1074 21.6972 10.1074 22.4609C10.1074 24.3251 8.60251 25.83 6.73826 25.83C4.87401 25.83 3.36913 24.3251 3.36913 22.4609C3.36913 20.5966 4.87401 19.0917 6.73826 19.0917C7.2324 19.0917 7.69285 19.1928 8.11961 19.3837L9.7031 17.3959C9.20567 16.8385 8.83791 16.1777 8.62626 15.4612C8.4146 14.7447 8.3643 13.9902 8.47898 13.2519L6.1992 12.4882C5.80641 13.1009 5.22563 13.5697 4.54391 13.8245C3.86219 14.0792 3.11627 14.1062 2.41796 13.9012C1.71965 13.6963 1.10658 13.2705 0.670645 12.6878C0.234713 12.105 -0.000593287 11.3967 1.1234e-06 10.6689C1.1234e-06 8.80466 1.50488 7.29978 3.36913 7.29978C5.23338 7.29978 6.73826 8.80466 6.73826 10.6689C6.73826 10.7475 6.73826 10.8261 6.72703 10.9048L9.00681 11.6684C9.36811 10.9849 9.88246 10.3941 10.5097 9.94214C11.137 9.49019 11.8603 9.1893 12.623 9.06296V6.63719C11.9026 6.44499 11.2657 6.02062 10.8109 5.42981C10.3562 4.83899 10.1089 4.11471 10.1074 3.36913C10.1074 1.50488 11.6123 0 13.4765 0C15.3408 0 16.8457 1.50488 16.8457 3.36913C16.8457 4.94139 15.7675 6.25535 14.3188 6.63719V9.06296C15.8911 9.32126 17.2163 10.3095 17.935 11.6684L20.2148 10.9048V10.6689C20.2148 8.80466 21.7197 7.29978 23.5839 7.29978C25.4482 7.29978 26.953 8.80466 26.953 10.6689C26.953 12.5332 25.4482 14.038 23.5839 14.038C22.3935 14.038 21.3603 13.4204 20.7538 12.4995L18.4741 13.2631C18.5899 14.0014 18.5401 14.7562 18.3284 15.4729C18.1167 16.1896 17.7483 16.8503 17.2499 17.4072L18.8334 19.395C19.2602 19.1928 19.7206 19.0917 20.2148 19.0917C22.079 19.0917 23.5839 20.5966 23.5839 22.4609C23.5839 24.3251 22.079 25.83 20.2148 25.83C18.3505 25.83 16.8457 24.3251 16.8457 22.4609C16.8457 21.6972 17.0927 21.0009 17.5195 20.4394L15.936 18.4516C14.4199 19.2939 12.5556 19.3051 11.0283 18.4516L9.43357 20.4394Z" fill="#59A4FF"/>
</svg>
