<svg width="33" height="51" viewBox="0 0 33 51" fill="none" xmlns="http://www.w3.org/2000/svg">
<path d="M30.0864 50.5005C29.7775 50.5005 29.4501 50.4358 29.1135 50.297L8.82032 42.1351C6.27964 41.1125 4.31072 39.6967 2.97352 37.9292C1.66399 36.208 1 34.2184 1 32.016V17.0711C1 14.133 3.77584 11.3985 8.82032 9.36733L29.1181 1.20084C29.8697 0.900094 30.589 0.937109 31.1423 1.31189C31.6957 1.68667 32 2.34369 32 3.15802V15.3129C32 16.0763 31.7279 16.8999 31.2346 17.631C30.7412 18.362 30.0818 18.9219 29.3763 19.2041L13.1086 25.7512L29.3717 32.2937C30.0772 32.5759 30.7412 33.1358 31.23 33.8668C31.7233 34.5979 31.9954 35.4214 31.9954 36.1849V48.3398C31.9954 49.1541 31.6911 49.8111 31.1377 50.1859C30.8334 50.3987 30.4737 50.5005 30.0864 50.5005ZM30.0864 1.69592C29.8651 1.69592 29.6253 1.74682 29.3763 1.84861L9.07854 10.0105C6.64391 10.9914 4.76261 12.125 3.48996 13.3881C2.2957 14.5726 1.69166 15.808 1.69166 17.0711V32.0207C1.69166 36.2173 4.31533 39.581 9.07854 41.4966L29.3763 49.6584C29.9112 49.8713 30.4 49.8574 30.755 49.6168C31.1101 49.3762 31.3083 48.9228 31.3083 48.349V36.1849C31.3083 34.8801 30.3262 33.4226 29.1181 32.9368L11.2503 25.7512L29.1181 18.5656C30.3262 18.0798 31.3083 16.6223 31.3083 15.3175V3.15802C31.3083 2.57966 31.1101 2.13085 30.755 1.89025C30.566 1.7607 30.3354 1.69592 30.0864 1.69592Z" fill="#222222" stroke="#222222" stroke-width="0.5"/>
<path d="M9.10205 9.38429C1.04263 12.5403 0.502054 16.9455 1.2392 18.7536C2.46776 22.1068 7.51737 25.0512 10.5683 26.0169C15.9331 23.7773 28.2186 19.0494 29.0049 18.7536C29.7912 18.4577 30.8068 16.8633 31.2163 16.103V2.60389C31.2163 2.01215 30.2744 1.53547 29.8035 1.37109C26.2611 2.72717 17.1615 6.22832 9.10205 9.38429Z" fill="black"/>
</svg>
