<svg width="21" height="36" viewBox="0 0 21 36" fill="none" xmlns="http://www.w3.org/2000/svg">
<path d="M19.1387 35.9961C18.9354 35.9961 18.72 35.949 18.4985 35.8481L5.14573 29.9123C3.47398 29.1687 2.17844 28.139 1.29857 26.8536C0.436901 25.6018 0 24.1549 0 22.5532L0 11.6844H0.455106C0.455106 12.5997 0.852565 13.5015 1.63838 14.3629C2.47578 15.2815 3.71366 16.1093 5.31564 16.8193L18.6715 22.7551C19.1357 22.9603 19.5696 23.3675 19.8942 23.8991C20.2188 24.4308 20.3978 25.0298 20.3978 25.585V34.4247C20.3978 35.0169 20.1976 35.4948 19.8335 35.7673C19.6302 35.9221 19.3936 35.9961 19.1387 35.9961ZM0.455106 13.5015L0.455106 22.5532C0.455106 25.6052 2.18147 28.0515 5.31564 29.4446L18.6715 35.3803C19.0234 35.5351 19.345 35.525 19.5787 35.3501C19.8123 35.1751 19.9427 34.8453 19.9427 34.4281V25.585C19.9427 24.6361 19.2965 23.5761 18.5016 23.2228L5.14573 17.287C2.79132 16.2405 1.18934 14.9349 0.455106 13.5015Z" fill="white"/>
<path d="M7.35755 18.2732L5.14573 17.2906C1.82649 15.8167 0 13.8247 0 11.6879C0 9.55116 1.82649 7.56246 5.14573 6.08524L18.5016 0.146065C18.9961 -0.072658 19.4694 -0.0457383 19.8335 0.226824C20.1976 0.499387 20.3978 0.977213 20.3978 1.56945V10.4092C20.3978 10.9644 20.2188 11.5634 19.8942 12.0951C19.5696 12.6267 19.1357 13.0339 18.6715 13.2392L7.35755 18.2732ZM19.1387 0.506117C18.9931 0.506117 18.8353 0.543132 18.6715 0.617161L5.31564 6.55297C3.71366 7.26634 2.47578 8.09076 1.63838 9.0094C0.852565 9.87083 0.455106 10.7693 0.455106 11.6879C0.455106 12.6032 0.852565 13.505 1.63838 14.3664C2.47578 15.2851 3.71366 16.1129 5.31564 16.8229L7.35755 17.7314L18.5016 12.7782C19.2965 12.4248 19.9427 11.3649 19.9427 10.416V1.56945C19.9427 1.14883 19.8123 0.822424 19.5787 0.647446C19.4543 0.553227 19.3026 0.506117 19.1387 0.506117Z" fill="white"/>
<path d="M19.1387 36C18.9355 36 18.72 35.9529 18.4985 35.8519L5.14573 29.9161C3.47398 29.1724 2.17844 28.1427 1.29857 26.8573C0.436902 25.6055 0 24.1586 0 22.5569L0 11.688C0 9.55119 1.82649 7.56249 5.14573 6.08526L18.5016 0.146066C18.9961 -0.0726583 19.4694 -0.0457384 19.8335 0.226825C20.1976 0.499389 20.3979 0.977217 20.3979 1.56945V10.4093C20.3979 10.9645 20.2188 11.5635 19.8942 12.0951C19.5696 12.6268 19.1357 13.034 18.6715 13.2392L7.96739 18.0007L18.6685 22.7588C19.1327 22.964 19.5696 23.3712 19.8912 23.9028C20.2158 24.4345 20.3948 25.0335 20.3948 25.5887V34.4285C20.3948 35.0208 20.1946 35.4986 19.8305 35.7711C19.6302 35.9259 19.3936 36 19.1387 36ZM19.1387 0.506119C18.9931 0.506119 18.8353 0.543134 18.6715 0.617163L5.31564 6.55299C3.71367 7.26637 2.47578 8.09079 1.63838 9.00943C0.852566 9.87087 0.455106 10.7693 0.455106 11.688L0.455106 22.5602C0.455106 25.6123 2.18148 28.0586 5.31564 29.4517L18.6715 35.3875C19.0234 35.5423 19.345 35.5322 19.5787 35.3573C19.8123 35.1823 19.9428 34.8525 19.9428 34.4352V25.5887C19.9428 24.6398 19.2965 23.5798 18.5016 23.2265L6.74467 18.0007L18.5016 12.7748C19.2965 12.4215 19.9428 11.3616 19.9428 10.4126V1.56945C19.9428 1.14883 19.8123 0.822427 19.5787 0.647448C19.4543 0.553229 19.3026 0.506119 19.1387 0.506119Z" fill="white"/>
<path d="M5.61529 6.09974C0.312227 8.39498 -0.0434662 11.5988 0.44157 12.9137C1.24996 15.3524 5.46708 17.3667 7.4746 18.0691C11.0046 16.4403 18.1939 13.1289 18.7113 12.9137C19.2286 12.6986 19.8969 11.539 20.1664 10.9861V1.16855C20.1664 0.738194 19.5466 0.391517 19.2367 0.271973C16.9058 1.25821 10.9183 3.80449 5.61529 6.09974Z" fill="white"/>
</svg>
