<svg width="36" height="36" viewBox="0 0 36 36" fill="none" xmlns="http://www.w3.org/2000/svg">
<g clip-path="url(#clip0_1227_1665)">
<path d="M14.5295 16.2826C14.5295 16.2826 17.9357 16.0275 17.9357 11.9974C17.9357 7.96692 15.149 6 11.6191 6H0.00341797V28.5226H11.6191C11.6191 28.5226 18.71 28.7486 18.71 21.875C18.71 21.875 19.0192 16.2826 14.5295 16.2826ZM10.783 10.0031H11.6191C11.6191 10.0031 13.198 10.0031 13.198 12.3465C13.198 14.6896 12.2694 15.0293 11.2162 15.0293H5.12143V10.0031H10.783ZM11.2909 24.5196H5.12143V18.5007H11.6191C11.6191 18.5007 13.9724 18.4696 13.9724 21.5938C13.9724 24.2282 12.2147 24.4997 11.2909 24.5196ZM28.167 11.7304C19.5827 11.7304 19.5903 20.3843 19.5903 20.3843C19.5903 20.3843 19.0013 28.9937 28.167 28.9937C28.167 28.9937 35.8051 29.434 35.8051 23.0046H31.8769C31.8769 23.0046 32.0079 25.4258 28.298 25.4258C28.298 25.4258 24.3693 25.6915 24.3693 21.5074H35.9361C35.9361 21.5073 37.2017 11.7304 28.167 11.7304ZM24.3261 18.5007C24.3261 18.5007 24.8058 15.0293 28.2543 15.0293C31.7021 15.0293 31.6589 18.5007 31.6589 18.5007H24.3261ZM32.574 10.1004H23.3644V7.32687H32.574V10.1004Z" fill="black"/>
</g>
<defs>
<clipPath id="clip0_1227_1665">
<rect width="36" height="23" fill="white" transform="translate(0 6)"/>
</clipPath>
</defs>
</svg>
