<svg width="34" height="48" viewBox="0 0 34 48" fill="none" xmlns="http://www.w3.org/2000/svg">
<g clip-path="url(#clip0_1298_4932)">
<path d="M29.6897 11.1656L29.6568 11.1463L29.5806 11.123C29.6112 11.1489 29.6496 11.1639 29.6897 11.1656Z" fill="#0D0C22"/>
<path d="M30.1696 14.5957L30.1328 14.606L30.1696 14.5957Z" fill="#0D0C22"/>
<path d="M29.7039 11.1595C29.6992 11.1589 29.6946 11.1578 29.6901 11.1562C29.6899 11.1593 29.6899 11.1624 29.6901 11.1654C29.6952 11.1647 29.6999 11.1627 29.7039 11.1595Z" fill="#0D0C22"/>
<path d="M29.6899 11.1652H29.6949V11.1621L29.6899 11.1652Z" fill="#0D0C22"/>
<path d="M30.1401 14.5887L30.1957 14.557L30.2164 14.5454L30.2351 14.5254C30.1998 14.5406 30.1677 14.562 30.1401 14.5887Z" fill="#0D0C22"/>
<path d="M29.7859 11.2396L29.7316 11.188L29.6948 11.168C29.7146 11.2029 29.7473 11.2286 29.7859 11.2396Z" fill="#0D0C22"/>
<path d="M16.1383 44.5156C16.0949 44.5344 16.057 44.5637 16.0278 44.6008L16.0621 44.579C16.0853 44.5577 16.1182 44.5325 16.1383 44.5156Z" fill="#0D0C22"/>
<path d="M24.0634 42.9572C24.0634 42.9084 24.0396 42.9174 24.0453 43.0916C24.0453 43.0777 24.0512 43.0634 24.0537 43.0499C24.057 43.0188 24.0596 42.9884 24.0634 42.9572Z" fill="#0D0C22"/>
<path d="M23.2413 44.5156C23.1979 44.5344 23.16 44.5637 23.1309 44.6008L23.1651 44.579C23.1883 44.5577 23.2213 44.5325 23.2413 44.5156Z" fill="#0D0C22"/>
<path d="M10.5571 44.8865C10.5242 44.8579 10.484 44.8392 10.4409 44.832C10.4758 44.8489 10.5106 44.8658 10.5339 44.8786L10.5571 44.8865Z" fill="#0D0C22"/>
<path d="M9.30123 43.6835C9.29609 43.6329 9.28048 43.5837 9.25537 43.5391C9.27316 43.5852 9.28802 43.6329 9.29992 43.6809L9.30123 43.6835Z" fill="#0D0C22"/>
<path d="M17.7373 22.1735C16.0131 22.9116 14.0565 23.7485 11.5206 23.7485C10.4598 23.7464 9.40413 23.6009 8.38232 23.3159L10.1362 41.3226C10.1983 42.0751 10.5411 42.7769 11.0967 43.2884C11.6522 43.8 12.3798 44.0837 13.135 44.0837C13.135 44.0837 15.6218 44.2128 16.4516 44.2128C17.3446 44.2128 20.0225 44.0837 20.0225 44.0837C20.7776 44.0837 21.5051 43.7996 22.0605 43.2881C22.6159 42.7765 22.9587 42.0751 23.0207 41.3226L24.8992 21.4245C24.0597 21.1378 23.2125 20.9473 22.2575 20.9473C20.6057 20.9466 19.2748 21.5155 17.7373 22.1735Z" fill="#FFDD00"/>
<path d="M2.95312 14.4922L2.98283 14.52L3.0022 14.5316C2.98728 14.5168 2.97083 14.5036 2.95312 14.4922Z" fill="#0D0C22"/>
<path d="M33.0095 12.8294L32.7455 11.4972C32.5085 10.3019 31.9705 9.1725 30.7436 8.7405C30.3504 8.60228 29.9041 8.54291 29.6026 8.25683C29.3011 7.97078 29.2119 7.52651 29.1422 7.11451C29.013 6.35833 28.8916 5.60151 28.7592 4.84665C28.645 4.19765 28.5546 3.46862 28.2569 2.87324C27.8694 2.07381 27.0655 1.60629 26.266 1.29698C25.8564 1.14406 25.4383 1.0147 25.0139 0.909531C23.0166 0.3826 20.9167 0.188876 18.8619 0.0784539C16.3956 -0.0576364 13.9227 -0.0166343 11.4623 0.201145C9.63096 0.367748 7.7021 0.569222 5.96183 1.2027C5.32579 1.43452 4.67034 1.71283 4.1867 2.20425C3.59324 2.80802 3.39951 3.74177 3.83279 4.4947C4.14083 5.02938 4.6626 5.40715 5.21601 5.65706C5.93684 5.97906 6.68964 6.22409 7.46192 6.38805C9.61223 6.86332 11.8394 7.04992 14.0362 7.12937C16.4711 7.22762 18.9099 7.14798 21.3332 6.89106C21.9324 6.82519 22.5306 6.7462 23.1277 6.6541C23.8309 6.54624 24.2823 5.6267 24.075 4.98611C23.827 4.22028 23.1606 3.92324 22.4071 4.03883C22.296 4.05624 22.1856 4.07238 22.0745 4.08852L21.9944 4.10015C21.7391 4.13247 21.4838 4.16256 21.2286 4.19056C20.7012 4.24738 20.1726 4.29388 19.6426 4.33006C18.4557 4.4127 17.2656 4.45079 16.0762 4.45274C14.9074 4.45274 13.7379 4.41979 12.5717 4.34297C12.0396 4.3081 11.5088 4.26374 10.9793 4.20993C10.7384 4.18474 10.4982 4.15829 10.258 4.12856L10.0294 4.09952L9.97968 4.09242L9.74269 4.0582C9.25837 3.9852 8.77405 3.90129 8.29492 3.79988C8.24658 3.78915 8.20331 3.76228 8.17231 3.72363C8.14131 3.68501 8.12442 3.63696 8.12442 3.58744C8.12442 3.53791 8.14131 3.48987 8.17231 3.45124C8.20331 3.41261 8.24658 3.38572 8.29492 3.37499H8.30396C8.71919 3.28652 9.1376 3.21097 9.55733 3.1451C9.69728 3.12315 9.8376 3.10162 9.97837 3.08053H9.98223C10.2451 3.06309 10.5092 3.01595 10.7707 2.98495C13.0461 2.74828 15.335 2.66759 17.6214 2.74345C18.7314 2.77574 19.8408 2.84095 20.9457 2.95331C21.1833 2.97785 21.4197 3.00369 21.656 3.03274C21.7464 3.04372 21.8375 3.05663 21.9286 3.06761L22.1119 3.09409C22.6466 3.17373 23.1785 3.27038 23.7076 3.38403C24.4915 3.55451 25.4982 3.61004 25.8469 4.46888C25.958 4.74138 26.0084 5.04424 26.0697 5.33029L26.1478 5.69515C26.1499 5.70168 26.1514 5.7084 26.1524 5.71515C26.3371 6.57615 26.522 7.43715 26.7071 8.29815C26.7206 8.36176 26.7209 8.42747 26.708 8.4912C26.6951 8.55496 26.6691 8.61531 26.6318 8.6686C26.5945 8.72185 26.5465 8.76685 26.4911 8.80078C26.4356 8.8347 26.3737 8.85681 26.3093 8.86578H26.3041L26.1911 8.88128L26.0794 8.8961C25.7255 8.94219 25.3712 8.98523 25.0165 9.02528C24.3178 9.10491 23.618 9.17378 22.9172 9.23191C21.5245 9.34769 20.1291 9.42369 18.7308 9.45987C18.0184 9.47878 17.3061 9.48764 16.594 9.48632C13.7599 9.48411 10.9281 9.31936 8.11283 8.99296C7.80801 8.95682 7.50324 8.91805 7.19842 8.87869C7.43478 8.90905 7.02665 8.85542 6.94401 8.84382C6.75029 8.81669 6.55656 8.7885 6.36283 8.75923C5.71256 8.66169 5.0662 8.5416 4.4172 8.43633C3.63263 8.30719 2.88227 8.37178 2.17259 8.75923C1.59006 9.078 1.11858 9.56682 0.821051 10.1605C0.514966 10.7933 0.423916 11.4823 0.287019 12.1623C0.150121 12.8423 -0.0629761 13.5739 0.017742 14.2719C0.191448 15.7785 1.24466 17.0028 2.75958 17.2766C4.18474 17.5349 5.61765 17.7441 7.05442 17.9224C12.6985 18.6136 18.4004 18.6963 24.0621 18.169C24.5232 18.126 24.9836 18.0791 25.4433 18.0283C25.587 18.0125 25.7323 18.029 25.8687 18.0767C26.005 18.1243 26.129 18.2019 26.2316 18.3037C26.3341 18.4055 26.4125 18.5289 26.4612 18.6649C26.5098 18.801 26.5274 18.9462 26.5127 19.0899L26.3693 20.4834C26.0805 23.2993 25.7916 26.1149 25.5027 28.9304C25.2014 31.8871 24.8981 34.8435 24.5929 37.7995C24.5068 38.6323 24.4207 39.4647 24.3346 40.2967C24.2519 41.1164 24.2403 41.9615 24.0847 42.7714C23.8393 44.0448 22.9772 44.8269 21.7193 45.1129C20.5669 45.3752 19.3896 45.5129 18.2078 45.5234C16.8975 45.5306 15.588 45.4724 14.2778 45.4795C12.879 45.4874 11.1659 45.3583 10.0862 44.3172C9.1376 43.403 9.00651 41.9713 8.87737 40.7332C8.70519 39.0943 8.5345 37.4557 8.36528 35.8173L7.41606 26.7064L6.80196 20.8114C6.79161 20.7139 6.78128 20.6177 6.7716 20.5195C6.69797 19.8163 6.20011 19.128 5.41552 19.1635C4.74397 19.1932 3.9807 19.764 4.05947 20.5195L4.5147 24.89L5.4562 33.9304C5.72442 36.4983 5.99197 39.0665 6.25888 41.6354C6.31055 42.1274 6.35897 42.6209 6.4132 43.1129C6.70833 45.8019 8.76178 47.2509 11.3047 47.6589C12.79 47.8979 14.3113 47.9471 15.8185 47.9715C17.7506 48.0026 19.702 48.0769 21.6024 47.7268C24.4186 47.21 26.5314 45.3298 26.833 42.413C26.9191 41.5709 27.0052 40.7287 27.0913 39.8862C27.3776 37.0999 27.6634 34.3135 27.9488 31.5269L28.8826 22.4219L29.3107 18.2491C29.332 18.0422 29.4194 17.8476 29.5599 17.6942C29.7004 17.5409 29.8865 17.4368 30.0908 17.3974C30.896 17.2404 31.6658 16.9724 32.2385 16.3596C33.1503 15.3839 33.3318 14.1118 33.0095 12.8294ZM2.71825 13.7295C2.73052 13.7237 2.70792 13.829 2.69823 13.878C2.6963 13.8038 2.70017 13.7379 2.71825 13.7295ZM2.79639 14.3339C2.80285 14.3294 2.82222 14.3553 2.84223 14.3863C2.81188 14.3578 2.79252 14.3365 2.79574 14.3339H2.79639ZM2.87323 14.4353C2.901 14.4825 2.91585 14.5122 2.87323 14.4353V14.4353ZM3.02756 14.5606H3.03144C3.03144 14.5651 3.03854 14.5696 3.04112 14.5742C3.03684 14.5692 3.03209 14.5646 3.02692 14.5606H3.02756ZM30.0533 14.3733C29.7641 14.6484 29.3281 14.7763 28.8974 14.8402C24.0672 15.557 19.1667 15.9199 14.2835 15.7598C10.7888 15.6403 7.33083 15.2522 3.87092 14.7634C3.53189 14.7156 3.16446 14.6536 2.93135 14.4037C2.49224 13.9323 2.70792 12.983 2.82222 12.4135C2.92683 11.8917 3.12701 11.1963 3.74757 11.122C4.7162 11.0084 5.84106 11.4171 6.79937 11.5624C7.9531 11.7385 9.11114 11.8795 10.2735 11.9854C15.2341 12.4374 20.278 12.367 25.2167 11.7058C26.1168 11.5848 27.0138 11.4442 27.9075 11.2841C28.7037 11.1414 29.5865 10.8734 30.0675 11.698C30.3975 12.2598 30.4414 13.0115 30.3904 13.6462C30.3747 13.9228 30.2538 14.1829 30.0527 14.3733H30.0533Z" fill="#0D0C22"/>
</g>
<defs>
<clipPath id="clip0_1298_4932">
<rect width="33.1759" height="48" fill="white"/>
</clipPath>
</defs>
</svg>
