<svg width="38" height="7" viewBox="0 0 38 7" fill="none" xmlns="http://www.w3.org/2000/svg">
<path d="M35.8816 4.39067C35.7367 4.4561 35.6806 4.41404 35.6806 4.16165C35.6806 3.63819 35.8535 3.3858 36.1199 3.3858C36.4237 3.3858 36.6013 3.73634 36.6013 3.98405C36.6013 4.03546 36.5733 4.06818 36.5078 4.10089L35.8816 4.39067ZM18.0042 4.32056C18.0042 3.97003 18.0603 3.43721 18.4576 3.43721C18.9624 3.43721 19.0886 4.46545 19.0886 4.85805C19.0886 5.25065 19.0231 5.73673 18.6305 5.73673C18.1351 5.73673 18.0042 4.70849 18.0042 4.32056ZM25.2019 4.23176C25.2019 3.94198 25.258 3.32504 25.6553 3.32504C26.16 3.32504 26.2862 4.37197 26.2862 4.77392C26.2862 5.05902 26.2208 5.67129 25.8282 5.67129C25.3328 5.67597 25.2019 4.62903 25.2019 4.23176ZM9.96997 2.60995C8.96977 2.60995 8.11914 3.40917 8.11914 4.60566C8.11914 5.67597 8.85293 6.41443 9.82975 6.41443C10.8066 6.41443 11.489 5.68064 11.489 5.28804C11.489 5.15717 11.4188 5.03098 11.274 5.03098C11.1945 5.03098 11.1151 5.07305 10.9889 5.17587C10.7785 5.33478 10.5635 5.42825 10.3205 5.42825C9.67552 5.42825 9.28759 4.77392 9.28759 4.11491C9.28759 3.50265 9.46052 3.21754 9.7316 3.21754C9.97464 3.21754 10.1429 3.44656 10.3299 4.0635C10.3953 4.2785 10.4654 4.3673 10.5822 4.3673C10.8253 4.3673 11.4235 3.89525 11.4235 3.56341C11.4235 3.3858 11.2786 3.1895 11.073 3.0119C10.8113 2.79223 10.4514 2.60995 9.96997 2.60995ZM25.6319 6.4191C26.7863 6.4191 27.5622 5.61521 27.5622 4.43741C27.5622 3.32504 26.9032 2.60528 25.8749 2.60528C24.7065 2.60528 23.9306 3.40917 23.9306 4.59632C23.9306 5.70401 24.585 6.4191 25.6319 6.4191ZM31.1704 5.53575C30.9974 5.53575 30.946 5.3488 30.946 5.18522V3.02124C30.946 2.72212 30.8292 2.60995 30.6656 2.60995C30.5721 2.60995 30.4646 2.63799 30.3478 2.6894L29.7355 2.95581C29.4831 3.06331 29.413 3.16613 29.413 3.30167C29.413 3.3858 29.4644 3.4746 29.6 3.55406C29.7075 3.62416 29.7495 3.70362 29.7495 4.01209V4.8674C29.7495 5.25532 29.4691 5.33945 29.2915 5.33945C29.0391 5.33945 28.9269 5.18989 28.9269 4.81599L28.941 3.02124C28.941 2.71745 28.8241 2.60995 28.6605 2.60995C28.567 2.60995 28.4596 2.63799 28.3427 2.6894L27.7538 2.94646C27.5014 3.05396 27.4313 3.15678 27.4313 3.29232C27.4313 3.37645 27.4827 3.46526 27.6183 3.54471C27.7258 3.61482 27.7678 3.69427 27.7678 4.00274C27.7678 4.53556 27.7258 5.05902 27.7258 5.49836C27.7258 6.03585 28.0716 6.4191 28.5811 6.4191C28.9176 6.4191 29.2261 6.24617 29.6 5.97976C29.6514 5.94237 29.7028 5.92368 29.7448 5.92368C29.8103 5.92368 29.8477 5.97509 29.8804 6.15269C29.9178 6.33965 29.9972 6.4191 30.1328 6.4191C30.2169 6.4191 30.3337 6.39106 30.4412 6.33965L31.0675 6.05454C31.2171 5.98444 31.2966 5.96107 31.3713 5.96107C31.4648 5.96107 31.5069 6.00313 31.5302 6.09661L31.5536 6.19476C31.5957 6.40508 31.7032 6.47519 31.834 6.47519C32.0303 6.47519 32.1565 6.23682 32.278 6.23682C32.3622 6.23682 32.4276 6.28824 32.6239 6.33965C32.8015 6.39106 33.0118 6.4191 33.2128 6.4191C33.9326 6.4191 34.456 6.05922 34.5776 5.57314C34.6009 5.48901 34.6196 5.46564 34.6477 5.46564C34.6757 5.46564 34.6991 5.47032 34.7411 5.55912C34.9982 6.06857 35.5404 6.4191 36.204 6.4191C37.2743 6.4191 37.9334 5.69466 37.9334 5.2413C37.9334 5.10576 37.8539 4.99826 37.723 4.99826C37.6529 4.99826 37.5875 5.02631 37.452 5.14315C37.1996 5.34413 36.9145 5.46097 36.6247 5.46097C36.1199 5.46097 35.8862 5.11511 35.8862 4.99359C35.8862 4.92816 35.9143 4.89544 35.9563 4.87207L37.6389 4.13828C37.7417 4.09622 37.8352 4.03079 37.8352 3.88122C37.8352 3.75971 37.7838 3.64286 37.6716 3.42319C37.4005 2.89973 36.9191 2.6193 36.3443 2.6193C35.3674 2.6193 34.615 3.46526 34.5262 4.37197C34.5121 4.52154 34.4841 4.54958 34.4467 4.54958C34.4093 4.54958 34.3906 4.52621 34.3439 4.48414C34.1008 4.2598 33.8344 4.10557 33.3016 3.92329C32.6192 3.69427 32.4837 3.57275 32.4837 3.44189C32.4837 3.31102 32.6426 3.22689 32.8623 3.22689C33.1287 3.22689 33.4091 3.34374 33.6241 3.54471C33.9139 3.81112 34.0261 3.89525 34.1569 3.89525C34.2878 3.89525 34.3719 3.78775 34.3719 3.66623C34.3719 3.6008 34.3579 3.53069 34.3299 3.46526L34.0775 2.83429C34.0074 2.64734 33.9139 2.54451 33.7737 2.54451C33.6802 2.54451 33.6148 2.58191 33.5493 2.61462C33.4932 2.65201 33.4652 2.67071 33.3998 2.67071C33.2035 2.67071 33.0773 2.61462 32.7548 2.61462C31.8995 2.61462 31.3106 3.02592 31.3106 3.64753C31.3106 4.11491 31.6471 4.4748 32.4603 4.7599C33.2736 5.045 33.3577 5.17587 33.3577 5.31141C33.3577 5.4563 33.2268 5.56847 32.9604 5.56847C32.5445 5.56847 32.1752 5.39554 31.9182 4.99359C31.7733 4.76925 31.6798 4.6711 31.5396 4.6711C31.404 4.6711 31.3106 4.78794 31.3106 4.96555C31.3106 5.08239 31.3526 5.20391 31.3526 5.31608C31.3573 5.46097 31.2919 5.53575 31.1704 5.53575ZM13.1435 3.54471C13.251 3.61482 13.293 3.69427 13.293 4.00274C13.293 4.53556 13.251 5.05902 13.251 5.49836C13.251 6.03585 13.5968 6.4191 14.1063 6.4191C14.4428 6.4191 14.7513 6.24617 15.1252 5.97976C15.1766 5.94237 15.2233 5.92368 15.2701 5.92368C15.3355 5.92368 15.3682 5.97509 15.4056 6.15269C15.443 6.33965 15.5225 6.4191 15.658 6.4191C15.7421 6.4191 15.859 6.39106 15.9665 6.33965L16.4105 6.12933C16.56 6.05922 16.6629 6.03585 16.7283 6.03585C16.8264 6.03585 16.8638 6.10128 16.8638 6.19943C16.8638 6.34899 16.9433 6.41443 17.0414 6.41443C17.0975 6.41443 17.163 6.39106 17.2658 6.3303L17.5322 6.16672C17.6163 6.11063 17.6677 6.08726 17.7191 6.08726C17.7706 6.08726 17.8126 6.10128 17.864 6.14335C18.1024 6.33965 18.3548 6.41443 18.6539 6.41443C19.6027 6.41443 20.2897 5.5451 20.2897 4.38132C20.2897 3.34841 19.8083 2.60528 19.0185 2.60528C18.7754 2.60528 18.523 2.67538 18.3127 2.82962C18.2286 2.89505 18.1818 2.92309 18.1398 2.92309C18.0837 2.92309 18.0557 2.88103 18.0557 2.80157V1.40878C18.0557 1.18444 17.9622 1.07227 17.7986 1.07227C17.7285 1.07227 17.6257 1.09563 17.4761 1.18911L16.7143 1.66117C16.5413 1.76866 16.504 1.86214 16.504 1.93225C16.504 2.0304 16.5694 2.1192 16.7143 2.20333C16.8218 2.27343 16.8638 2.33887 16.8638 2.71277V5.21793C16.8638 5.47499 16.7984 5.53575 16.6909 5.53575C16.518 5.53575 16.4666 5.3488 16.4666 5.18522V3.02124C16.4666 2.72212 16.3497 2.60995 16.1861 2.60995C16.0927 2.60995 15.9852 2.63799 15.8683 2.6894L15.256 2.95581C15.0037 3.06331 14.9336 3.16613 14.9336 3.30167C14.9336 3.3858 14.985 3.4746 15.1205 3.55406C15.228 3.62416 15.2701 3.70362 15.2701 4.01209V4.8674C15.2701 5.25532 14.9896 5.33945 14.812 5.33945C14.5596 5.33945 14.4475 5.18989 14.4475 4.81599L14.4615 3.02124C14.4615 2.71745 14.3447 2.60995 14.1811 2.60995C14.0876 2.60995 13.9801 2.63799 13.8632 2.6894L13.2743 2.94646C13.022 3.05396 12.9519 3.15678 12.9519 3.29232C12.9565 3.38113 13.0079 3.46526 13.1435 3.54471ZM20.4253 5.37684C20.4253 5.65727 20.4019 5.72738 20.2664 5.81618C20.1075 5.91433 20.0514 5.98911 20.0514 6.09661C20.0514 6.26019 20.1963 6.349 20.4627 6.349H21.5844C21.8508 6.349 21.9957 6.26487 21.9957 6.09661C21.9957 5.98911 21.9396 5.919 21.7807 5.81618C21.6451 5.73205 21.6218 5.65727 21.6218 5.37684V4.17567C21.6218 3.76438 21.7526 3.61482 21.9536 3.61482C22.234 3.61482 22.3556 3.89992 22.4724 4.50751C22.5565 4.97489 22.5939 5.47032 22.5939 5.56847C22.5939 5.71336 22.5846 5.7601 22.5004 5.81151C22.3415 5.90498 22.2854 5.98444 22.2854 6.09194C22.2854 6.26487 22.4023 6.34432 22.6594 6.34432H23.7951C24.0521 6.34432 24.1737 6.26487 24.1737 6.09194C24.1737 5.98444 24.1082 5.90031 23.9867 5.81151C23.8932 5.74607 23.8792 5.70401 23.7717 4.91414C23.7016 4.36263 23.6362 3.92329 23.4679 3.3858C23.3043 2.84831 23.0286 2.60995 22.6126 2.60995C22.2808 2.60995 22.0611 2.75484 21.8368 2.89505C21.7854 2.93244 21.7433 2.94646 21.7059 2.94646C21.6638 2.94646 21.6218 2.92309 21.6218 2.82494V1.40878C21.6218 1.18444 21.5283 1.07227 21.3647 1.07227C21.2946 1.07227 21.1918 1.09563 21.0422 1.18911L20.2804 1.66117C20.1075 1.76866 20.0701 1.86214 20.0701 1.93225C20.0701 2.0304 20.1355 2.1192 20.2804 2.20333C20.3879 2.27343 20.4299 2.33887 20.4299 2.71277V5.37684H20.4253ZM11.6479 5.37684C11.6479 5.65727 11.6245 5.72738 11.489 5.81618C11.33 5.91433 11.274 5.98911 11.274 6.09661C11.274 6.26019 11.4188 6.349 11.6853 6.349H12.807C13.0734 6.349 13.2183 6.26487 13.2183 6.09661C13.2183 5.98911 13.1622 5.919 13.0033 5.81618C12.8677 5.73205 12.8444 5.65727 12.8444 5.37684V1.41345C12.8444 1.18911 12.7509 1.07694 12.5873 1.07694C12.5172 1.07694 12.4144 1.10031 12.2648 1.19378L11.4983 1.66117C11.3254 1.76866 11.288 1.86214 11.288 1.93225C11.288 2.0304 11.3534 2.1192 11.4983 2.20333C11.6058 2.27343 11.6479 2.33887 11.6479 2.71277V5.37684Z" fill="#1F1F1A"/>
<path d="M1.83296 3.19063C1.93111 3.51312 2.04795 3.81692 2.17882 4.11137C2.39849 4.63484 2.54805 4.91527 2.7537 5.25645C3.00608 5.66775 3.28184 6.13513 3.73987 6.43893C4.07638 6.6586 4.48301 6.77077 4.87093 6.77077C5.42244 6.77077 5.8945 6.52773 6.19829 6.2473C6.49742 5.97155 6.88067 5.43406 6.88067 4.3918C6.88067 4.03192 7.03958 3.72345 7.15642 3.47573C7.15642 3.47106 7.1611 3.46171 7.17044 3.43834C7.21718 3.33552 7.27327 3.19998 7.27327 3.06911C7.27327 2.97096 7.24523 2.85879 7.17979 2.76064C7.07697 2.58771 6.89002 2.52228 6.72176 2.52228C6.32449 2.52228 6.0534 2.79803 5.91319 3.08313L5.86645 3.17661C5.81037 3.09248 5.75428 3.00835 5.70754 2.9289C5.56265 2.67651 5.4832 2.50826 5.40842 2.29326C5.35233 2.125 5.3056 1.9287 5.27288 1.76979C5.18408 1.26502 5.04386 1.10144 4.8055 1.04068C4.63257 0.993943 4.42692 1.03133 4.27736 1.12948C4.17453 0.895792 4.0016 0.792969 3.76791 0.792969C3.44075 0.792969 3.14162 1.00796 3.14162 1.37252C3.14162 1.41926 3.1463 1.466 3.15097 1.52208C3.10891 1.51273 3.06217 1.50806 3.01543 1.50806C2.66022 1.50806 2.39849 1.75577 2.39849 2.08761C2.39849 2.16239 2.40783 2.2512 2.43588 2.35402C2.40316 2.34935 2.37512 2.34935 2.3424 2.34935C2.16947 2.35869 2.01056 2.4288 1.89372 2.56434C1.79089 2.69988 1.74883 2.90553 1.83296 3.19063Z" fill="#1F1F1A"/>
<path d="M2.12757 3.09716C2.08083 2.9476 2.08551 2.83542 2.14159 2.76064C2.19768 2.69521 2.27713 2.66249 2.36593 2.65782C2.52484 2.65315 2.5856 2.76532 2.67908 3.05977C2.73517 3.24672 2.84734 3.51313 2.91744 3.66269C3.00625 3.84497 3.12776 4.08333 3.18385 4.16746C3.23059 4.23757 3.27265 4.26094 3.31939 4.26094C3.40352 4.26094 3.46428 4.2142 3.46428 4.13007C3.46428 4.08333 3.41754 4.00855 3.39417 3.96181C3.34743 3.87301 3.24928 3.70008 3.18385 3.55052C3.11374 3.38693 3.02961 3.18129 2.96418 2.99433C2.92212 2.88684 2.87538 2.7326 2.82864 2.57836C2.75853 2.34 2.72114 2.19979 2.72114 2.08761C2.72114 1.92403 2.84266 1.81653 3.02961 1.81653C3.16516 1.81653 3.24928 1.88197 3.30537 2.125C3.35211 2.34467 3.43624 2.70456 3.55308 2.98966C3.62786 3.17661 3.74471 3.41965 3.81014 3.54584C3.8522 3.61595 3.89894 3.68138 3.89894 3.70475C3.89894 3.74214 3.83351 3.79823 3.77742 3.87301C3.74003 3.91975 3.72601 3.94779 3.72601 3.98518C3.72601 4.0179 3.74471 4.04594 3.77742 4.088C3.81014 4.13007 3.83818 4.17213 3.87557 4.17213C3.89894 4.17213 3.91764 4.16279 3.93166 4.13942C4.09057 3.93844 4.2635 3.79823 4.46447 3.68606C4.70284 3.55052 4.9412 3.48508 5.13283 3.44302C5.2263 3.42432 5.24967 3.40095 5.24967 3.34954C5.24967 3.28878 5.20294 3.25139 5.14218 3.24672C5.09544 3.24204 5.05337 3.24672 4.98327 3.25139C4.93185 3.25607 4.90381 3.2327 4.87577 3.16259C4.78229 2.96629 4.60469 2.63912 4.49719 2.21848C4.45045 2.0362 4.40839 1.84925 4.38502 1.60154C4.371 1.48937 4.38969 1.4473 4.44578 1.39589C4.51589 1.33513 4.64675 1.30709 4.7449 1.33513C4.86175 1.36785 4.92718 1.45665 4.98794 1.82121C5.02066 1.98946 5.07207 2.20446 5.13283 2.39141C5.20761 2.62978 5.30576 2.8214 5.45532 3.08781C5.53945 3.2327 5.64227 3.38226 5.74977 3.52715C5.73108 3.58791 5.69369 3.62997 5.57684 3.72812C5.45999 3.82627 5.33848 3.9291 5.23098 4.12072C5.1562 4.26094 5.11881 4.41517 5.11881 4.51799C5.11881 4.61614 5.1375 4.63484 5.20294 4.63484C5.31043 4.63484 5.39924 4.61614 5.40391 4.56941C5.43195 4.38245 5.45999 4.26561 5.56282 4.1254C5.62358 4.05061 5.73108 3.95246 5.81988 3.87301C5.98346 3.73747 6.03955 3.66269 6.09563 3.47106C6.12367 3.38226 6.15172 3.3028 6.19378 3.22335C6.29193 3.04107 6.46486 2.8401 6.74062 2.8401C6.82942 2.8401 6.89953 2.86347 6.94627 2.93825C6.97431 2.98031 6.98366 3.0364 6.98366 3.07846C6.98366 3.17194 6.91822 3.29813 6.88551 3.35889C6.77333 3.60193 6.58638 3.97116 6.58638 4.39648C6.58638 5.32656 6.25922 5.78927 5.99748 6.02763C5.7451 6.266 5.34782 6.47165 4.88044 6.47165C4.54393 6.47165 4.20274 6.3735 3.91764 6.18654C3.52036 5.92481 3.27265 5.51352 3.02494 5.10222C2.82397 4.77038 2.68375 4.50397 2.46876 3.99453C2.33789 3.70008 2.22572 3.4103 2.12757 3.09716Z" fill="#FFE450"/>
<path d="M3.4502 1.37069C3.4502 1.17439 3.63247 1.09961 3.77736 1.09961C3.93627 1.09961 3.99236 1.17439 4.03442 1.34265C4.07181 1.47819 4.08583 1.59971 4.09985 1.7446C4.11855 1.88948 4.19333 2.21665 4.21203 2.30078C4.29148 2.58121 4.44104 2.91772 4.62799 3.31967C4.5205 3.35706 4.37561 3.41782 4.27746 3.46923C4.15594 3.53466 4.1279 3.53466 4.07649 3.43651C3.96899 3.23554 3.88953 3.08598 3.8241 2.91305C3.76801 2.76816 3.71193 2.60458 3.66519 2.41295C3.58574 2.09046 3.57639 1.99698 3.51563 1.84742C3.48759 1.68851 3.4502 1.50156 3.4502 1.37069Z" fill="#FFE450"/>
<path d="M1.60898 4.81683C1.50148 4.88227 0.921929 5.18606 0.791063 5.2328C0.697587 5.26552 0.594763 5.26085 0.538677 5.08324C0.463896 4.86825 0.56672 4.81216 0.716282 4.75608C0.847148 4.70466 1.37996 4.51304 1.50616 4.48032C1.59496 4.45695 1.65572 4.48499 1.69778 4.59249C1.73985 4.70934 1.70713 4.75607 1.60898 4.81683Z" fill="#1F1F1A"/>
<path d="M1.13219 3.59077C0.977951 3.59544 0.332965 3.5674 0.183403 3.55338C0.0572107 3.53935 0.00579878 3.48327 0.0198202 3.30099C0.0338416 3.10002 0.113296 3.09067 0.239489 3.10002C0.384377 3.11404 1.06208 3.22154 1.16958 3.25893C1.28175 3.29164 1.29577 3.34305 1.28175 3.4412C1.26305 3.56272 1.20697 3.58609 1.13219 3.59077Z" fill="#1F1F1A"/>
<path d="M1.21163 2.288C1.03402 2.23191 0.505883 1.91409 0.370343 1.82996C0.24415 1.75518 0.230129 1.68975 0.314257 1.52617C0.389038 1.38128 0.477841 1.35791 0.604033 1.42334C0.748921 1.49812 1.26771 1.90007 1.36586 1.97953C1.45934 2.05431 1.44999 2.09637 1.39858 2.19452C1.34717 2.288 1.30043 2.31604 1.21163 2.288Z" fill="#1F1F1A"/>
</svg>
