<svg width="38" height="38" viewBox="0 0 38 38" fill="none" xmlns="http://www.w3.org/2000/svg">
<defs>
<linearGradient id="paint0_linear_1298_4875" x1="36.0865" y1="10.3893" x2="36.0865" y2="13.378" gradientUnits="userSpaceOnUse">
<stop stop-opacity="0.3"/>
<stop offset="1" stop-color="white" stop-opacity="0"/>
</linearGradient>
<linearGradient id="paint1_linear_1298_4875" x1="36.0865" y1="19.8357" x2="36.0865" y2="23.0632" gradientUnits="userSpaceOnUse">
<stop stop-opacity="0.2"/>
<stop offset="1" stop-color="white" stop-opacity="0"/>
</linearGradient>
<linearGradient id="paint2_linear_1298_4875" x1="36.0865" y1="29.4103" x2="36.0865" y2="31.8122" gradientUnits="userSpaceOnUse">
<stop stop-opacity="0.2"/>
<stop offset="1" stop-color="white" stop-opacity="0"/>
</linearGradient>
<linearGradient id="paint3_linear_1298_4875" x1="34.174" y1="19.0008" x2="36.074" y2="19.0008" gradientUnits="userSpaceOnUse">
<stop stop-opacity="0.2"/>
<stop offset="1" stop-color="white" stop-opacity="0"/>
</linearGradient>
<clipPath id="clip0_1298_4875">
<rect width="38" height="38" fill="white"/>
</clipPath>
</defs>
<g clip-path="url(#clip0_1298_4875)">
<path fill-rule="evenodd" clip-rule="evenodd" d="M29.7667 38H8.23335C7.15153 38.0022 6.07992 37.7907 5.08003 37.3777C4.08014 36.9647 3.17165 36.3583 2.40668 35.5933C1.64172 34.8284 1.03534 33.9199 0.622339 32.92C0.209341 31.9201 -0.00214539 30.8485 1.64071e-05 29.7667V8.23335C-0.00214539 7.15153 0.209341 6.07992 0.622339 5.08003C1.03534 4.08014 1.64172 3.17165 2.40668 2.40668C3.17165 1.64172 4.08014 1.03534 5.08003 0.622339C6.07992 0.209341 7.15153 -0.00214539 8.23335 1.64071e-05H29.7667C30.8485 -0.00214539 31.9201 0.209341 32.92 0.622339C33.9199 1.03534 34.8284 1.64172 35.5933 2.40668C36.3583 3.17165 36.9647 4.08014 37.3777 5.08003C37.7907 6.07992 38.0022 7.15153 38 8.23335V29.7667C38.0022 30.8485 37.7907 31.9201 37.3777 32.92C36.9647 33.9199 36.3583 34.8284 35.5933 35.5933C34.8284 36.3583 33.9199 36.9647 32.92 37.3777C31.9201 37.7907 30.8485 38.0022 29.7667 38Z" fill="#D8D6CC"/>
<path fill-rule="evenodd" clip-rule="evenodd" d="M37.9992 29.4102V29.7648C38.0021 30.8826 37.7767 31.9891 37.3367 33.0166C36.8967 34.0441 36.2514 34.9709 35.4405 35.7401C35.0525 36.1111 34.6281 36.4421 34.1738 36.7281V29.4102H37.9992Z" fill="#4CD964"/>
<path d="M38.0001 19.9102H34.1729V29.4102H38.0001V19.9102Z" fill="#FF9500"/>
<path d="M38.0001 10.4102H34.1729V19.9102H38.0001V10.4102Z" fill="#5AC8FA"/>
<path d="M38.0001 10.4102H34.1729V13.5768H38.0001V10.4102Z" fill="url(#paint0_linear_1298_4875)"/>
<path d="M38.0001 19.9102H34.1729V23.0768H38.0001V19.9102Z" fill="url(#paint1_linear_1298_4875)"/>
<path fill-rule="evenodd" clip-rule="evenodd" d="M34.1729 29.4102V31.9435H37.7016C37.8975 31.2343 37.9978 30.5022 38 29.7665V29.4102H34.1729Z" fill="url(#paint2_linear_1298_4875)"/>
<path fill-rule="evenodd" clip-rule="evenodd" d="M38 8.23287C38.0022 6.84475 37.6523 5.47874 36.983 4.26264C36.3136 3.04654 35.3468 2.02009 34.1729 1.2793V10.4094H38L38 8.23287Z" fill="#C4C2BA"/>
<path d="M17.7918 31.6664C20.1422 31.6688 22.4404 30.974 24.3959 29.67C26.3513 28.3659 27.876 26.5112 28.7771 24.3404C29.6782 22.1696 29.9152 19.7804 29.4581 17.4749C29.0011 15.1694 27.8705 13.0513 26.2093 11.3885C24.5482 9.72565 22.4312 8.59289 20.1262 8.13348C17.8212 7.67407 15.4317 7.90865 13.26 8.80754C11.0883 9.70644 9.23203 11.2293 7.926 13.1834C6.61996 15.1375 5.92285 17.435 5.92285 19.7854C5.93432 22.9308 7.18809 25.9443 9.41112 28.1696C11.6342 30.3949 14.6464 31.6517 17.7918 31.6664ZM17.7918 23.7578C13.7467 23.7578 10.731 25.635 9.77421 27.2458C8.32158 25.6834 7.35678 23.7307 6.99827 21.6276C6.63975 19.5246 6.90312 17.3625 7.75604 15.407C8.60895 13.4515 10.0143 11.7876 11.7996 10.6195C13.5848 9.45149 15.6723 8.83013 17.8057 8.83174C19.9391 8.83335 22.0257 9.45786 23.8091 10.6286C25.5926 11.7994 26.9955 13.4654 27.8454 15.4222C28.6954 17.379 28.9555 19.5414 28.5938 21.6439C28.2321 23.7465 27.2644 25.6977 25.8094 27.2579C24.8526 25.635 21.849 23.7578 17.7918 23.7578ZM17.7918 21.6626C20.1171 21.6626 21.8975 19.6885 21.8975 17.1088C21.8975 14.6866 20.0808 12.6519 17.7918 12.6519C15.5149 12.6519 13.6861 14.6866 13.6982 17.1088C13.6982 19.6885 15.4786 21.6505 17.7918 21.6626Z" fill="#A9A29A"/>
<path fill-rule="evenodd" clip-rule="evenodd" d="M34.1738 36.7203C34.8884 36.2694 35.5292 35.7111 36.0738 35.065V2.93656C35.5292 2.29052 34.8884 1.7322 34.1738 1.28125V36.7203Z" fill="url(#paint3_linear_1298_4875)"/>
</g>
</svg>
