<svg width="36" height="36" viewBox="0 0 36 36" fill="none" xmlns="http://www.w3.org/2000/svg">
<g clip-path="url(#clip0_1227_1668)">
<path d="M2 18C2 15.0987 2.71469 12.4213 4.144 9.968C5.57334 7.51466 7.51469 5.57334 9.968 4.144C12.4213 2.71466 15.0987 2 18 2C20.9013 2 23.5787 2.71466 26.032 4.144C28.4853 5.57334 30.4267 7.51466 31.856 9.968C33.2853 12.4213 34 15.0987 34 18C34 20.9013 33.2853 23.5787 31.856 26.032C30.4267 28.4853 28.4853 30.4267 26.032 31.856C23.5787 33.2853 20.9013 34 18 34C15.0987 34 12.4213 33.2853 9.968 31.856C7.51469 30.4267 5.57334 28.4853 4.144 26.032C2.71469 23.5787 2 20.9013 2 18ZM4.656 18C4.656 21.328 5.776 24.2613 8.016 26.8C9.04 24.7947 10.6613 22.8853 12.88 21.072C15.0987 19.2587 17.264 18.1173 19.376 17.648C19.056 16.9013 18.7467 16.2293 18.448 15.632C14.7787 16.8053 10.8107 17.392 6.544 17.392C5.712 17.392 5.09334 17.3813 4.688 17.36C4.688 17.4453 4.68269 17.552 4.672 17.68C4.66134 17.808 4.656 17.9147 4.656 18ZM5.072 14.704C5.54134 14.7467 6.23469 14.768 7.152 14.768C10.7147 14.768 14.096 14.288 17.296 13.328C15.6747 10.448 13.8933 8.048 11.952 6.128C10.2667 6.98134 8.82134 8.16534 7.616 9.68C6.41069 11.1947 5.56269 12.8693 5.072 14.704ZM9.84 28.528C12.2507 30.4053 14.9707 31.344 18 31.344C19.5787 31.344 21.1467 31.0453 22.704 30.448C22.2773 26.8 21.4453 23.2693 20.208 19.856C18.2453 20.2827 16.2667 21.36 14.272 23.088C12.2773 24.816 10.8 26.6293 9.84 28.528ZM14.736 5.104C16.6133 7.04534 18.352 9.46666 19.952 12.368C22.8533 11.152 25.04 9.60534 26.512 7.728C24.0373 5.68 21.2 4.656 18 4.656C16.912 4.656 15.824 4.80534 14.736 5.104ZM21.104 14.64C21.424 15.3227 21.7867 16.1867 22.192 17.232C23.7707 17.0827 25.488 17.008 27.344 17.008C28.6667 17.008 29.9787 17.04 31.28 17.104C31.1093 14.2027 30.064 11.6213 28.144 9.36C26.7573 11.4293 24.4107 13.1893 21.104 14.64ZM22.992 19.472C24.08 22.6293 24.816 25.872 25.2 29.2C26.8853 28.112 28.2613 26.7147 29.328 25.008C30.3947 23.3013 31.0347 21.456 31.248 19.472C29.6907 19.3653 28.272 19.312 26.992 19.312C25.8187 19.312 24.4853 19.3653 22.992 19.472Z" fill="black"/>
</g>
<defs>
<clipPath id="clip0_1227_1668">
<rect width="32" height="32" fill="white" transform="translate(2 2)"/>
</clipPath>
</defs>
</svg>
