<svg width="36" height="18" viewBox="0 0 36 18" fill="none" xmlns="http://www.w3.org/2000/svg">
<g clip-path="url(#clip0_1227_1737)">
<path d="M3.86077 6.16792V1.34228C3.86077 1.16347 3.87861 1.05623 4.18261 1.05623H8.27538C8.99041 1.05623 9.3836 1.66401 9.66965 2.8078L9.90198 3.71948H10.599C10.7239 1.12801 10.8311 0.00195312 10.8311 0.00195312C10.8311 0.00195312 9.0796 0.198495 8.04295 0.198495H2.80649L0 0.10909V0.859794L0.94746 1.0385C1.60876 1.16369 1.76931 1.3065 1.82335 1.91439C1.82335 1.91439 1.87708 3.70164 1.87708 6.65083C1.87708 9.5996 1.82335 11.3692 1.82335 11.3692C1.82335 11.9053 1.60876 12.1019 0.94746 12.2274L0 12.4062V13.1565L2.80649 13.0673H7.48921C8.5437 13.0673 10.9923 13.1565 10.9923 13.1565C11.0457 12.5129 11.4034 9.5996 11.457 9.27829H10.7957L10.0986 10.869C9.54446 12.1198 8.74035 12.2093 7.84651 12.2093H5.18326C4.28953 12.2093 3.86056 11.8518 3.86056 11.0834V7.00824C3.86056 7.00824 5.80867 7.00824 6.4877 7.06196C6.98824 7.09785 7.29192 7.24077 7.453 7.93775L7.66759 8.86716H8.43571L8.3823 6.52554L8.48944 4.1665H7.72111L7.47105 5.20304C7.30997 5.88218 7.20294 6.00758 6.50575 6.07883C5.71948 6.16845 3.86045 6.1505 3.86045 6.1505V6.16823H3.86077V6.16792ZM14.4594 1.84282C14.2091 2.95093 13.9589 3.80877 13.0831 4.38077C12.547 4.73808 12.0106 4.86305 11.7965 4.881V5.56013H13.3871V11.0471C13.3871 12.5844 14.406 13.3352 15.7642 13.3352C16.8188 13.3352 17.9088 12.8884 18.2843 11.9587L17.9088 11.4761C17.73 11.7801 17.1584 12.2268 16.4434 12.2268C15.6571 12.2268 15.2282 11.6905 15.2282 10.3325V5.48899L17.8736 5.68575L18.0164 4.47007L15.2283 4.57742V1.86056L14.4594 1.84282ZM20.1074 10.2826L19.4283 10.3004C19.464 10.6935 19.482 11.1941 19.482 11.6588C19.482 12.1414 19.4642 12.5882 19.4283 12.8026C19.4283 12.8026 20.7867 13.3026 22.1629 13.3026C24.0217 13.3026 25.5053 12.4089 25.5053 10.6574C25.5053 7.6551 21.0013 8.10201 21.0013 6.08202C21.0013 5.24212 21.7519 4.92028 22.574 4.92028C23.2175 4.92028 23.7536 5.15261 23.8608 5.4925L24.3078 6.83293L24.9692 6.79725C25.0229 6.08223 25.0585 5.26006 25.1658 4.59887C24.5937 4.3486 23.3961 4.20536 22.646 4.20536C20.894 4.20536 19.4823 4.97401 19.4823 6.68991C19.4823 9.67456 23.8789 9.06688 23.8789 11.2656C23.8789 12.0516 23.3961 12.6058 22.3061 12.6058C21.3055 12.6058 20.8048 12.0876 20.6086 11.5691L20.1074 10.2826ZM30.8799 12.3474C29.8451 15.2377 28.5785 15.9865 27.4368 15.9865C26.9549 15.9865 26.7232 15.7723 26.6515 15.4339L26.3839 14.0419L25.6345 14.0776C25.4918 14.8984 25.3491 15.8086 25.1531 16.5577C25.5991 16.8962 26.348 17.075 26.937 17.075C28.1683 17.075 30.0414 16.9141 31.7537 12.8467L34.6263 6.06757C34.8584 5.51437 34.9473 5.46085 35.6252 5.19306L36 5.05067V4.42622L34.305 4.51541L32.4853 4.42622V5.05067L32.9489 5.19306C33.4126 5.33609 33.6271 5.51437 33.6271 5.83557C33.6271 5.99601 33.5734 6.15666 33.484 6.40619C33.2164 7.08458 31.5572 11.1163 31.1117 11.9729L31.5571 11.812C30.772 9.8675 29.5772 6.62025 29.3986 6.06768C29.363 5.96054 29.3451 5.87135 29.3451 5.78173C29.3451 5.49642 29.5413 5.26442 29.9696 5.17533L30.5584 5.05078V4.42633L28.1139 4.51552L26.1694 4.42633V5.05078L26.4906 5.1577C26.9366 5.30041 27.0437 5.42539 27.3113 6.04974C28.7916 9.43958 29.4878 11.2947 30.433 13.7212L30.8799 12.3474Z" fill="#F27224"/>
</g>
<defs>
<clipPath id="clip0_1227_1737">
<rect width="36" height="17.0784" fill="white"/>
</clipPath>
</defs>
</svg>
