<svg width="36" height="36" viewBox="0 0 36 36" fill="none" xmlns="http://www.w3.org/2000/svg">
<g clip-path="url(#clip0_1227_1824)">
<path d="M18 36C27.9411 36 36 27.9411 36 18C36 8.05887 27.9411 0 18 0C8.05887 0 0 8.05887 0 18C0 27.9411 8.05887 36 18 36Z" fill="#3C5A9A"/>
<path d="M23.853 5.52539H19.8656C17.4993 5.52539 14.8673 6.52062 14.8673 9.95066C14.8789 11.1458 14.8673 12.2904 14.8673 13.5786H12.1299V17.9348H14.9521V30.4753H20.138V17.852H23.5608L23.8705 13.5664H20.0486C20.0486 13.5664 20.0572 11.66 20.0486 11.1063C20.0486 9.75086 21.459 9.82848 21.5439 9.82848C22.215 9.82848 23.52 9.83044 23.855 9.82848V5.52539H23.853Z" fill="white"/>
</g>
<defs>
<clipPath id="clip0_1227_1824">
<rect width="36" height="36" fill="white"/>
</clipPath>
</defs>
</svg>
