<svg width="48" height="13" viewBox="0 0 48 13" fill="none" xmlns="http://www.w3.org/2000/svg">
<g clip-path="url(#clip0_1298_4888)">
<path d="M21.8284 11.1031C21.8284 11.8459 22.3018 12.3439 22.9712 12.3439C23.6406 12.3439 24.1141 11.8459 24.1141 11.1031V4.82553H24.7672C25.3549 4.82553 25.861 4.54798 25.861 3.84594C25.861 3.13574 25.3549 2.86635 24.7672 2.86635H24.1141V1.53574C24.1141 0.792881 23.6406 0.294922 22.9712 0.294922C22.3018 0.294922 21.8284 0.792881 21.8284 1.53574V2.86635H21.3223C20.7508 2.86635 20.3182 3.28268 20.3182 3.84594C20.3182 4.45002 20.7018 4.82553 21.3223 4.82553H21.8284V11.1031ZM6.29368 1.51125C6.29368 0.735738 5.78756 0.303085 5.10185 0.303085C4.41613 0.303085 3.91001 0.735738 3.91001 1.51125V8.99696C3.91001 9.49492 3.91001 10.3031 3.02021 10.3031C2.30185 10.3031 1.74675 9.73166 1.11001 9.73166C0.587562 9.73166 0.220215 10.2623 0.220215 10.6786C0.220215 12.0255 2.04879 12.45 3.15083 12.45C4.59573 12.45 6.30185 11.7643 6.30185 9.16023V1.51125H6.29368ZM6.93042 9.17655C6.93042 11.1602 8.28552 12.4337 10.7018 12.4337C13.1182 12.4337 14.4733 11.1602 14.4733 9.17655V5.1439C14.4733 4.40104 13.9998 3.90309 13.3304 3.90309C12.661 3.90309 12.1876 4.40104 12.1876 5.1439V9.12757C12.1876 10.0582 11.4692 10.5725 10.71 10.5725C9.94266 10.5725 9.23246 10.0582 9.23246 9.12757V5.1439C9.23246 4.40104 8.75899 3.90309 8.0896 3.90309C7.42021 3.90309 6.94675 4.40104 6.94675 5.1439V9.17655H6.93042ZM20.8896 5.42962C20.8896 5.9439 20.4896 6.42553 19.9508 6.42553C19.5182 6.42553 18.6447 5.77247 17.9018 5.77247C17.4855 5.77247 17.1263 5.96023 17.1263 6.39288C17.1263 7.42962 21.1018 7.27451 21.1018 9.82145C21.1018 11.3072 19.8121 12.45 17.8447 12.45C16.5549 12.45 14.6447 11.7317 14.6447 10.7276C14.6447 10.3847 14.9957 9.73166 15.6325 9.73166C16.5223 9.73166 16.9223 10.4908 17.9998 10.4908C18.7018 10.4908 18.9059 10.2704 18.9059 9.8541C18.9059 8.8337 14.9304 8.9888 14.9304 6.42553C14.9304 4.87451 16.2202 3.82145 18.0325 3.82145C19.159 3.81329 20.8896 4.32758 20.8896 5.42962Z" fill="#1274C0"/>
<path d="M45.608 11.0129C45.608 11.7557 46.0896 12.2537 46.7672 12.2537C47.4447 12.2537 47.9264 11.7557 47.9264 11.0129V1.45371C47.9264 0.71085 47.4447 0.212891 46.7672 0.212891C46.0896 0.212891 45.608 0.71085 45.608 1.45371V11.0129ZM33.4611 1.45371C33.4611 0.71085 32.9794 0.212891 32.3019 0.212891C31.6243 0.212891 31.1427 0.71085 31.1427 1.45371V4.49044C30.5305 3.97616 29.7468 3.71493 28.9386 3.71493C26.4488 3.71493 25.208 5.96799 25.208 8.13942C25.208 10.2455 26.6856 12.3435 29.0203 12.3435C29.8121 12.3435 30.71 12.0006 31.1427 11.3149C31.2896 11.9027 31.657 12.2455 32.3019 12.2455C32.9794 12.2455 33.4611 11.7476 33.4611 11.0047V1.45371ZM31.1427 7.96799C31.1427 9.05371 30.5958 10.2945 29.3223 10.2945C28.1141 10.2945 27.5182 9.08636 27.5182 8.04146C27.5182 6.9884 28.1141 5.76391 29.3223 5.76391C30.5631 5.76391 31.1427 6.88228 31.1427 7.96799ZM34.0978 11.0129C34.0978 11.7557 34.5794 12.2537 35.257 12.2537C35.9345 12.2537 36.4162 11.7557 36.4162 11.0129V5.05371C36.4162 4.31085 35.9345 3.81289 35.257 3.81289C34.5794 3.81289 34.0978 4.31085 34.0978 5.05371V11.0129ZM35.257 0.457789C34.5631 0.457789 33.9509 1.04554 33.9509 1.68228C33.9509 2.36799 34.5631 2.97207 35.257 2.97207C35.9835 2.97207 36.5631 2.38432 36.5631 1.68228C36.5631 1.03738 35.9509 0.457789 35.257 0.457789ZM44.9713 5.26595C44.9713 4.69452 44.9713 3.80473 43.8611 3.80473C43.2978 3.80473 42.8162 4.19656 42.7509 4.73534C42.2366 4.0333 41.3958 3.71493 40.5468 3.71493C38.4243 3.71493 36.7182 5.59248 36.7182 8.04146C36.7182 10.5557 38.3754 12.3435 40.5468 12.3435C41.4284 12.3435 42.1549 11.9843 42.7509 11.2986C42.9141 11.8864 43.1835 12.2455 43.8611 12.2455C44.9713 12.2455 44.9713 11.3557 44.9713 10.7843V5.26595ZM39.0366 8.04963C39.0366 6.98024 39.5998 5.77207 40.8733 5.77207C42.0978 5.77207 42.6611 6.98024 42.6611 8.04963C42.6611 9.11901 42.0815 10.3027 40.8733 10.3027C39.6162 10.2945 39.0366 9.11901 39.0366 8.04963Z" fill="#FF6C00"/>
</g>
<defs>
<clipPath id="clip0_1298_4888">
<rect width="48" height="12.5714" fill="white"/>
</clipPath>
</defs>
</svg>
