<svg width="36" height="36" viewBox="0 0 36 36" fill="none" xmlns="http://www.w3.org/2000/svg">
<g clip-path="url(#clip0_1227_1708)">
<path d="M18 36C27.9411 36 36 27.9411 36 18C36 8.05888 27.9411 0 18 0C8.05888 0 0 8.05888 0 18C0 27.9411 8.05888 36 18 36Z" fill="#FF4500"/>
<path d="M30.0059 18.0005C30.0095 18.2471 29.9789 18.4932 29.9141 18.7313C29.8493 18.9693 29.7512 19.1975 29.6225 19.4081C29.4943 19.6187 29.3368 19.8104 29.1549 19.9773C28.9731 20.1443 28.7688 20.2847 28.5479 20.3945C28.5528 20.4602 28.5569 20.5263 28.5591 20.5925C28.5646 20.7244 28.5646 20.8566 28.5591 20.9885C28.5569 21.0546 28.5528 21.1208 28.5479 21.1865C28.5479 25.2185 23.8499 28.4945 18.0538 28.4945C12.2578 28.4945 7.55979 25.2185 7.55979 21.1865C7.55484 21.1208 7.55079 21.0546 7.54854 20.9885C7.54312 20.8566 7.54312 20.7244 7.54854 20.5925C7.55079 20.5263 7.55484 20.4602 7.55979 20.3945C7.21363 20.2354 6.90617 20.0029 6.6587 19.7133C6.41123 19.4236 6.22965 19.0836 6.12653 18.7169C6.02358 18.35 6.00165 17.965 6.06226 17.5888C6.12287 17.2126 6.26457 16.854 6.47753 16.538C6.69031 16.222 6.96929 15.9561 7.29511 15.7587C7.62094 15.5613 7.9858 15.4372 8.36439 15.395C8.74303 15.3525 9.12637 15.3929 9.48785 15.5134C9.84932 15.6338 10.1803 15.8314 10.4578 16.0925C10.973 15.7433 11.5127 15.4318 12.0729 15.1605C12.6331 14.8896 13.2123 14.6592 13.8058 14.472C14.3994 14.2848 15.006 14.1413 15.6202 14.0418C16.2345 13.9424 16.8555 13.8879 17.4778 13.8785L18.8098 7.63242C18.8247 7.55997 18.8539 7.49157 18.8958 7.43037C18.9372 7.36962 18.9907 7.31742 19.0524 7.27737C19.1145 7.23732 19.1838 7.20987 19.2567 7.19637C19.3291 7.18332 19.4038 7.18467 19.4758 7.20042L23.8859 8.08243C24.3309 7.31787 25.2651 6.99027 26.09 7.30887C26.9148 7.62747 27.3864 8.49823 27.2019 9.36313C27.0179 10.228 26.2322 10.831 25.3493 10.7856C24.4659 10.7401 23.7464 10.0597 23.6519 9.18043L19.7999 8.37043L18.6298 13.9865C19.2445 13.9995 19.8579 14.0571 20.4645 14.1584C21.6793 14.3608 22.8584 14.7376 23.9655 15.2771C24.5185 15.5462 25.0513 15.8548 25.5599 16.2005C25.9256 15.8494 26.3851 15.6117 26.8829 15.516C27.3807 15.42 27.8957 15.4702 28.3656 15.6605C28.8356 15.8506 29.2406 16.1727 29.5316 16.5879C29.8227 17.0031 29.9874 17.4937 30.0059 18.0005ZM12.1426 20.4894C12.2335 20.7077 12.3658 20.9061 12.5332 21.0731C12.7002 21.2405 12.8986 21.3728 13.1169 21.4637C13.3353 21.554 13.5694 21.6005 13.8058 21.6005C14.5339 21.6005 15.19 21.1617 15.469 20.4894C15.7476 19.8167 15.5932 19.0427 15.0784 18.5279C14.5636 18.0131 13.7896 17.8587 13.1169 18.1373C12.4446 18.4163 12.0058 19.0724 12.0058 19.8005C12.0058 20.0367 12.0522 20.2707 12.1426 20.4894ZM22.4522 24.8104C22.5444 24.7204 22.5971 24.5975 22.5989 24.4688C22.6007 24.3397 22.5507 24.2155 22.4607 24.1232C22.3707 24.031 22.2479 23.9783 22.1192 23.9765C21.99 23.9747 21.8658 24.0247 21.7619 24.1025C21.4912 24.2967 21.2046 24.4675 20.9051 24.6133C20.6055 24.7591 20.2942 24.8794 19.9745 24.9728C19.655 25.066 19.3278 25.1321 18.997 25.1704C18.6658 25.2086 18.3324 25.2185 17.9998 25.2005C17.6677 25.2154 17.3347 25.2019 17.0049 25.1605C16.675 25.1195 16.3492 25.0502 16.0311 24.9535C15.7125 24.8572 15.4033 24.7339 15.1059 24.5854C14.8084 24.4369 14.524 24.2632 14.2558 24.0665C14.1627 23.99 14.0443 23.9509 13.9237 23.9567C13.8031 23.9626 13.6893 24.0134 13.6038 24.0985C13.5187 24.184 13.4679 24.2978 13.462 24.4184C13.4562 24.539 13.4953 24.6574 13.5718 24.7505C13.8882 24.989 14.2243 25.1996 14.5767 25.3805C14.929 25.5614 15.2967 25.7113 15.6747 25.8292C16.0527 25.9471 16.4401 26.0321 16.833 26.0839C17.2258 26.1352 17.6223 26.1527 18.0178 26.1365C18.4134 26.1527 18.8098 26.1352 19.2027 26.0839C19.9895 25.9804 20.7527 25.7425 21.459 25.3805C21.8114 25.1996 22.1475 24.989 22.4639 24.7505L22.4522 24.8104ZM22.1219 21.7445C22.3658 21.7472 22.6079 21.7 22.8333 21.6064C23.0588 21.5123 23.2626 21.3737 23.4327 21.1986C23.6028 21.0236 23.7351 20.8157 23.8224 20.5875C23.9098 20.3597 23.9497 20.1164 23.9399 19.8725C23.9399 19.1444 23.5011 18.4883 22.8288 18.2093C22.1561 17.9307 21.3821 18.0851 20.8673 18.5999C20.3525 19.1147 20.1981 19.8887 20.4767 20.5614C20.7557 21.2337 21.4118 21.6725 22.1399 21.6725L22.1219 21.7445Z" fill="white"/>
</g>
<defs>
<clipPath id="clip0_1227_1708">
<rect width="36" height="36" fill="white"/>
</clipPath>
</defs>
</svg>
