<svg width="48" height="48" viewBox="0 0 48 48" fill="none" xmlns="http://www.w3.org/2000/svg">
<path d="M37.2159 11.78C37.1929 11.569 37.0049 11.475 36.8649 11.475C36.7249 11.475 33.6549 11.241 33.6549 11.241C33.6549 11.241 31.5229 9.109 31.2649 8.898C31.0309 8.664 30.5849 8.734 30.3979 8.781C30.3749 8.781 29.9289 8.922 29.2029 9.156C28.4769 7.07 27.2349 5.172 25.0089 5.172H24.7979C24.1869 4.375 23.3909 4 22.7349 4C17.5799 4 15.0959 10.444 14.3229 13.725C12.3079 14.358 10.8779 14.779 10.7139 14.85C9.58891 15.201 9.56591 15.225 9.42491 16.279C9.30791 17.076 6.37891 39.735 6.37891 39.735L29.1789 44L41.5519 41.329C41.5749 41.282 37.2399 11.991 37.2159 11.78ZM27.9369 9.483C27.3749 9.647 26.6949 9.858 26.0159 10.092V9.671C26.0159 8.406 25.8519 7.375 25.5469 6.554C26.7179 6.695 27.4449 7.984 27.9369 9.483ZM24.1169 6.812C24.4219 7.609 24.6329 8.734 24.6329 10.28V10.514C23.3679 10.912 22.0319 11.311 20.6489 11.756C21.4219 8.804 22.8989 7.351 24.1169 6.812ZM22.6169 5.359C22.8509 5.359 23.0859 5.453 23.2729 5.593C21.6089 6.366 19.8519 8.311 19.1249 12.248C18.0239 12.599 16.9689 12.904 15.9619 13.232C16.8059 10.233 18.9149 5.359 22.6169 5.359Z" fill="#7CB342"/>
<path d="M36.865 11.4289C36.724 11.4289 33.655 11.1949 33.655 11.1949C33.655 11.1949 31.523 9.06294 31.265 8.85194C31.17 8.75794 31.053 8.71094 30.96 8.71094L29.249 44.0009L41.622 41.3299C41.622 41.3299 37.287 11.9919 37.263 11.7809C37.169 11.5699 37.005 11.4759 36.865 11.4289Z" fill="#558B2F"/>
<path d="M24.7919 18.5933L23.3169 23.0423C23.3169 23.0423 21.9799 22.3273 20.3899 22.3273C18.0159 22.3273 17.9009 23.8253 17.9009 24.1943C17.9009 26.2223 23.2019 27.0063 23.2019 31.7773C23.2019 35.5343 20.8279 37.9543 17.6239 37.9543C13.7519 37.9543 11.8159 35.5573 11.8159 35.5573L12.8529 32.1463C12.8529 32.1463 14.8809 33.8983 16.5869 33.8983C17.7159 33.8983 18.1769 33.0223 18.1769 32.3773C18.1769 29.7263 13.8439 29.6113 13.8439 25.2323C13.8439 21.5673 16.4719 18.0183 21.7959 18.0183C23.7769 17.9943 24.7919 18.5933 24.7919 18.5933Z" fill="white"/>
</svg>
