<svg width="36" height="36" viewBox="0 0 36 36" fill="none" xmlns="http://www.w3.org/2000/svg">
<g clip-path="url(#clip0_1227_1796)">
<path d="M18.1924 32.0964C11.0602 32.0964 2.95627 23.5054 3.60438 16.3733C4.25248 9.56551 13.3298 3.24402 20.0562 4.21656C25.9728 5.0265 31.2412 12.4831 30.916 18.3996C30.5931 24.639 24.4327 32.0964 18.1924 32.0964Z" fill="white"/>
<path d="M23.2992 35.7418C22.8122 35.58 22.0828 35.4181 21.6778 35.2555C21.1915 35.0132 20.624 35.0132 18.8415 35.0937C17.1396 35.1742 16.2476 35.0937 15.0327 34.9311C8.54857 33.7975 3.36145 29.0967 1.49767 22.6134C1.17324 21.3977 1.0927 20.7496 1.0927 17.832C1.0927 14.6705 1.0114 14.4281 0.606434 13.1312C-1.74361 6.72839 3.03778 0.00195312 9.84554 0.00195312C11.223 0.00195312 12.925 0.407682 13.8975 0.893189C14.5464 1.21762 14.9514 1.29816 17.4632 1.29816C19.7327 1.29816 20.624 1.37946 21.7584 1.70389C26.8649 3.00085 30.9975 6.32342 33.1857 10.943C34.5632 13.7793 35.0502 16.6976 34.725 20.0194C34.5632 21.8034 34.5632 21.9653 34.9681 23.0183C36.2651 26.8279 35.0494 31.2036 31.8887 33.7975C30.9154 34.6082 28.9711 35.4994 27.7554 35.8239C26.539 36.067 24.5947 36.067 23.3782 35.7426H23.2992V35.7418ZM21.1103 29.5016C23.7855 28.9348 26.1348 27.3134 27.0268 25.3691C28.1611 23.0183 27.8367 20.2626 26.2974 18.5606C25.0004 17.1018 23.0553 16.2919 18.4358 15.1575C15.3556 14.4281 14.6262 14.1037 13.9781 13.3743C13.4105 12.7254 13.3292 12.2399 13.8162 11.5105C14.3025 10.6998 15.5182 10.2136 17.1388 10.133C19.4896 9.97118 20.5427 10.538 21.9202 12.7262C22.974 14.3476 24.0271 14.7525 25.4061 14.1037C27.1886 13.2125 27.0268 10.2949 25.0809 8.59292C23.2172 7.05358 21.1916 6.40472 17.7869 6.40472C14.2212 6.40472 11.7891 7.13412 10.1685 8.75475C8.87148 10.0517 8.62911 10.7811 8.62911 12.8067C8.62911 14.9136 8.87224 15.5617 10.2497 16.7782C11.7086 18.1557 12.9242 18.6427 17.2999 19.6958C20.3801 20.4252 21.1908 20.8301 21.9194 21.6408C22.2446 22.0466 22.4065 22.3702 22.4065 23.0996C22.4065 23.9103 22.3252 24.0722 21.6771 24.721C20.7045 25.6928 19.2457 26.0978 17.3819 26.018C15.1937 25.8554 14.2212 25.2073 13.0868 22.9378C12.2761 21.3984 11.628 20.8309 10.5742 20.8309C8.22338 20.8309 7.41343 22.7759 8.62911 25.2878C9.68294 27.4768 11.7899 28.9356 14.4643 29.5024C16.085 29.8268 19.6514 29.8268 21.1916 29.5024H21.1103V29.5016Z" fill="#00AFF0"/>
</g>
<defs>
<clipPath id="clip0_1227_1796">
<rect width="35.4816" height="36" fill="white"/>
</clipPath>
</defs>
</svg>
