<svg width="36" height="36" viewBox="0 0 36 36" fill="none" xmlns="http://www.w3.org/2000/svg">
<g clip-path="url(#clip0_1227_1791)">
<path d="M28.2777 32.108V23.3516H32.1673V35.9994H3V23.3516H6.88957V32.108H28.2777Z" fill="#BCBBBB"/>
<path d="M25.3617 25.2978L26.1392 22.3783L10.4855 19.1691L9.80518 22.3783L25.3617 25.2978ZM11.9452 14.7899L26.528 21.6008L27.8887 18.6813L13.306 11.8723L11.9452 14.7899ZM16.0274 7.59033L28.2775 17.9038L30.3204 15.4721L17.9731 5.15867L15.9302 7.59033H16.0274ZM23.9037 0.00195312L21.2777 1.94765L30.9035 14.8871L33.5278 12.9414L23.9037 0.00195312ZM9.80518 29.1891H25.3617V26.2715H9.80518V29.1891Z" fill="#F48024"/>
</g>
<defs>
<clipPath id="clip0_1227_1791">
<rect width="30.528" height="36" fill="white" transform="translate(3)"/>
</clipPath>
</defs>
</svg>
