<svg width="48" height="48" viewBox="0 0 48 48" fill="none" xmlns="http://www.w3.org/2000/svg">
<defs>
<linearGradient id="paint0_linear_1298_4673" x1="2.874" y1="5.771" x2="24.916" y2="31.217" gradientUnits="userSpaceOnUse">
<stop stop-color="#33C481"/>
<stop offset="1" stop-color="#21A366"/>
</linearGradient>
<linearGradient id="paint1_linear_1298_4673" x1="20.478" y1="17.541" x2="43.542" y2="38.647" gradientUnits="userSpaceOnUse">
<stop stop-color="#F0F0F0"/>
<stop offset="1" stop-color="#BBC1C4"/>
</linearGradient>
</defs>
<path d="M18 6C9.2 6 2 12 2 19.5C2 23.8 4.3 27.5 8 30L6 36L12.3 32.1C14 32.7 16 33 18 33C26.8 33 34 27 34 19.5C34 12 26.8 6 18 6Z" fill="url(#paint0_linear_1298_4673)"/>
<path opacity="0.05" d="M19 29C19 30.371 19.283 31.684 19.779 32.912C27.749 32.167 34 26.487 34 19.5C34 18.655 33.896 17.832 33.721 17.031C33.481 17.021 33.243 17 33 17C25.28 17 19 22.383 19 29Z" fill="black"/>
<path opacity="0.07" d="M19.5 29C19.5 30.35 19.789 31.641 20.293 32.846C28.014 31.908 34 26.335 34 19.5C34 18.83 33.923 18.178 33.812 17.535C33.542 17.521 33.274 17.5 33 17.5C25.556 17.5 19.5 22.659 19.5 29Z" fill="black"/>
<path d="M46 29C46 22.9 40.2 18 33 18C25.8 18 20 22.9 20 29C20 35.1 25.8 40 33 40C34.8 40 36.5 39.7 38 39.2L43 42L41.6 37.2C44.3 35.2 46 32.3 46 29Z" fill="url(#paint1_linear_1298_4673)"/>
<path d="M14 15C14 16.1 13.1 17 12 17C10.9 17 10 16.1 10 15C10 13.9 10.9 13 12 13C13.1 13 14 13.9 14 15ZM24 13C22.9 13 22 13.9 22 15C22 16.1 22.9 17 24 17C25.1 17 26 16.1 26 15C26 13.9 25.1 13 24 13Z" fill="#135D36"/>
<path d="M30 26.5C30 27.3 29.3 28 28.5 28C27.7 28 27 27.3 27 26.5C27 25.7 27.7 25 28.5 25C29.3 25 30 25.7 30 26.5ZM37.5 25C36.7 25 36 25.7 36 26.5C36 27.3 36.7 28 37.5 28C38.3 28 39 27.3 39 26.5C39 25.7 38.3 25 37.5 25Z" fill="#474747"/>
</svg>
