<svg width="48" height="48" viewBox="0 0 48 48" fill="none" xmlns="http://www.w3.org/2000/svg">
<path d="M10.6999 32.7005C10.1999 32.7005 9.79987 32.4005 9.49987 31.9005C9.29987 31.5005 9.19987 30.9005 9.09987 30.2005C8.89987 28.0005 9.09987 24.7005 9.79987 23.7005C10.0999 23.2005 10.5999 23.0005 10.9999 23.0005C11.2999 23.0005 11.5999 23.1005 18.0999 25.8005L19.9999 26.6005C20.6999 26.9005 21.0999 27.6005 21.0999 28.4005C21.0999 29.2005 20.5999 29.8005 19.8999 30.0005L17.1999 30.9005C11.1999 32.7005 10.9999 32.7005 10.6999 32.7005ZM23.9999 36.3005C23.9999 42.6005 23.9999 42.8005 23.8999 43.1005C23.6999 43.6005 23.2999 43.9005 22.7999 44.0005C21.1999 44.3005 16.1999 42.4005 15.0999 41.2005C14.8999 40.9005 14.7999 40.7005 14.6999 40.4005C14.6999 40.2005 14.6999 40.0005 14.7999 39.8005C14.8999 39.5005 15.0999 39.2005 19.5999 33.9005L20.8999 32.3005C21.2999 31.7005 22.1999 31.6005 22.8999 31.8005C23.5999 32.1005 24.0999 32.7005 23.9999 33.4005C23.9999 33.5005 23.9999 36.3005 23.9999 36.3005ZM22.7999 22.9005C22.4999 23.0005 21.4999 23.3005 20.2999 21.3005C20.2999 21.3005 12.1999 8.40052 11.9999 8.00052C11.8999 7.60052 11.9999 7.00052 12.3999 6.60052C13.5999 5.30052 20.0999 3.50052 21.7999 3.90052C22.3999 4.00052 22.6999 4.40052 22.8999 4.90052C22.9999 5.50052 23.7999 17.4005 23.8999 20.1005C24.0999 22.5005 23.0999 22.8005 22.7999 22.9005ZM27.1999 25.9005C26.7999 25.3005 26.7999 24.5005 27.1999 24.0005L28.8999 21.7005C32.4999 16.7005 32.6999 16.4005 32.9999 16.3005C33.3999 16.0005 33.8999 16.0005 34.3999 16.2005C35.7999 16.9005 38.7999 21.3005 38.9999 22.9005C38.9999 22.9005 38.9999 22.9005 38.9999 23.0005C38.9999 23.6005 38.7999 24.0005 38.3999 24.3005C38.0999 24.5005 37.8999 24.6005 30.9999 26.2005C29.8999 26.5005 29.2999 26.6005 28.9999 26.7005V26.6005C28.3999 26.9005 27.5999 26.5005 27.1999 25.9005ZM38.8999 34.4005C38.6999 36.0005 35.3999 40.2005 33.7999 40.8005C33.2999 41.0005 32.7999 41.0005 32.3999 40.6005C32.0999 40.4005 31.8999 40.0005 28.2999 34.2005L27.1999 32.5005C26.7999 31.9005 26.8999 31.1005 27.3999 30.4005C27.8999 29.8005 28.5999 29.6005 29.2999 29.8005L31.9999 30.7005C37.9999 32.7005 38.1999 32.7005 38.3999 32.9005C38.7999 33.4005 38.9999 33.9005 38.8999 34.4005Z" fill="#DD2C00"/>
</svg>
